<?xml version="1.0" encoding="UTF-8"?>
<svg id="kampailogo" data-name="レイヤー 2" xmlns="http://www.w3.org/2000/svg" viewBox="0 0 807.23 269.52">
  <defs>
    <style>
      .cls-1, .cls-2 {
        fill: #fff;
      }

      .cls-3, .cls-4 {
        fill: #f8b62d;
      }

      .cls-2, .cls-5, .cls-4 {
        stroke: #fff;
        stroke-miterlimit: 10;
      }

      .cls-2, .cls-4 {
        stroke-width: 9px;
      }

      .cls-5 {
        fill: none;
        stroke-width: 13px;
      }

      .cls-6 {
        fill: #4faac5;
      }
    </style>
  </defs>
  <g id="_トップ" data-name="トップ">
    <g id="_空" data-name="空">
      <g id="_星" data-name="星">
        <path class="cls-3" d="m89.29,218.11l-8.48-1.9c-1.86-.42-3.8.11-5.19,1.4l-6.37,5.9c-3.51,3.25-9.24,1.07-9.68-3.7l-.81-8.65c-.18-1.89-1.27-3.58-2.94-4.51l-7.58-4.24c-4.18-2.34-3.87-8.45.53-10.35l7.98-3.44c1.75-.75,3.01-2.32,3.38-4.18l1.69-8.52c.93-4.7,6.84-6.29,10.01-2.7l5.74,6.52c1.26,1.43,3.14,2.15,5.02,1.92l8.63-1.03c4.76-.57,8.1,4.56,5.66,8.69l-4.43,7.47c-.97,1.64-1.07,3.64-.27,5.37l3.64,7.89c2.01,4.35-1.84,9.11-6.51,8.06Z"/>
        <path class="cls-3" d="m22.22,258.84l-3.42-3.34c-.75-.73-1.81-1.05-2.84-.84l-4.69.93c-2.59.51-4.64-2.16-3.47-4.53l2.12-4.29c.46-.94.44-2.05-.07-2.96l-2.33-4.17c-1.29-2.3.63-5.08,3.24-4.7l4.73.69c1.04.15,2.08-.22,2.79-.99l3.25-3.51c1.79-1.93,5.02-.97,5.47,1.62l.81,4.71c.18,1.03.85,1.91,1.8,2.35l4.34,2.01c2.39,1.11,2.48,4.48.14,5.7l-4.23,2.22c-.93.49-1.55,1.4-1.68,2.44l-.57,4.75c-.31,2.62-3.49,3.74-5.38,1.9Z"/>
        <path class="cls-3" d="m758.05,108.82l-2.12-4.29c-.46-.94-1.36-1.59-2.39-1.74l-4.73-.69c-2.61-.38-3.65-3.59-1.76-5.43l3.42-3.34c.75-.73,1.09-1.78.91-2.82l-.81-4.71c-.45-2.6,2.28-4.58,4.62-3.35l4.23,2.22c.93.49,2.03.49,2.96,0l4.23-2.22c2.33-1.23,5.06.75,4.62,3.35l-.81,4.71c-.18,1.03.17,2.08.91,2.82l3.42,3.34c1.89,1.84.85,5.05-1.76,5.43l-4.73.69c-1.04.15-1.93.8-2.39,1.74l-2.12,4.29c-1.17,2.36-4.54,2.36-5.7,0Z"/>
        <path class="cls-3" d="m254.96,125.71l1.47-3.78c.32-.83.22-1.76-.28-2.5l-2.28-3.36c-1.26-1.85.16-4.34,2.39-4.21l4.05.24c.89.05,1.74-.34,2.29-1.04l2.49-3.2c1.37-1.77,4.17-1.19,4.74.97l1.03,3.92c.22.86.86,1.55,1.69,1.85l3.82,1.38c2.1.76,2.42,3.6.54,4.81l-3.41,2.19c-.75.48-1.21,1.3-1.24,2.18l-.13,4.05c-.07,2.24-2.68,3.42-4.41,2l-3.14-2.57c-.69-.56-1.61-.75-2.46-.5l-3.9,1.13c-2.15.62-4.08-1.49-3.26-3.57Z"/>
        <path class="cls-3" d="m578.83,36.76l-.24-3.77c-.05-.83-.51-1.57-1.22-2l-3.24-1.94c-1.79-1.07-1.57-3.73.37-4.49l3.51-1.39c.77-.3,1.34-.97,1.53-1.77l.85-3.68c.47-2.03,3.06-2.64,4.39-1.04l2.41,2.91c.53.64,1.33.98,2.16.9l3.76-.33c2.08-.18,3.46,2.09,2.34,3.85l-2.03,3.19c-.44.7-.52,1.57-.19,2.33l1.48,3.48c.82,1.92-.92,3.94-2.94,3.42l-3.66-.94c-.8-.21-1.65,0-2.28.54l-2.85,2.48c-1.57,1.37-4.03.34-4.16-1.74Z"/>
      </g>
    </g>
    <g id="_タイトル" data-name="タイトル">
      <g id="_利根運河" data-name="利根運河">
        <g id="TONEUNGA">
          <path class="cls-6" d="m312.94,221.63l3.99,26.16c.85,5.58-2.98,10.8-8.56,11.65l-3.84.59c-5.62.86-10.87-3-11.73-8.62l-4.15-27.17c-.52-3.4-3.69-5.73-7.09-5.21l-3.55.54c-5.78.88-11.18-3.09-12.06-8.87l-.04-.25c-.88-5.77,2.95-11.21,8.67-12.32l66.85-13.04-10.54,26.41-11.83,1.81c-3.99.61-6.73,4.34-6.12,8.33Z"/>
          <path class="cls-6" d="m376.88,245.17l-8.16,1.98c-22.39,5.43-29.03.78-34.21-20.6l-2.32-9.56c-5.16-21.3-1.41-28.55,20.98-33.98l8.16-1.98c20.76-5.03,29.36-.78,34.52,20.52l2.32,9.56c5.18,21.38,1.02,28.64-21.3,34.05Zm-4.1-37.61c-1.07-4.43-3.4-6.91-9.08-5.54l-3.03.73c-4.59,1.11-6.87,3.56-5.54,9.08l2.04,8.4c1.32,5.44,3.42,6.99,9.1,5.61l3.03-.73c5.67-1.38,6.57-4.8,5.52-9.16l-2.04-8.4Z"/>
          <path class="cls-6" d="m455.68,224.27c-9.92,2.83-17.09-2.44-22.92-10.35l-13.03-17.66c-.35-.65-.65-.81-.88-.75-.31.09-.37.44-.18,1.13l7.09,24.85c1.54,5.4-1.59,11.02-6.98,12.56l-2.43.69c-4.99,1.42-10.18-1.47-11.61-6.45l-10.03-35.13c-3.6-12.62,2.04-21.13,12.43-24.1,11.08-3.16,17.24,2.4,21.17,8.02l14.04,20.04c.4.8.62.99,1.08.86.31-.09.55-.41.31-1.25l-9.9-34.7,21.31-6.08,12.54,43.93c3.84,13.46-1.16,21.3-12.01,24.39Z"/>
          <path class="cls-6" d="m499.67,210.27c-18.21,5.58-26.44-2.44-30.75-16.51l-3.63-11.86c-4.85-15.83-4.87-27.88,15.48-34.12l27.45-8.42c4.69-1.44,9.66,1.2,11.1,5.89l.79,2.58c1.47,4.78-1.22,9.84-6,11.31l-23.24,7.13c-2.91.89-4.06,2.33-3.53,5.68l29.63-9.09c2.39-.73,4.92.61,5.65,3l1.96,6.39c.67,2.19-.56,4.51-2.75,5.18l-30.07,9.22c.87,2.83,1.9,4.02,6.19,2.71l23.35-7.16c4.72-1.45,9.72,1.21,11.17,5.93l.66,2.17c1.5,4.9-1.25,10.08-6.15,11.58l-27.32,8.38Z"/>
          <path class="cls-6" d="m573.54,187.85l-7.6,2.22c-20.12,5.88-30.16-2.53-34.22-16.43l-8.34-28.54c-1.58-5.4,1.52-11.06,6.93-12.64l2.32-.68c5.91-1.73,12.11,1.67,13.83,7.58l7.48,25.62c1.12,3.84,3.66,5.1,6.96,4.14l5.45-1.59c3.69-1.08,5-3.71,3.95-7.32l-7.39-25.3c-1.78-6.09,1.72-12.46,7.8-14.24l.95-.28c6.03-1.76,12.35,1.7,14.11,7.73l8,27.4c4.06,13.9-.03,26.43-20.23,32.33Z"/>
          <path class="cls-6" d="m650.91,174.44c-10.31.52-16.09-6.24-19.99-15.26l-8.7-20.15c-.2-.71-.45-.94-.69-.93-.32.02-.46.34-.43,1.06l1.32,26.34c.27,5.31-3.82,9.83-9.13,10.09l-2.62.13c-5.43.27-10.04-3.91-10.31-9.33l-1.8-36.04c-.66-13.1,6.76-20.12,17.55-20.66,11.5-.58,16.25,6.23,18.81,12.59l9.15,22.69c.2.87.37,1.1.85,1.08.32-.02.63-.27.58-1.15l-1.42-28.45c-.21-4.19,3.02-7.75,7.21-7.96l14.55-.73,2.28,45.62c.7,13.98-5.94,20.48-17.21,21.04Z"/>
          <path class="cls-6" d="m717.53,143.53c.62-2.65-.21-4.32-3.64-5.13l-6.38-1.5c-4.67-1.1-6.52.11-7.84,5.72l-2.31,9.81c-1.5,6.39.36,7.56,5.26,8.72l7.01,1.65c2.41.57,3.68-.61,4.03-2.09l.35-1.48-11.45-2.69,3.1-13.16,23.03,5.42c6.16,1.45,9.98,7.62,8.53,13.78l-.65,2.78c-3.85,16.35-11.35,22.39-28.33,18.4l-14.17-3.34c-20.87-4.91-24.31-13.69-19.67-33.39l2.31-9.81c4.67-19.86,11.01-26.17,31.72-21.3l13.63,3.21c13.96,3.28,19.79,8.49,20.08,18.35.18,6.04-5.58,10.54-11.46,9.15l-13.13-3.09Z"/>
          <path class="cls-6" d="m770.3,196.14l.42-1.01-14.61-6.13-.52,1.24c-1.81,4.32-6.79,6.36-11.12,4.55l-3.49-1.46c-5.36-2.25-7.88-8.41-5.63-13.77l11.34-27.04c7.67-18.3,14.51-22.8,33.99-14.63l8.19,3.44c19.48,8.17,22.01,16.61,14.34,34.9l-11.45,27.29c-2.19,5.22-8.2,7.68-13.42,5.49l-3.36-1.41c-4.45-1.87-6.55-6.99-4.68-11.45Zm12.03-28.68c1.61-3.84,1.48-5.19-1.91-6.61l-6.71-2.82c-3.32-1.39-4.37-.53-5.98,3.3l-3.56,8.48,14.61,6.13,3.56-8.48Z"/>
        </g>
        <g>
          <g>
            <path class="cls-1" d="m387.19,268.52c-.22,0-.43-.03-.62-.1-.04-.02-.09-.03-.13-.05-.48-.24-.87-.62-1.09-1.06l-5.81-11.59c-.07-.13-.21-.25-.39-.35-.07-.01-.15-.02-.22-.02-.13,0-.22.02-.25.04l-5.74,2.88s-.1.04-.15.06c-.7.22-1.39.33-2.06.33-.61,0-1.19-.09-1.75-.28-1.55-.57-2.66-1.56-3.4-3.05-.74-1.48-.86-3.07-.34-4.47l4.61-13.9c.06-.15.13-.3-.03-.6-.04-.08-.11-.18-.33-.25h0s-.12-.01-.22-.01c-.17,0-.24.04-.25.04l-5.95,2.99c-.27.14-.56.21-.85.21s-.57-.07-.85-.21c-.32-.16-.78-.44-1.07-1.01-.29-.58-.24-1.11-.17-1.46,0-.05.02-.09.03-.14.17-.52.52-.93,1.01-1.17l5.95-2.99c.89-.45,1.74-.67,2.52-.67,1.14,0,2.74.49,3.9,2.8l7.13,14.21c.05.1.13.17.2.18.07,0,.13.02.19.04.07.02.14.03.22.03h0c.1,0,.17-.02.2-.03l1.61-.81c.28-.14.58-.21.88-.21.24,0,.48.04.74.13.04.01.07.02.1.04.56.26.96.63,1.2,1.1.57,1.14.22,2.3-.89,2.97l-1.62.82c-.07.03-.19.16-.25.33-.05.15-.09.37,0,.55l5.81,11.59c.29.57.24,1.11.17,1.46,0,.05-.02.09-.03.13-.19.56-.57,1.02-1.09,1.28-.27.13-.59.21-.92.21Zm-14.52-25.44c-.21,0-.39,0-.59.5l-2.82,8.62c-.18.47-.17.89.03,1.28.23.46.54.73.91.81.04,0,.08.02.12.03.11.04.18.05.24.05.02,0,.07,0,.18-.05l5.9-2.96c.07-.03.22-.19.33-.45.03-.06.04-.2-.03-.33l-3.63-7.24c-.09-.18-.15-.26-.5-.26-.05,0-.1,0-.15,0Zm39.74,13.06c-.66,0-1.33-.12-2.01-.37l-2.55-.76c-.67-.22-1.11-.58-1.34-1.06-.22-.47-.21-1.01.02-1.61.38-1.15,1.16-1.4,1.75-1.4.26,0,.53.05.83.15l2.57.77c.26.1.44.14.62.14.25,0,.52-.07.79-.21.45-.22.71-.71.86-1.08.03-.11.02-.29-.04-.42l-12.24-24.4c-.04-.08-.11-.18-.33-.25-.22-.07-.43-.11-.63-.11-.25,0-.48.05-.7.16-.47.24-.76.56-.88,1l-.66,1.99c-.54,1.62-1.52,2.77-2.99,3.51-.86.43-1.73.65-2.6.65-.68,0-1.35-.13-2-.39-1.24-.36-2.3-1.15-3.05-2.32-.02-.03-.04-.06-.05-.09l-6.21-12.39c-.3-.6-.36-1.2-.16-1.78.19-.58.59-1.03,1.2-1.33.29-.15.61-.22.92-.22.27,0,.53.05.76.16.55.2.98.6,1.27,1.18l6.27,12.5c.16.33.35.39.42.41.09.01.26.03.43.03.31,0,.6-.07.9-.22.5-.25.79-.55.96-1l.62-2c.57-1.55,1.57-2.68,3-3.39.85-.43,1.75-.64,2.66-.64.6,0,1.2.1,1.78.29,1.34.45,2.39,1.23,3.1,2.33.02.03.04.06.05.1l12.11,24.14s.03.07.04.1c.47,1.26.45,2.57-.04,3.78-.42,1.52-1.42,2.71-2.89,3.45-.84.42-1.71.64-2.57.64Zm-53.34-23.32c-.29,0-.57-.06-.83-.19-.32-.16-.78-.44-1.07-1.01-.23-.46-.28-.99-.13-1.48.12-.56.51-1.04,1.06-1.31l4.77-2.4c.45-.23.69-.49.85-.93.12-.59.11-1.07-.04-1.37l-1-1.98c-.22-.45-.29-.98-.2-1.51,0-.05.02-.09.03-.14.16-.49.55-.94,1.01-1.17.3-.15.63-.23.96-.23.24,0,.48.04.71.12.04.02.09.03.13.05.32.16.78.44,1.07,1.01l1,1.98c.68,1.35.81,2.92.37,4.41-.61,1.67-1.61,2.84-3,3.54l-4.77,2.39c-.29.15-.61.22-.92.22Z"/>
            <path class="cls-1" d="m383.54,215.3c.13,0,.26.03.38.09.32.11.56.32.75.7l6.27,12.5c.24.48.59.78.99.91.26.06.51.09.74.09.51,0,.95-.13,1.35-.33.64-.32,1.15-.78,1.45-1.53l.64-2.07c.46-1.23,1.26-2.18,2.49-2.79.71-.36,1.46-.54,2.21-.54.49,0,.99.08,1.47.24,1.13.37,1.99,1.02,2.58,1.93l12.11,24.14c.38,1.02.38,2.09-.05,3.11-.35,1.32-1.21,2.28-2.38,2.87-.7.35-1.4.53-2.12.53-.54,0-1.1-.1-1.66-.31l-2.6-.77c-.72-.24-.94-.67-.67-1.34.18-.53.42-.77.82-.77.15,0,.32.03.52.1l2.6.77c.29.12.59.18.91.18.4,0,.82-.1,1.24-.31.59-.3,1.05-.86,1.34-1.61.13-.4.11-.86-.08-1.23l-12.24-24.4c-.19-.38-.51-.62-.91-.75-.32-.11-.64-.16-.95-.16-.4,0-.78.09-1.15.27-.75.38-1.21.94-1.39,1.64l-.64,1.93c-.45,1.37-1.26,2.31-2.49,2.93-.71.35-1.43.54-2.16.54-.54,0-1.09-.1-1.63-.32-1.1-.32-1.96-.96-2.58-1.93l-6.21-12.39c-.19-.38-.22-.7-.11-1.02.11-.32.32-.56.7-.75.15-.07.31-.12.47-.12m-19.03,4.8c.13,0,.26.02.4.07.27.13.48.29.62.56l1,1.98c.56,1.13.67,2.41.3,3.68-.51,1.4-1.37,2.36-2.49,2.93l-4.77,2.39c-.15.07-.31.12-.47.12-.13,0-.26-.03-.38-.09-.27-.13-.48-.29-.62-.56-.13-.27-.13-.54-.05-.78.05-.3.27-.54.54-.67l4.77-2.39c.7-.35,1.13-.83,1.37-1.56.19-.83.16-1.56-.11-2.09l-1-1.98c-.13-.27-.16-.59-.11-.89.08-.24.29-.48.51-.59.16-.08.33-.12.51-.12m5.14,12.59c1.25,0,2.25.75,3,2.25l7.13,14.21c.19.38.54.67.97.72.17.06.36.09.53.09.24,0,.46-.05.65-.14l1.61-.81c.14-.07.28-.1.43-.1.13,0,.27.03.42.08.35.16.59.38.73.64.32.64.16,1.26-.51,1.66l-1.56.78c-.32.16-.62.51-.75.91-.16.48-.13.94.06,1.31l5.81,11.58c.13.27.13.54.08.83-.11.32-.32.56-.59.7-.13.07-.3.1-.47.1-.11,0-.22-.01-.31-.05-.27-.13-.51-.35-.64-.62l-5.81-11.58c-.19-.38-.54-.67-.97-.86-.18-.04-.36-.06-.54-.06-.26,0-.5.05-.7.15l-5.74,2.88c-.58.18-1.17.28-1.76.28-.48,0-.96-.07-1.43-.23-1.23-.45-2.17-1.26-2.82-2.55-.62-1.23-.73-2.52-.3-3.68l4.62-13.93c.19-.43.16-.89-.08-1.37-.19-.38-.51-.62-.91-.75-.18-.04-.36-.06-.54-.06-.26,0-.5.05-.7.15l-5.95,2.99c-.13.07-.27.1-.4.1s-.27-.03-.4-.1c-.27-.13-.48-.29-.62-.56s-.13-.54-.08-.83c.08-.24.24-.46.51-.59l5.95-2.99c.75-.38,1.44-.57,2.07-.57m.93,22.67c.2,0,.4-.05.62-.16l5.9-2.96c.32-.16.62-.51.8-.94.16-.35.13-.81-.06-1.18l-3.63-7.24c-.29-.58-.73-.81-1.39-.81-.07,0-.15,0-.22,0-.67,0-1.15.38-1.45,1.13l-2.83,8.67c-.27.67-.24,1.4.08,2.04.38.75.94,1.21,1.61,1.34.19.06.37.1.56.1m12.96-42.06c-.47,0-.94.11-1.37.33-1.06.53-1.51,1.33-1.7,1.91-.19.57-.31,1.49.22,2.54l6.21,12.39c.03.06.07.12.1.18.87,1.35,2.08,2.27,3.61,2.74.74.29,1.51.43,2.28.43,1.03,0,2.06-.25,3.05-.75,1.7-.85,2.88-2.23,3.49-4.09l.64-1.93s.02-.08.03-.11c.02-.08.06-.22.36-.37.08-.04.16-.06.25-.06.06,0,.12,0,.18.02l12.04,24.01c-.1.2-.21.3-.28.34-.09.05-.23.1-.34.1-.03,0-.09,0-.17-.04-.06-.02-.11-.04-.17-.06l-2.58-.77c-.39-.13-.76-.19-1.11-.19-.6,0-2.05.2-2.7,2.09-.4,1.04-.21,1.85.02,2.34.24.51.76,1.2,1.9,1.58.02,0,.04.01.06.02l2.55.76c.76.27,1.53.41,2.29.41,1.02,0,2.03-.25,3.02-.74,1.69-.85,2.88-2.27,3.38-4.02.57-1.43.58-2.97.03-4.45-.03-.07-.06-.14-.09-.2l-12.11-24.14c-.03-.07-.07-.13-.11-.19-.84-1.3-2.06-2.22-3.63-2.74-.68-.23-1.39-.34-2.1-.34-1.07,0-2.11.25-3.11.75-1.66.83-2.83,2.14-3.47,3.89-.01.03-.02.07-.03.1l-.62,1.98c-.07.16-.18.28-.46.42-.16.08-.3.12-.45.12l-6.22-12.39c-.49-.98-1.22-1.44-1.79-1.65-.35-.15-.75-.23-1.14-.23h0Zm-19.03,4.8h0c-.49,0-.98.11-1.41.33-.7.35-1.27,1.01-1.51,1.75-.03.09-.05.18-.07.27-.13.74-.03,1.5.29,2.14l1,1.99s.04.26-.03.65c-.05.13-.12.21-.33.31l-4.77,2.39c-.8.4-1.38,1.12-1.58,1.95-.21.73-.14,1.5.2,2.18.32.63.81,1.11,1.52,1.46.39.19.83.3,1.28.3.47,0,.94-.11,1.37-.33l4.77-2.39c1.61-.81,2.81-2.2,3.47-4.03.01-.04.03-.08.04-.12.51-1.74.36-3.56-.43-5.14l-.99-1.98c-.32-.63-.81-1.11-1.51-1.46-.08-.04-.17-.08-.26-.11-.33-.11-.68-.17-1.03-.17h0Zm5.14,12.59c-.94,0-1.94.26-2.97.78l-5.95,2.99c-.72.36-1.26.98-1.51,1.75-.03.09-.05.18-.07.27-.14.77-.05,1.45.26,2.08.31.63.81,1.1,1.51,1.46.42.21.85.31,1.3.31s.89-.11,1.3-.31l5.12-2.57-4.35,13.11c-.6,1.66-.46,3.52.4,5.23.85,1.7,2.17,2.88,3.92,3.53.02,0,.04.01.06.02.65.22,1.35.33,2.06.33.76,0,1.55-.13,2.35-.37.11-.03.21-.07.31-.12l5.4-2.71,5.67,11.3c.32.64.87,1.17,1.54,1.51.08.04.17.08.26.11.3.1.61.15.94.15.48,0,.95-.11,1.36-.31.76-.38,1.32-1.04,1.59-1.86.03-.09.05-.18.07-.27.14-.77.06-1.46-.26-2.09l-5.67-11.3,1.22-.61s.09-.05.13-.07c1.54-.93,2.06-2.69,1.26-4.28-.24-.47-.72-1.12-1.68-1.56-.07-.03-.13-.06-.2-.08-.36-.12-.71-.18-1.06-.18-.46,0-.91.11-1.33.32l-1.27.64-6.93-13.82c-1.39-2.77-3.37-3.35-4.79-3.35h0Zm.85,22.63s-.06-.02-.09-.02c-.03,0-.12-.08-.21-.27-.07-.13-.07-.26-.01-.4.02-.04.03-.08.04-.12l2.59-7.94,3.04,6.07-5.36,2.69h0Z"/>
          </g>
          <g>
            <path class="cls-1" d="m437.96,247.26c-.34,0-.69-.09-1-.27-.52-.3-.89-.76-1.04-1.32l-4.14-15.04c-.05-.17-.11-.24-.27-.31-.16-.07-.33-.11-.46-.11l-6.27,1.71s-.07.02-.11.02c-.29.05-.59.07-.88.07-1.02,0-2-.29-2.91-.85-1.36-.77-2.32-1.99-2.73-3.5-.43-1.58-.26-3.12.51-4.59l7.27-12.79c.18-.27.16-.36.14-.42l-1.15-4.16c-.05-.2-.23-.33-.37-.41-.08-.03-.25-.07-.38-.07l-10.61,2.9c-.21.06-.42.09-.62.09-.41,0-.79-.12-1.1-.34-.45-.27-.75-.68-.89-1.18-.14-.52-.08-1.03.2-1.55.23-.52.71-.92,1.29-1.08l10.53-2.9c.08-.02.25-.14.42-.37.13-.19.11-.29.09-.35l-.32-1.16c-.43-1.55-.23-3.1.56-4.5.8-1.41,2.01-2.35,3.58-2.78.52-.14,1.05-.22,1.57-.22.97,0,1.95.26,2.9.76,1.42.81,2.38,2.04,2.81,3.59.43,1.56.26,3.04-.53,4.53-.89,1.47-2.09,2.4-3.59,2.81l-1.1.3c-.08.02-.25.14-.42.37-.03.06-.11.27-.06.46l5.33,19.38c.02.08.09.23.27.31.29.16.44.17.5.17l5.75-1.57c.1-.07.2-.12.32-.15l.11-.03c.21-.06.42-.09.63-.09.41,0,.79.12,1.1.34.49.3.84.75.98,1.29.42,2.06-.91,2.66-1.51,2.82l-6.13,1.69c-.08.02-.25.14-.42.37-.1.15-.12.24-.08.4l4.14,15.04c.13.48.1,1.02-.1,1.52-.03.09-.08.17-.14.25-.22.28-.58.68-1.2.85-.15.04-.31.06-.47.06Zm-10.51-30.42c-.23,0-.42.06-.62.38l-4.48,7.97c-.24.42-.28.84-.13,1.36.08.27.24.64.82,1.01.12.06.25.11.34.11l6.4-1.75c.07-.02.22-.13.35-.35.17-.25.15-.4.12-.48l-2.12-7.69c-.1-.36-.26-.5-.63-.55h-.05Zm1.48-20.85c-.16,0-.33.03-.52.08-.52.14-.86.39-1.1.81-.25.45-.32.89-.21,1.31l.32,1.16c.02.06.04.16.26.25.16.07.33.12.46.12l1.18-.31c.46-.13.75-.37,1.03-.85.27-.43.33-.85.21-1.31-.12-.43-.4-.77-.85-1.02-.27-.15-.52-.23-.78-.23Zm26.72,46.31c-.96,0-1.89-.25-2.76-.75-1.45-.83-2.34-1.96-2.78-3.58l-9.85-35.81c-.48-1.74-.4-3.09.26-4.13.59-1.03,1.83-1.83,3.67-2.34l12.55-3.45c.53-.15,1.07-.22,1.6-.22,1.01,0,1.99.26,2.9.78,1.44.88,2.37,2.08,2.78,3.58l3.28,11.92c.43,1.57.24,3.08-.56,4.5-.79,1.39-2.03,2.36-3.58,2.78l-13.13,3.61c-.15.04-.29.15-.37.3-.08.18-.09.39-.07.47l4.53,16.93c.12.44.39.8.81,1.09.24.11.48.16.74.16.19,0,.39-.03.6-.09.08-.02.26-.14.39-.31l.64-1.06c.02-.09.05-.17.1-.25.29-.52.76-.89,1.32-1.04.21-.06.42-.09.63-.09.38,0,.75.1,1.09.29.8.46,1.07,1.03,1.16,1.43.08.37.08.94-.36,1.58l-.67,1.26s-.05.09-.08.13c-.74,1-1.82,1.72-3.12,2.08-.59.16-1.17.24-1.72.24Zm-11.09-42.26c-.07.26-.07.45-.05.52l3.71,14.17c.02.07.14.25.31.37.07.05.15.07.25.07.08,0,.16-.01.25-.04l13.02-3.58c.43-.12.77-.4,1.02-.85.25-.43.29-.8.15-1.3l-3.28-11.92c-.14-.5-.36-.79-.79-1.04-.3-.17-.61-.26-.91-.26-.14,0-.27.02-.41.06l-12.9,3.55c-.16.04-.29.13-.38.24Zm26.42,35.17c-.99,0-1.97-.25-2.9-.74l-8.56-4.82c-1.1-.71-1.39-1.82-.79-2.87.56-.99,1.35-1.14,1.77-1.14.38,0,.77.11,1.16.34l8.56,4.86c.25.14.46.2.7.2.1,0,.19,0,.29-.02l.84-.17,2.19-.61c.19-.05.38-.08.58-.08.37,0,.71.09,1.01.25.04.02.08.05.12.08.39.31.65.69.79,1.21.15.55.14,1.06-.04,1.51-.03.09-.08.17-.14.24-.22.28-.58.68-1.2.85-.09.02-.18.04-.26.04-.03,0-.05,0-.08,0l-2.27.63c-.59.16-1.18.24-1.75.24Zm-6.29-11.11c-.38,0-.77-.12-1.14-.35-1.09-.57-1.44-1.66-.87-2.8l1.9-3.25c.06-.11.14-.2.24-.28.52-.66,1.1-.81,1.51-.81.36,0,.71.11,1.06.32.67.35.94.83,1.04,1.18.11.37.16.96-.26,1.69-.1.23-.33.61-.67,1.2-.2.34-.44.75-.71,1.23l-.38.75c-.41.72-1.02,1.11-1.71,1.11Zm-15.98-14.64c-.37,0-.72-.12-1.06-.37-.51-.3-.82-.71-.96-1.23-.14-.51-.05-1.1.24-1.61.18-.31.49-.75,1.16-.93l10.53-2.9c.18-.05.36-.07.55-.07.29,0,.58.06.92.19.09.03.17.08.25.14.42.32.73.76.85,1.2.17.62.01,1.13-.12,1.46-.22.56-.71.99-1.32,1.15l-10.53,2.9c-.17.05-.33.07-.49.07Z"/>
            <path class="cls-1" d="m428.85,192.79c.82,0,1.62.22,2.43.65,1.18.67,1.96,1.7,2.31,2.97.37,1.33.21,2.56-.45,3.79-.73,1.2-1.7,1.96-2.97,2.31l-1.1.3c-.35.1-.7.38-.97.77-.25.44-.31.9-.2,1.3l5.33,19.38c.11.4.4.76.82.96.31.18.63.26.91.26.12,0,.23-.01.33-.04l5.84-1.61c.06-.02.12-.03.16-.11q.06-.02.12-.03c.12-.03.24-.05.36-.05.21,0,.4.06.55.18.29.17.49.42.57.71.18.88-.05,1.38-.81,1.59l-6.13,1.69c-.35.1-.7.38-.97.77s-.35.78-.22,1.24l4.14,15.04c.08.29.04.61-.07.89-.18.24-.38.42-.67.5-.07.02-.14.03-.21.03-.17,0-.35-.05-.51-.14-.29-.17-.49-.43-.57-.71l-4.14-15.04c-.13-.46-.4-.76-.82-.96-.29-.13-.6-.2-.88-.2-.12,0-.24.01-.35.04l-6.19,1.7c-.24.04-.48.06-.72.06-.82,0-1.63-.23-2.38-.7-1.18-.67-1.96-1.7-2.3-2.92-.37-1.33-.22-2.61.43-3.85l7.25-12.76c.27-.38.35-.78.23-1.18l-1.15-4.17c-.11-.4-.4-.76-.84-1.01-.29-.13-.6-.2-.88-.2-.12,0-.24.01-.35.04l-10.53,2.9c-.12.03-.24.05-.36.05-.21,0-.39-.06-.55-.18-.22-.13-.4-.33-.48-.61-.08-.29-.03-.55.14-.85.11-.28.37-.47.66-.55l10.53-2.9c.35-.1.7-.38.97-.77.27-.38.34-.78.23-1.18l-.32-1.16c-.35-1.27-.21-2.56.47-3.74.67-1.18,1.64-1.95,2.97-2.31.44-.12.87-.18,1.3-.18m-.71,7.93c.12,0,.24-.01.35-.04l1.1-.3c.75-.21,1.25-.66,1.63-1.32.39-.61.51-1.32.3-2.07-.19-.69-.66-1.25-1.32-1.63-.42-.24-.84-.36-1.27-.36-.25,0-.51.04-.78.11-.75.21-1.32.61-1.7,1.28-.38.66-.49,1.38-.3,2.07l.32,1.16c.11.41.38.7.81.9.29.13.6.2.88.2m-4.77,27.95c.12,0,.24-.02.36-.05l6.31-1.73c.35-.1.7-.38.96-.82.27-.38.33-.84.22-1.24l-2.12-7.69c-.21-.75-.7-1.18-1.47-1.28-.06,0-.12,0-.18,0-.62,0-1.1.28-1.46.83l-4.51,8.02c-.38.66-.43,1.36-.23,2.12.17.64.57,1.15,1.25,1.59.31.18.6.27.88.27m34.95-35.64c.82,0,1.63.21,2.4.65,1.2.73,1.96,1.7,2.31,2.97l3.28,11.92c.37,1.33.21,2.56-.46,3.74s-1.7,1.96-2.97,2.31l-13.13,3.61c-.4.11-.76.4-.97.77-.19.43-.26.88-.16,1.23l4.53,16.92c.21.75.67,1.31,1.28,1.7.39.19.81.29,1.24.29.28,0,.57-.04.86-.12.35-.1.71-.38.93-.69l.77-1.27c.06-.02.04-.07.03-.13.17-.29.43-.49.71-.57.13-.03.25-.05.37-.05.21,0,.41.05.6.16.74.42.9,1,.45,1.62l-.7,1.31c-.63.86-1.54,1.42-2.58,1.71-.5.14-.98.21-1.45.21-.78,0-1.53-.2-2.27-.62-1.25-.71-1.95-1.64-2.31-2.97l-9.85-35.81c-.38-1.39-.38-2.51.14-3.34.46-.81,1.46-1.46,3.08-1.91l12.55-3.45c.45-.12.89-.18,1.34-.18m-9.56,23.16c.17,0,.34-.03.52-.08l13.02-3.58c.69-.19,1.25-.66,1.63-1.32.38-.66.45-1.31.24-2.06l-3.28-11.92c-.21-.75-.6-1.27-1.26-1.64-.45-.26-.93-.39-1.4-.39-.22,0-.45.03-.67.09l-12.9,3.55c-.46.13-.82.41-1.03.78-.14.41-.2.86-.1,1.21l3.71,14.16c.09.35.38.7.69.93.25.17.53.26.84.26m10.37-12.83c.18,0,.36.05.55.12.24.18.43.44.5.67.08.29.03.55-.08.83-.11.28-.37.47-.66.55l-10.53,2.9c-.08.02-.15.03-.22.03-.18,0-.34-.07-.51-.2-.29-.17-.47-.37-.55-.66-.06-.23-.03-.55.14-.85.12-.22.27-.38.56-.46l10.53-2.9c.1-.03.19-.04.28-.04m7.17,14.26c.18,0,.36.06.56.19.65.32.79.84.41,1.5-.19.43-.67,1.18-1.38,2.43l-.4.8c-.21.37-.49.56-.82.56-.2,0-.42-.07-.65-.22-.65-.32-.79-.84-.47-1.49l1.86-3.19.06-.02c.25-.38.53-.58.83-.58m-5.83,9.03c.2,0,.42.07.66.21l8.56,4.86c.43.24.81.33,1.19.33.15,0,.29-.01.44-.04l.88-.18,2.26-.62c.1-.03.21-.04.32-.04.19,0,.37.04.51.12.24.18.36.4.44.69.08.29.1.59,0,.87-.18.24-.38.42-.67.5l-.07-.04-2.54.7c-.51.14-1,.21-1.48.21-.84,0-1.64-.21-2.43-.63l-8.54-4.81c-.61-.39-.75-.91-.41-1.5.24-.42.54-.63.9-.63m-31.62-35.86c-.61,0-1.22.08-1.83.25-1.83.5-3.24,1.6-4.18,3.25-.93,1.63-1.15,3.45-.66,5.26l.2.73-10.22,2.81c-.86.24-1.57.83-1.92,1.6-.39.74-.48,1.5-.27,2.26.2.74.66,1.35,1.31,1.76.48.33,1.05.51,1.65.51.29,0,.59-.04.89-.12l10.22-2.81.98,3.58-7.22,12.7s-.02.04-.03.05c-.9,1.7-1.1,3.49-.59,5.32.48,1.73,1.61,3.19,3.2,4.1,1.06.65,2.2.98,3.4.98.34,0,.69-.03,1.03-.08.07-.01.14-.03.22-.05l5.88-1.62,4.04,14.67c.22.81.76,1.49,1.51,1.92.47.26.98.4,1.5.4.25,0,.5-.03.74-.1.68-.19,1.25-.58,1.73-1.2.12-.15.21-.32.28-.49.27-.7.32-1.46.13-2.15l-4.04-14.68,5.82-1.6c1.39-.38,2.71-1.61,2.24-3.92,0-.04-.02-.08-.03-.13-.21-.77-.71-1.43-1.4-1.86-.48-.33-1.04-.5-1.65-.5-.29,0-.59.04-.89.12l-.11.03c-.16.04-.32.11-.46.19l-5.24,1.44-5.16-18.76.79-.22c1.76-.48,3.15-1.56,4.15-3.2.02-.03.04-.07.06-.11.9-1.7,1.1-3.47.61-5.26-.5-1.81-1.62-3.26-3.25-4.18-.02,0-.03-.02-.05-.03-1.1-.58-2.24-.88-3.37-.88h0Zm-.59,7.87l-.2-.73c-.02-.06-.07-.24.11-.56.07-.12.16-.25.49-.34.1-.03.19-.04.25-.04.04,0,.12,0,.29.1.31.18.36.36.38.42.06.24.01.36-.05.46-.02.03-.04.06-.06.1-.18.31-.29.34-.42.38l-.79.22h0Zm-4.83,27.96c-.22-.16-.25-.27-.26-.34-.09-.33-.04-.47.04-.6l4.14-7.36,1.85,6.71-5.76,1.58h0Zm34.89-35.6h0c-.62,0-1.25.09-1.87.26l-12.55,3.45c-2.08.57-3.52,1.52-4.27,2.81-.79,1.28-.9,2.89-.35,4.89l9.85,35.81c.51,1.86,1.58,3.23,3.25,4.18,1.02.58,2.12.88,3.26.88.64,0,1.31-.09,1.98-.28,1.52-.42,2.79-1.26,3.66-2.45.06-.08.11-.16.16-.25l.64-1.21c.47-.72.64-1.53.47-2.3-.13-.6-.52-1.45-1.65-2.09-.49-.28-1.02-.42-1.58-.42-.3,0-.6.04-.9.12-.81.22-1.49.76-1.92,1.51-.06.11-.11.22-.15.34l-.51.84c-.07.01-.13.02-.18.02-.09,0-.17-.01-.25-.04-.23-.18-.3-.35-.33-.48l-4.43-16.56,12.77-3.51c1.81-.5,3.25-1.62,4.18-3.25.94-1.65,1.16-3.42.65-5.26l-3.28-11.92c-.48-1.75-1.56-3.15-3.2-4.15-.02-.01-.03-.02-.05-.03-1.06-.6-2.2-.91-3.39-.91h0Zm-12.77,9.64l12.54-3.45s.09-.02.14-.02c.12,0,.26.04.42.13.17.1.25.16.32.44l1.02,3.71c-.29-.08-.57-.12-.85-.12s-.55.04-.81.11l-10.53,2.9c-.43.12-.8.32-1.12.6l-1.12-4.29h0Zm3.14,9.8c.25,0,.5-.04.75-.1l10.53-2.9c.56-.15,1.05-.46,1.42-.86l.85,3.08c.08.27.05.36-.05.54-.18.31-.36.36-.42.38l-12.7,3.49-.97-3.7c.19.04.39.07.59.07h0Zm17.62,5.15h0c-.52,0-1.44.15-2.23,1.11-.15.14-.28.29-.38.47l-1.86,3.19s-.05.08-.07.12c-.8,1.61-.27,3.29,1.28,4.11.53.32,1.08.48,1.64.48,1.06,0,1.99-.57,2.55-1.57.02-.03.03-.05.04-.08l.38-.75c.26-.46.49-.85.68-1.18.33-.57.56-.96.72-1.29.54-1.01.47-1.86.3-2.4-.16-.53-.55-1.25-1.5-1.75-.5-.3-1.02-.46-1.55-.46h0Zm-5.83,9.03h0c-1.08,0-2.04.6-2.63,1.65-.86,1.52-.44,3.2,1.06,4.17.03.02.07.04.11.06l8.54,4.81s.03.02.05.02c1.08.57,2.21.86,3.37.86.66,0,1.34-.09,2.01-.28l2.13-.59c.16,0,.32-.03.48-.07.68-.19,1.24-.58,1.73-1.2.12-.15.21-.31.28-.49.26-.66.29-1.38.08-2.14-.2-.74-.58-1.3-1.14-1.74-.08-.06-.16-.11-.24-.16-.44-.25-.96-.38-1.5-.38-.29,0-.57.04-.85.11l-2.19.6-.77.16s-.07,0-.1,0c-.03,0-.08,0-.2-.07l-8.56-4.86c-.54-.31-1.1-.47-1.65-.47h0Z"/>
          </g>
          <g>
            <path class="cls-1" d="m496.22,232.89c-1.59-.04-2.96-.65-4.09-1.83-1.13-1.04-1.74-2.5-1.7-4.17.03-1.35.48-2.52,1.38-3.59l.83-.91s.06-.06.09-.09c.29-.25.58-.62.6-1.52,0-.17-.03-.31-.06-.4-.01-.04-.02-.07-.03-.11-.07-.37-.19-.48-.57-.48l-3.96-.09c-.07,0-.14-.01-.21-.03-.92-.22-1.91-.78-3.02-1.71-.03-.02-.05-.05-.08-.08-.36-.38-.68-.94-1.12-1.93,0,0,0-.02-.01-.03-.4-.6-.47-1.45-.44-2.5.04-1.5.63-2.92,1.73-4.1l4.47-4.15c.37-.39.56-.88.57-1.55,0-.14-.05-.36-.09-.59-.04-.36-.06-.46-.57-.47l-10.56-.24c-.16,0-.32-.05-.45-.12-.45-.11-.85-.38-1.15-.77-.33-.47-.5-.99-.48-1.54.01-.57.25-.99.47-1.34.04-.07.1-.13.15-.19.42-.4.95-.62,1.51-.62l10.49.24c.07,0,.13,0,.2.02,1.02.23,2,.77,3,1.67.6.62,1,1.3,1.26,2.07,0,0,0,.02,0,.02.28.52.38,1.25.36,2.43-.04,1.59-.63,2.94-1.77,4.03l-4.35,4.21c-.37.39-.57.93-.59,1.56,0,.16,0,.41,0,.49.02.05.02.07.03.12.01.08.04.18.17.29.14.12.22.15.39.15l3.96.09c.08,0,.16.01.24.04,1.1.3,2.08.87,2.98,1.75.56.59.91,1.28,1.19,1.88,0,.02.02.04.03.06.39.61.46,1.47.44,2.56-.04,1.49-.62,2.84-1.75,4.01,0,0-.01.02-.02.02-.04.06-.08.12-.13.18l-.77.84c-.1.21-.15.38-.16.52,0,.42.15.78.52,1.16.39.41.69.56,1.14.57l30.89.71c.54.01,1.04.24,1.41.63s.57.9.56,1.44c-.01.5-.2,1.01-.53,1.43-.03.04-.06.07-.1.11-.38.37-.87.56-1.39.56,0,0-30.94-.72-30.94-.72Zm17.28-5c-.69-.02-1.59-.33-1.95-1.74-.02-.09-.03-.18-.03-.26l.07-3c0-.15-.06-.32-.18-.49-.17-.13-.34-.2-.48-.2l-3.97-.09c-.11.03-.23.05-.36.05-.68-.02-1.25-.31-1.65-.83-.23-.32-.5-.78-.49-1.42.01-.66.28-1.15.48-1.47.04-.07.09-.13.15-.19.42-.4.95-.62,1.51-.62l4.43.1c.21,0,.39-.13.5-.24.17-.16.19-.28.2-.37,0-.24-.05-.43-.17-.61-.14-.1-.3-.14-.49-.15l-3.3-.08c-1.66-.04-3.06-.68-4.17-1.91-1.11-1.1-1.65-2.48-1.61-4.2l.07-3.24c.04-1.69.64-3.07,1.83-4.21,1.14-1.09,2.51-1.64,4.07-1.64l3.46.08c.21,0,.38-.13.5-.24.12-.11.19-.28.2-.43,0-.07-.05-.24-.18-.43-.17-.13-.34-.2-.48-.2l-7.2-.17c-.16,0-.32-.05-.45-.12-.45-.11-.83-.37-1.05-.73-.31-.37-.48-.83-.47-1.27.01-.64.31-1.09.53-1.37.27-.39.86-.67,1.49-.67l7.25.17c.21,0,.39-.13.5-.24.12-.11.19-.28.2-.43l.06-2.76c.01-.51.21-.97.59-1.37.31-.46.83-.72,1.43-.72.55.01,1.05.2,1.48.53.04.03.07.06.11.1.41.43.63.98.62,1.56l-.06,2.76c0,.15.06.32.18.44.05.05.09.1.12.16.04.06.14.1.25.1l8.34.19c.64.01,1.09.31,1.37.53.12.1.22.22.29.36.14.29.33.7.32,1.23,0,.4-.16.81-.44,1.2-.04.05-.08.1-.13.15-.33.32-.69.51-1.08.58-.12.06-.26.09-.4.09,0,0-8.36-.19-8.36-.19-.16,0-.27.06-.3.1-.2.23-.27.43-.27.51,0,.15.06.32.18.44.04.05.09.1.12.16.03.05.06.1.25.1l4.32.1c1.62.04,3.01.6,4.22,1.73,1.16,1.29,1.66,2.66,1.62,4.39l-.08,3.24c-.04,1.69-.62,3.05-1.77,4.15-1.19,1.14-2.56,1.69-4.18,1.69,0,0-4.49-.1-4.49-.1-.2,0-.29.04-.31.05-.17.2-.26.4-.26.61,0,.12,0,.26.23.57.04.05.16.12.31.13l5.64.13c.58.01,1.12.26,1.53.69.06.06.11.12.15.2.29.5.42.97.41,1.42-.03,1.3-.87,2.14-2.18,2.21-.17,0-.33-.02-.46-.07l-5.18-.12c-.16,0-.27.06-.3.1-.17.2-.27.4-.27.57l-.07,3c0,.18-.06.35-.15.5-.26.88-1,1.41-2.02,1.41,0,0-.06,0-.07,0Zm3.14-16.85c-.15,0-.26.06-.29.1-.05.06-.1.11-.16.15-.04.03-.11.15-.11.3,0,.2.06.37.17.5.03.03.05.05.07.08.03.04.14.11.3.11,0,0,4.32.1,4.32.1.51,0,.97-.16,1.34-.46.3-.34.45-.75.46-1.26v-.31c-.04.06-.09.12-.15.17-.42.4-.95.62-1.51.62l-4.43-.1v-1s0,1,0,1Zm-10.04.52c.38.34.79.51,1.26.52l3.3.08c.18,0,.38-.09.57-.24.06-.06.12-.23.13-.43,0-.15-.06-.27-.1-.3-.2-.17-.4-.27-.57-.27l-3.78-.09c-.48-.01-.93-.18-1.27-.48,0,.44.16.83.46,1.21Zm10.17-6.04c-.16,0-.27.06-.3.1-.02.03-.05.05-.08.08-.14.13-.19.25-.2.43,0,.2.06.37.17.5.03.03.05.06.07.09.03.04.15.11.3.11l4.38.1c.4,0,.82.13,1.28.38.09.05.18.12.26.19.05.06.1.11.15.18v-.25c.02-.54-.13-1-.39-1.28-.32-.33-.76-.5-1.32-.52l-4.32-.1Zm-8.82-.2c-.51,0-.89.14-1.22.46-.29.27-.47.69-.51,1.14.25-.14.67-.31,1.22-.31l3.84.09c.18,0,.38-.09.56-.23.06-.06.13-.23.13-.43,0-.18-.04-.3-.18-.44-.12-.1-.32-.2-.49-.2l-3.3-.08-.06-1v1Zm17.79-11.29c-.56-.01-1.08-.24-1.49-.64-.44-.38-.68-.95-.66-1.61l.04-1.8c.01-.52-.12-.91-.42-1.18-.03-.03-.06-.05-.08-.08-.17-.19-.46-.46-1.16-.47l-11.64-.27c-.69-.02-1.27-.3-1.62-.8-.31-.43-.48-.95-.47-1.45.01-.54.24-1.04.63-1.41.37-.36.91-.56,1.5-.56l11.7.27c1.58.04,2.94.6,4.16,1.73.03.03.06.06.09.09,1.07,1.27,1.57,2.65,1.53,4.24l-.04,1.8c-.01.61-.24,1.17-.63,1.53-.32.31-.74.62-1.39.62,0,0-.04,0-.05,0Zm-35.7-.29c-.51-.01-.96-.17-1.3-.45-.08-.04-.16-.1-.23-.18l-5.57-5.83c-.08-.08-.14-.17-.19-.27-.71-.9-.63-1.92.25-2.76.46-.5,1.02-.62,1.39-.62.51,0,1.02.21,1.5.61.03.02.05.05.08.08l5.62,5.89c.57.67.64,1.25.61,1.63-.03.34-.17.82-.66,1.26-.36.41-.89.64-1.48.64,0,0-.04,0-.05,0Zm14.71-.2c-.53-.01-1.06-.23-1.42-.58-.63-.54-.61-1.34-.61-1.61l.14-6.06c.01-.55.22-1.03.62-1.41.37-.35.91-.56,1.45-.56.69.02,1.14.31,1.42.53.08.06.14.13.2.21.33.46.48.89.47,1.33l-.14,6.06c-.01.61-.24,1.17-.63,1.53-.03.03-.07.06-.11.09-.28.2-.73.47-1.34.47,0,0-.04,0-.05,0Z"/>
            <path class="cls-1" d="m504.94,184.32s.02,0,.03,0c.3,0,.54.13.77.32.17.24.29.49.28.73l-.14,6.06c0,.36-.13.66-.32.83-.24.17-.47.28-.76.28,0,0-.02,0-.03,0-.3,0-.6-.13-.77-.32-.24-.19-.29-.49-.28-.85l.14-6.06c0-.24.07-.48.32-.71.18-.17.47-.28.76-.28m-20.53.3c.27,0,.56.13.86.38l5.62,5.89c.47.55.46,1.09-.03,1.5-.18.23-.47.34-.76.34,0,0-.02,0-.03,0-.36,0-.66-.14-.83-.38v.06s-5.57-5.83-5.57-5.83v-.06c-.53-.55-.51-1.03.04-1.56.21-.23.45-.34.7-.34m25.97.12s.02,0,.04,0l11.64.27c1.38.03,2.51.54,3.51,1.46.88,1.04,1.33,2.19,1.3,3.57l-.04,1.8c0,.36-.13.66-.32.83-.24.23-.42.34-.7.34,0,0-.02,0-.02,0-.3,0-.6-.13-.83-.38-.24-.19-.35-.49-.34-.85l.04-1.8c.02-.78-.21-1.45-.74-1.94-.47-.55-1.12-.81-1.9-.82l-11.64-.27c-.36,0-.66-.14-.83-.38-.17-.24-.29-.55-.28-.85s.13-.54.32-.71c.18-.17.47-.28.81-.28m3.94,6.45s.02,0,.03,0c.3,0,.6.13.83.32.23.25.35.55.34.85l-.06,2.76c0,.42.16.84.45,1.15.23.37.65.56,1.07.56l8.34.19c.3,0,.54.13.77.32.11.24.23.49.22.79,0,.24-.13.48-.25.65-.24.23-.47.34-.76.34,0,0-.02,0-.03,0v.06s-8.34-.19-8.34-.19c-.01,0-.02,0-.03,0-.41,0-.82.17-1.06.46-.31.35-.5.77-.51,1.13,0,.42.16.84.45,1.15.23.37.59.55,1.07.56l4.32.1c1.44.03,2.57.54,3.57,1.46.94,1.04,1.33,2.19,1.3,3.63l-.08,3.24c-.03,1.38-.48,2.51-1.46,3.45-1.01.96-2.12,1.42-3.49,1.42-.05,0-.1,0-.15,0l-4.32-.1s-.03,0-.05,0c-.4,0-.8.11-1.04.4-.31.35-.5.77-.51,1.25v.06c-.01.42.16.78.45,1.15.23.31.65.5,1.07.5l5.64.13c.3,0,.6.13.83.38.17.3.29.61.28.91-.02.72-.39,1.19-1.23,1.23-.06,0-.12,0-.18-.06-.06,0-.12,0-.18,0l-5.22-.12s-.02,0-.03,0c-.41,0-.82.17-1.06.46-.31.35-.5.77-.51,1.19l-.07,3h-.06c-.07.64-.48.93-1.11.93-.02,0-.03,0-.05,0-.54-.01-.83-.32-1-.98l.07-3c0-.42-.16-.84-.45-1.21-.35-.31-.77-.5-1.19-.51l-4.02-.09c-.06,0-.12,0-.18,0-.05.05-.1.06-.16.06,0,0-.02,0-.02,0-.3,0-.6-.13-.83-.44-.17-.24-.29-.49-.28-.79,0-.36.13-.66.32-.95.24-.23.53-.34.82-.34,0,0,.02,0,.03,0l4.38.1s.02,0,.03,0c.41,0,.82-.17,1.18-.51.31-.29.5-.65.5-1.07v-.06c.01-.48-.16-.9-.45-1.27-.35-.31-.77-.44-1.19-.45l-3.3-.08c-1.38-.03-2.51-.54-3.44-1.58-1-.98-1.39-2.13-1.36-3.51l.07-3.24c.03-1.38.48-2.51,1.52-3.51.95-.91,2.06-1.36,3.38-1.36.04,0,.09,0,.13,0l3.3.08s.02,0,.03,0c.41,0,.82-.17,1.18-.51.31-.29.5-.71.51-1.13,0-.36-.16-.78-.45-1.15-.35-.31-.77-.5-1.19-.51l-7.2-.17v-.06c-.3,0-.6-.13-.71-.38-.18-.18-.29-.43-.29-.67,0-.3.13-.54.32-.77.12-.17.41-.28.7-.28,0,0,.02,0,.03,0l7.2.17s.02,0,.03,0c.41,0,.82-.17,1.18-.51.31-.29.5-.71.51-1.13l.06-2.76c0-.3.13-.54.38-.77.12-.23.35-.34.64-.34m-3.15,21.95c.41,0,.82-.17,1.18-.45.31-.29.5-.71.51-1.19,0-.42-.16-.84-.46-1.09-.35-.31-.77-.5-1.19-.51l-3.78-.09c-.3,0-.6-.13-.77-.38-.24-.19-.35-.49-.34-.85,0-.3.13-.6.32-.77.18-.11.46-.22.81-.22.01,0,.02,0,.04,0l3.78.09s.02,0,.03,0c.41,0,.82-.17,1.18-.45.31-.29.5-.71.51-1.19.01-.48-.16-.84-.45-1.15-.35-.31-.77-.5-1.19-.51l-3.3-.08s-.06,0-.09,0c-.74,0-1.38.23-1.91.73-.49.47-.81,1.18-.83,1.96l-.08,3.24c-.02.78.27,1.45.73,2,.53.49,1.18.81,1.96.83l3.3.08s.02,0,.03,0m9.9-3.01s-.02,0-.03,0l-4.38-.1s-.02,0-.03,0c-.41,0-.82.17-1.06.46-.31.23-.5.65-.5,1.07-.01.48.16.9.45,1.21.23.31.65.5,1.07.5l4.32.1s.05,0,.07,0c.75,0,1.45-.28,1.99-.73.49-.53.75-1.18.77-1.96l.07-3.24c.02-.78-.21-1.5-.67-2-.53-.55-1.24-.81-2.02-.83l-4.32-.1s-.02,0-.03,0c-.41,0-.82.17-1.06.45-.31.29-.5.65-.51,1.13-.01.48.16.9.45,1.21.23.31.65.5,1.07.5l4.38.1c.3,0,.6.13.83.26.18.18.29.49.28.79,0,.36-.13.66-.32.83-.24.23-.53.34-.82.34m-41.62-11.41s.02,0,.03,0l10.44.24c.9.2,1.72.7,2.55,1.44.41.43.76.98.98,1.64v.06c.23.31.34.91.31,2.05-.03,1.26-.48,2.39-1.46,3.33l-4.36,4.22c-.55.59-.87,1.36-.89,2.26,0,.3-.01.6.04.78.05.36.22.67.52.91.29.25.59.37,1.01.38l3.96.09c.95.26,1.78.76,2.55,1.5.41.43.7.98.98,1.58v.06c.29.31.4.97.37,2.11-.03,1.26-.54,2.39-1.52,3.39,0,.05,0,.06-.04.06,0,0-.01,0-.02,0l-.06.12-.86.94c-.19.36-.32.71-.33,1.07-.02.72.27,1.33.8,1.88s1.06.86,1.84.88l30.89.71c.3,0,.54.13.71.32s.29.43.28.73c0,.3-.13.6-.32.83-.18.17-.41.28-.7.28,0,0-.02,0-.03,0l-30.89-.72c-1.32-.03-2.45-.54-3.39-1.52-1-.92-1.45-2.13-1.42-3.45.03-1.14.41-2.09,1.15-2.97l.8-.88c.61-.53.93-1.24.95-2.26,0-.3-.05-.54-.1-.72-.16-.84-.69-1.28-1.53-1.3l-3.96-.09c-.84-.2-1.72-.76-2.61-1.5-.29-.31-.58-.85-.92-1.64v-.06c-.29-.31-.4-.91-.37-2.05.03-1.26.54-2.45,1.46-3.45l4.42-4.1c.55-.59.87-1.3.89-2.26,0-.18-.05-.48-.1-.78-.1-.84-.57-1.27-1.53-1.3l-10.56-.24v-.06c-.3,0-.6-.13-.83-.44-.17-.24-.29-.55-.28-.91,0-.3.13-.54.32-.83.24-.23.53-.34.82-.34m25.48-16.41h0c-.81,0-1.59.31-2.14.84-.41.4-.91,1.08-.93,2.12l-.14,6.05c-.02,1.02.29,1.81.93,2.37.54.52,1.29.82,2.07.84.02,0,.06,0,.07,0,.68,0,1.3-.21,1.92-.65.08-.05.15-.11.22-.18.59-.56.92-1.35.94-2.24l.08-3.64c.54.7,1.39,1.12,2.35,1.14l11.64.27c.33,0,.4.09.42.12.05.06.1.12.16.17.03.02.11.1.1.43l-.04,1.8c-.02.94.34,1.79.98,2.37.58.57,1.34.89,2.14.91.02,0,.06,0,.07,0,1.15,0,1.83-.65,2.09-.9.58-.55.91-1.35.94-2.23l.04-1.8c.04-1.81-.55-3.46-1.77-4.91-.05-.06-.11-.12-.17-.18-1.38-1.28-3.01-1.95-4.82-1.99l-11.64-.27s-.07,0-.08,0h0c-.85,0-1.63.3-2.19.84-.17.16-.32.34-.45.53-.1-.21-.22-.43-.37-.64-.11-.16-.24-.29-.39-.41-.62-.48-1.26-.73-1.96-.74-.02,0-.06,0-.07,0h0Zm-20.53.3h0c-.79,0-1.55.33-2.13.94-1.18,1.16-1.31,2.7-.37,3.97.08.16.19.31.32.44l5.57,5.83c.13.14.27.25.43.34.5.37,1.12.58,1.8.6.02,0,.06,0,.07,0,.85,0,1.64-.34,2.19-.93.55-.51.88-1.18.94-1.88.05-.57-.05-1.43-.81-2.32-.03-.03-.05-.06-.08-.09l-5.62-5.89c-.05-.05-.1-.1-.16-.15-.84-.7-1.63-.85-2.14-.85h0Zm29.92,6.57h0c-.91,0-1.71.4-2.21,1.09-.52.57-.79,1.24-.81,1.98l-.06,2.44-6.88-.16s-.06,0-.07,0c-.94,0-1.79.4-2.3,1.08-.47.61-.71,1.24-.72,1.93-.02.66.22,1.34.66,1.88.35.52.88.9,1.51,1.09.24.11.5.17.78.18l.82.02c-.66.31-1.28.74-1.85,1.28-1.39,1.33-2.09,2.94-2.14,4.91l-.07,3.24c-.05,1.96.6,3.62,1.91,4.94.74.81,1.59,1.4,2.54,1.76-.38.15-.73.38-1.03.67-.12.11-.22.24-.31.38-.41.65-.62,1.3-.63,1.98-.02.7.2,1.35.65,1.99.01.02.03.04.04.05.59.77,1.43,1.2,2.37,1.22.02,0,.06,0,.07,0,.17,0,.33-.02.48-.05l3.51.08-.06,2.68c0,.18.02.36.06.53.19.78.53,1.32.91,1.69l-15.15-.35c-.13,0-.19,0-.44-.26-.23-.24-.24-.36-.24-.44l.66-.72s.02-.02.03-.03c.11-.1.2-.22.28-.34,1.19-1.31,1.82-2.82,1.85-4.49.03-1.08-.03-2.18-.55-3.04,0,0,0-.02-.01-.03-.32-.67-.71-1.44-1.35-2.11-.02-.02-.04-.04-.06-.06-1.02-.99-2.14-1.64-3.41-1.99-.16-.04-.32-.07-.48-.07l-3.58-.08s0-.03,0-.04c0-.37.11-.67.32-.91l4.32-4.18c1.31-1.25,2.02-2.88,2.07-4.72.02-.99-.02-2.01-.43-2.83-.31-.89-.78-1.68-1.42-2.34-.04-.04-.07-.07-.11-.11-1.13-1.01-2.26-1.64-3.45-1.9-.13-.03-.26-.04-.39-.05l-10.44-.24s-.06,0-.07,0c-.82,0-1.6.32-2.2.9-.12.11-.22.24-.31.38-.32.5-.61,1.07-.63,1.85-.02.76.21,1.49.65,2.12.01.02.02.03.04.05.42.55.97.93,1.59,1.11.24.11.51.17.78.18l10.22.24s0,.06.01.09c-.02.42-.13.65-.31.85l-4.36,4.05s-.07.07-.11.11c-1.26,1.37-1.95,3.01-1.99,4.76-.02,1,0,2.11.56,3,.47,1.08.85,1.72,1.29,2.18.05.05.1.1.16.15,1.23,1.03,2.35,1.66,3.43,1.91.14.03.28.05.42.05l3.64.08c-.02.56-.17.69-.26.77-.06.05-.12.11-.18.17l-.8.88s-.04.04-.05.06c-1.05,1.25-1.58,2.63-1.62,4.21-.05,1.91.67,3.66,2.02,4.93,1.31,1.35,2.9,2.05,4.74,2.09l30.89.72s.06,0,.07,0c.78,0,1.52-.3,2.08-.84.07-.07.13-.14.19-.21.46-.59.73-1.31.75-2.02.02-.81-.28-1.58-.84-2.16-.56-.58-1.31-.92-2.11-.94l-11.6-.27c.4-.33.7-.77.88-1.29.14-.27.22-.58.23-.89l.06-2.68,4.6.11c.17.04.35.07.56.07.01,0,.02,0,.03,0,.03,0,.06,0,.1,0,1.83-.09,3.09-1.37,3.13-3.18.01-.64-.16-1.28-.54-1.94-.08-.14-.18-.27-.29-.39-.31-.33-.68-.58-1.08-.75.94-.32,1.79-.85,2.58-1.61,1.33-1.27,2.03-2.9,2.08-4.85l.08-3.24c.05-1.97-.55-3.61-1.81-5.01-.04-.05-.09-.09-.13-.13-.54-.5-1.12-.91-1.72-1.22l.85.02s.03,0,.05,0c.27,0,.52-.05.76-.15.51-.13.99-.4,1.41-.8.1-.09.18-.19.26-.3.39-.56.6-1.15.62-1.75.02-.77-.25-1.35-.41-1.69-.13-.28-.33-.53-.57-.72-.62-.49-1.26-.73-1.97-.75l-7.9-.18.06-2.44c.02-.84-.3-1.65-.89-2.28-.07-.07-.14-.13-.21-.19-.59-.46-1.31-.73-2.02-.75-.02,0-.06,0-.07,0h0Z"/>
          </g>
          <g>
            <path class="cls-1" d="m578.78,245.93c-.55,0-1.11-.08-1.66-.24-1.48-.43-2.72-1.37-3.59-2.73-.02-.03-.04-.06-.05-.09l-.87-1.75c-.31-.55-.39-1.11-.23-1.62.16-.48.51-.87,1.05-1.14.4-.24.79-.36,1.18-.36.35,0,1.21.12,1.7,1.22l.89,1.52c.26.54.59.82,1.07.96.21.08.34.1.45.1.21,0,.45-.09.76-.28.19-.11.3-.25.34-.39l10.42-36.21c.05-.16.02-.38-.08-.61-.09-.22-.19-.24-.25-.26l-18.45-5.31c-.5-.14-.91-.46-1.17-.91-.32-.47-.42-1.09-.25-1.67.15-.53.5-.95,1.04-1.25.3-.17.63-.25.97-.25.19,0,.38.03.56.08l27.22,7.83c.58.17,1.07.53,1.32,1,.02.04.04.08.06.13.19.5.22,1.04.08,1.52-.15.54-.52,1.01-.98,1.26-.04.02-.09.04-.13.06-.29.11-.6.17-.9.17-.21,0-.42-.03-.62-.08l-3.29-.95s-.04,0-.06,0c-.19,0-.34.04-.49.1-.06.04-.24.17-.29.37l-10.38,36.1s-.02.07-.04.1c-.47,1.14-1.29,2.1-2.44,2.86-.04.03-.08.05-.12.07-.92.44-1.86.66-2.77.66Zm-32.23-12.08c-.55,0-1.11-.08-1.67-.24-1.57-.45-2.76-1.4-3.54-2.82-.78-1.52-.94-3-.49-4.56.17-.61.58-.97.86-1.19.04-.03.08-.05.12-.08.31-.17.63-.26.98-.26.19,0,.38.03.56.08.48.14.92.45,1.25.88.03.04.05.08.08.12.3.54.37,1.07.22,1.61-.15.52-.11.94.12,1.36.22.46.55.73,1.01.86.14.04.28.06.42.06.29,0,.59-.08.89-.25.46-.25.74-.6.88-1.07l2.49-8.65c.14-.48.45-.92.88-1.25.33-.25.73-.39,1.13-.39.18,0,.36.03.54.08.54.15.95.49,1.25,1.04.29.52.36,1.11.2,1.67l-2.49,8.65c-.45,1.58-1.44,2.83-2.84,3.6-.9.5-1.85.75-2.84.75Zm22.79-8.29c-.52,0-1.06-.08-1.59-.23l-3.63-1.04c-1.58-.46-2.78-1.44-3.47-2.86-.83-1.34-1.04-2.88-.58-4.46l1.19-4.15c.45-1.57,1.46-2.8,2.91-3.54.81-.49,1.76-.75,2.76-.75.55,0,1.1.08,1.65.24l3.63,1.04c1.53.44,2.7,1.38,3.49,2.81.82,1.37,1.02,2.95.57,4.52l-1.19,4.15c-.46,1.6-1.47,2.81-2.92,3.5-.85.51-1.82.79-2.81.79Zm-2.56-12.79c-.24,0-.46.05-.67.17-.45.25-.74.59-.86,1.02l-1.19,4.15c-.12.4-.05.79.21,1.26.25.45.59.74,1.01.86l3.63,1.05c.16.05.3.07.45.07.27,0,.55-.08.87-.26.42-.23.66-.52.79-.97l1.19-4.15c.13-.47.09-.89-.13-1.3-.21-.38-.5-.59-1.05-.75l-3.63-1.04c-.23-.07-.43-.1-.62-.1Zm-10.99,2.08c-.19,0-.39-.02-.61-.07l-3.25-.93c-.06-.02-.12-.04-.18-.07-1.14-.59-1.97-1.37-2.53-2.39-.29-.61-.48-1.25-.59-1.98-.03-.09-.06-.17-.07-.24l-.03-.32c-.01-.33,0-.63.04-1.02.05-.4.09-.81.2-1.17.43-1.5,1.4-2.71,2.81-3.49l5.72-3.16c.44-.28.78-.73.94-1.3.05-.19.12-.4.12-.47,0-.04,0-.06,0-.1.04-.54-.15-.64-.4-.71l-7.21-2.07c-.14-.04-.27-.11-.38-.21-.35-.17-.66-.42-.9-.74-.4-.57-.51-1.2-.32-1.86.18-.62.55-1.08,1.15-1.41.03-.02.06-.03.1-.05.35-.15.69-.22,1.02-.22.21,0,.41.03.6.08l7.03,2.02c.06.02.12.04.17.07,1,.5,1.81,1.34,2.49,2.56.39.59.57,1.33.69,1.97,0,.02,0,.05.01.07.19.59.12,1.39-.23,2.58-.44,1.55-1.36,2.69-2.81,3.49l-5.65,3.18c-.5.28-.85.73-1.02,1.35,0,.11-.01.26-.04.36l-.1.36c-.01.3.06.4.44.51l3.34.96c.55.16,1.02.53,1.31,1.06.02.04.04.08.06.13.2.52.21,1.07.05,1.64-.4,1.4-1.42,1.61-1.98,1.61Z"/>
            <path class="cls-1" d="m551.43,191.86c.11,0,.22.01.32.04l7.04,2.02c.87.44,1.53,1.19,2.06,2.15.3.46.46,1.01.58,1.67l-.02.06c.21.37.12,1.1-.18,2.13-.38,1.33-1.14,2.23-2.33,2.89l-5.66,3.18c-.74.41-1.25,1.08-1.5,1.94-.02.06-.05.17-.04.36-.05.17-.08.29-.13.46-.08.91.34,1.41,1.15,1.64l3.34.96c.29.08.54.28.71.58.11.28.14.6.02,1.01-.17.61-.5.88-1.02.88-.12,0-.26-.02-.4-.05l-3.17-.91c-.82-.42-1.58-1.02-2.11-1.98-.27-.58-.41-1.18-.49-1.76l-.04-.07-.03-.32c0-.19,0-.44.04-.8.04-.36.08-.73.17-1.01.35-1.21,1.14-2.23,2.33-2.89l5.72-3.16c.69-.43,1.19-1.09,1.42-1.9.1-.35.17-.58.16-.77.08-.91-.31-1.52-1.12-1.76l-7.21-2.07.02-.06c-.35-.1-.6-.3-.78-.54-.22-.31-.25-.64-.16-.98.1-.35.3-.6.67-.81.23-.09.44-.14.64-.14m20.61,3.8c.09,0,.19.01.28.04l27.22,7.83c.35.1.6.3.72.52.11.28.14.6.06.89-.08.29-.28.54-.5.67-.17.07-.36.1-.55.1-.12,0-.23-.01-.34-.05l-3.29-.95c-.11-.03-.24-.05-.37-.05-.27,0-.57.07-.86.19-.45.25-.73.6-.85,1l-10.38,36.1c-.41,1-1.14,1.79-2.06,2.4-.78.37-1.56.56-2.34.56-.46,0-.92-.07-1.38-.2-1.27-.37-2.29-1.16-3.02-2.31l-.87-1.75c-.37-.67-.24-1.13.41-1.44.26-.16.49-.24.69-.24.35,0,.62.22.81.67l.92,1.58c.35.73.9,1.2,1.65,1.41.26.1.5.14.73.14.43,0,.84-.16,1.29-.43.37-.21.66-.56.78-.96l10.42-36.21c.12-.4.06-.86-.13-1.29-.19-.43-.48-.7-.89-.82l-18.45-5.31c-.29-.08-.49-.26-.61-.49-.18-.24-.21-.56-.13-.85.08-.29.26-.49.56-.65.15-.08.31-.13.49-.13m-5.12,13.85c.46,0,.92.07,1.38.2l3.63,1.04c1.27.36,2.23,1.14,2.89,2.33.71,1.2.84,2.49.48,3.76l-1.19,4.15c-.37,1.27-1.16,2.29-2.39,2.87-.78.46-1.58.69-2.38.69-.44,0-.87-.07-1.32-.19l-3.63-1.04c-1.27-.37-2.29-1.16-2.87-2.39-.73-1.15-.86-2.43-.5-3.7l1.19-4.15c.37-1.27,1.16-2.29,2.4-2.93.72-.43,1.51-.64,2.31-.64m2.43,12.83c.47,0,.91-.14,1.35-.38.67-.37,1.06-.88,1.26-1.57l1.19-4.15c.2-.69.15-1.39-.22-2.06-.37-.67-.9-1.01-1.65-1.22l-3.63-1.04c-.3-.09-.6-.14-.89-.14-.39,0-.77.09-1.15.3-.67.37-1.14.92-1.34,1.61l-1.19,4.15c-.2.69-.08,1.35.29,2.02.37.67.92,1.14,1.61,1.34l3.63,1.04c.25.07.49.11.72.11m-16.64-3.27c.09,0,.17.01.27.04.29.08.49.26.65.56.17.3.2.62.11.91l-2.49,8.65c-.38,1.33-1.17,2.35-2.36,3-.76.42-1.55.62-2.35.62-.46,0-.93-.07-1.39-.2-1.33-.38-2.29-1.16-2.95-2.35-.64-1.25-.79-2.47-.41-3.8.08-.29.26-.49.5-.67.15-.08.31-.13.49-.13.09,0,.19.01.28.04.29.08.54.28.72.52.16.3.21.56.13.85-.22.75-.17,1.45.2,2.12.31.65.86,1.12,1.61,1.34.23.07.47.1.7.1.47,0,.93-.13,1.38-.38.67-.37,1.14-.92,1.36-1.67l2.49-8.65c.08-.29.28-.54.52-.72.16-.12.34-.19.53-.19m-1.29-29.21c-.46,0-.94.1-1.41.3-.07.03-.13.06-.2.1-.83.46-1.37,1.13-1.62,2-.27.95-.11,1.9.44,2.69.01.02.02.03.04.05.31.41.71.75,1.16.99.19.15.41.26.65.33l6.84,1.97s-.03.1-.04.15c-.09.31-.27.57-.52.74l-5.66,3.13c-1.62.9-2.78,2.35-3.28,4.09-.13.45-.18.92-.23,1.34-.05.44-.07.79-.05,1.11,0,.04,0,.08,0,.12l.03.32c.02.15.05.29.09.43.13.77.33,1.44.62,2.05.02.04.04.08.06.12.66,1.19,1.62,2.11,2.95,2.79.12.06.24.11.37.15l3.17.91s.1.03.15.04c.28.06.55.09.81.09,1.43,0,2.53-.87,2.94-2.33.22-.78.2-1.54-.07-2.27-.03-.09-.07-.18-.12-.26-.42-.75-1.09-1.3-1.9-1.53l-2.94-.85c.01-.07.02-.14.02-.21.14-.4.35-.55.51-.64l5.67-3.19c1.68-.93,2.75-2.26,3.27-4.08.28-.98.52-2.09.25-3.06,0-.02,0-.03,0-.05-.13-.71-.33-1.55-.83-2.33-.77-1.37-1.71-2.33-2.88-2.91-.11-.06-.23-.1-.34-.13l-7.04-2.02c-.28-.08-.58-.12-.88-.12h0Zm20.61,3.8c-.51,0-1.01.13-1.46.38-.77.43-1.28,1.05-1.51,1.85-.25.86-.11,1.78.37,2.48.39.65,1.01,1.12,1.74,1.33l18.03,5.19-10.3,35.81c-.1.06-.16.09-.19.1,0,0-.02,0-.03,0-.05-.02-.1-.03-.15-.05-.18-.05-.29-.12-.41-.36-.02-.05-.05-.09-.07-.14l-.87-1.48c-.51-1.1-1.47-1.76-2.59-1.76-.55,0-1.11.16-1.66.48-.96.49-1.36,1.2-1.52,1.71-.17.53-.25,1.38.3,2.41l.85,1.72c.03.06.07.12.1.18,1,1.57,2.44,2.66,4.15,3.15.64.18,1.29.28,1.94.28,1.07,0,2.14-.25,3.2-.76.08-.04.17-.09.24-.14,1.32-.87,2.27-1.98,2.81-3.31.03-.07.05-.14.07-.21l10.29-35.79,2.98.86c.29.08.59.12.9.12.43,0,.85-.08,1.26-.23.09-.03.18-.07.26-.12.7-.39,1.23-1.06,1.46-1.86.2-.68.16-1.45-.11-2.15-.03-.09-.07-.17-.12-.26-.38-.7-1.09-1.23-1.92-1.47l-27.22-7.83c-.27-.08-.56-.12-.84-.12h0Zm-5.12,13.85h0c-1.17,0-2.27.3-3.28.89-1.67.88-2.83,2.3-3.36,4.13l-1.19,4.15c-.52,1.82-.29,3.67.67,5.22.81,1.63,2.25,2.82,4.07,3.34l3.63,1.05c.62.18,1.25.27,1.87.27,1.15,0,2.27-.31,3.33-.92,1.65-.81,2.84-2.26,3.37-4.09l1.19-4.15c.53-1.84.3-3.67-.67-5.31-.92-1.65-2.29-2.74-4.07-3.26l-3.63-1.04c-.64-.18-1.29-.28-1.93-.28h0Zm2.43,12.83s-.1,0-.17-.03l-3.63-1.05c-.06-.02-.24-.07-.42-.38-.17-.31-.14-.43-.12-.5l1.19-4.15c.02-.06.07-.24.38-.42.06-.04.11-.05.18-.05.06,0,.17.01.34.06l3.63,1.04c.36.1.39.17.45.27.08.14.12.29.05.54l-1.19,4.15c-.05.18-.1.26-.31.37-.24.13-.35.13-.38.13h0Zm-16.64-3.27c-.62,0-1.22.2-1.73.59-.6.45-1.04,1.08-1.23,1.76l-2.49,8.65c-.05.18-.14.33-.4.47-.15.08-.29.13-.41.13-.05,0-.1,0-.15-.02-.23-.07-.31-.17-.36-.28-.02-.03-.03-.07-.05-.1-.07-.13-.13-.27-.03-.6.23-.8.13-1.59-.3-2.37-.05-.08-.1-.16-.15-.24-.45-.6-1.08-1.04-1.77-1.24-.27-.08-.56-.12-.84-.12-.51,0-1.01.13-1.46.38-.08.04-.16.1-.23.15-.63.47-1.03,1.04-1.23,1.72-.51,1.78-.33,3.55.55,5.26,0,.02.02.04.03.05.92,1.66,2.31,2.77,4.14,3.3.64.18,1.29.28,1.94.28,1.16,0,2.28-.29,3.32-.87,1.64-.91,2.79-2.36,3.32-4.2l2.49-8.65c.23-.81.13-1.68-.29-2.43-.43-.77-1.05-1.28-1.85-1.51-.27-.08-.54-.12-.82-.12h0Z"/>
          </g>
        </g>
      </g>
      <g id="_水辺で" data-name="水辺で">
        <g id="_水辺" data-name="水辺">
          <g>
            <path class="cls-1" d="m167.68,131.42c3.86,1.76,8.43.12,10.3-3.74l15.1-27.97c2.93-7.02,3.51-10.3,3.51-15.68v-2.69h6.44v37.92h-1.4c-4.33,0-7.72,3.51-7.72,7.72s3.39,7.72,7.72,7.72h8.78c5.27,0,7.96-3.86,8.19-9.36v-51.73c0-4.33-3.51-7.72-7.72-7.72h-35.69c-4.21,0-7.72,3.39-7.72,7.72s3.51,7.72,7.72,7.72h5.97v2.69c0,3.16-.47,4.8-2.22,9.13l-14.86,27.85c-1.87,3.86-.23,8.54,3.63,10.42Z"/>
            <path class="cls-1" d="m147.09,79.58c4.21,0,7.72-3.39,7.72-7.72v-6.67c0-4.33-3.51-7.84-7.72-7.84s-7.72,3.51-7.72,7.84v6.67c0,4.33,3.39,7.72,7.72,7.72Z"/>
            <path class="cls-1" d="m156.99,160.97c-.32-1.11-.5-2.25-.5-3.43,0-4.38,2.37-8.36,6.2-11.3-3.38-.37-6.72-.81-9.98-1.37l7.14-22.12c1.87-6.2-.47-11.12-6.44-11.47l5.62-15.33c2.57-6.44-.7-11.47-6.79-11.47h-13.93c-4.33,0-7.72,3.51-7.72,7.72s3.39,7.72,7.72,7.72h3.39l-4.56,12.64c-2.11,1.4-3.51,3.74-3.51,6.44,0,4.21,3.39,7.72,7.72,7.72h1.52l-4.68,14.75c-2.16-.34-4.3.05-5.97,1.16,2.59,2.54,4.2,6.08,4.2,10,0,1.39-.21,2.72-.58,3.99,6.41,1.96,13.62,3.37,21.14,4.35Z"/>
          </g>
          <g>
            <path class="cls-1" d="m109.64,129.66h-.35l-30.08-31.48v-34.06c0-4.21-3.51-7.72-7.84-7.72s-7.61,3.51-7.61,7.72v74.88c.82-.13,1.65-.22,2.5-.22,5.19,0,9.82,2.5,12.95,6.43v-24.8l17.79,20.25c3.16,3.39,6.2,4.8,10.65,5.15h2.11c4.21,0,7.49-3.74,7.37-7.96,0-4.33-3.16-8.19-7.49-8.19Z"/>
            <path class="cls-1" d="m95.36,100.29l12.64-6.32c3.86-1.99,5.38-6.55,3.51-10.42-1.87-3.86-6.55-5.38-10.42-3.51l-12.64,6.32c-3.74,1.99-5.38,6.55-3.39,10.42,1.87,3.86,6.44,5.38,10.3,3.51Z"/>
            <path class="cls-1" d="m57.44,102.86v-10.3c0-4.92-3.39-7.37-7.61-7.37h-15.8c-4.21,0-7.72,3.04-7.72,7.37s3.39,7.72,7.72,7.72h8.43c0,3.16-.94,5.97-3.74,9.6-3.63,4.8-12.87,16.97-15.68,20.6-2.57,3.51-1.99,8.43,1.4,11,3.39,2.57,8.43,1.76,11-1.64l17.55-23.76c2.46-3.74,4.45-7.37,4.45-13.22Z"/>
          </g>
          <g id="_波" data-name="波">
            <path class="cls-5" d="m6.92,139.37c14.29,0,14.29,18.03,28.59,18.03s14.29-18.03,28.59-18.03,14.3,18.03,28.59,18.03,14.3-18.03,28.59-18.03,14.3,18.03,28.59,18.03,14.3-18.03,28.59-18.03,14.3,18.03,28.6,18.03,14.3-18.03,28.6-18.03"/>
          </g>
          <path class="cls-1" d="m0,138.77c0,3.82,3.1,6.92,6.92,6.92s6.92-3.1,6.92-6.92-3.1-6.92-6.92-6.92-6.92,3.1-6.92,6.92Z"/>
        </g>
        <path id="_涙" data-name="涙" class="cls-1" d="m266.52,173.04h.13l-24.53-37.66c-3.04-4.66-9.87-4.66-12.9,0l-24.46,37.65h.04c-3.63,5.75-5.71,12.58-5.61,19.91.25,20.01,17.02,36.3,37.03,36.01,19.89-.29,35.93-16.51,35.93-36.47,0-7.15-2.06-13.81-5.62-19.44Z"/>
        <path class="cls-6" d="m214.11,178.97c-.06-2.3,1.74-4.16,3.98-4.23l32.64-1.37c1.74,0,4.16,1.06,4.23,3.98.06,2.3-1.68,4.23-3.98,4.29l-4.16.19c-6.22,4.85-14.3,14.42-14.61,19.58-.19,3.05,2.36,5.91,9.82,6.53,2.24.19,3.92,1.49,4.04,3.79.06,2.24-2.11,4.6-4.35,4.6-11.07,0-18.46-6.9-17.22-15.35.87-5.91,6.4-13.37,11.5-18.84l-17.65.81c-2.3.06-4.16-1.74-4.23-3.98Zm38.42,7.77v3.42c0,1.74-1.37,3.11-3.11,3.11s-3.05-1.37-3.05-3.11v-3.42c0-1.68,1.37-3.11,3.05-3.11s3.11,1.43,3.11,3.11Zm7.83,0v3.42c0,1.74-1.37,3.11-3.11,3.11s-3.05-1.37-3.05-3.11v-3.42c0-1.68,1.37-3.11,3.05-3.11s3.11,1.43,3.11,3.11Z"/>
        <g id="_みずべ" data-name="みずべ">
          <circle class="cls-1" cx="121.77" cy="32.95" r="12.15" transform="translate(69.54 147.79) rotate(-80.68)"/>
          <circle class="cls-1" cx="161.47" cy="32.95" r="12.15" transform="translate(103.17 187.09) rotate(-80.82)"/>
          <circle class="cls-1" cx="82.08" cy="32.95" r="12.15" transform="translate(36.45 108.72) rotate(-80.82)"/>
          <path class="cls-6" d="m89.81,35.43c-.16.63-.79,1.04-1.44.9-.4-.09-.72-.16-1.12-.23-.34,1.03-.76,2.14-1.39,3.31-.31.59-1.08.81-1.66.47-.58-.32-.7-1.04-.41-1.62.47-.95.81-1.73,1.13-2.61-1.3-.25-2.54-.49-3.42-.58-.72,2.83-1.69,3.83-2.77,3.83-1.35,0-2.59-1.22-2.66-2.92-.11-2.32,1.6-3.4,3.62-3.39.45-1.6.61-2.92.83-4.72h-1.42c-.65,0-1.19-.54-1.19-1.19s.54-1.19,1.24-1.19l2.59.02c.85,0,1.37.77,1.24,1.57-.23,2.14-.58,4.14-.9,5.71,1.01.13,2.16.29,3.46.54.14-.56.22-.81.27-1.21.05-.45.32-1.15,1.3-1.06.65.07,1.15.76,1.06,1.4-.07.45-.18.9-.29,1.33.38.07.68.11,1.03.2.65.14,1.04.77.9,1.42Zm-10.64-.63c-.67-.04-1.13.38-1.13.92,0,.38.2.65.5.63.18,0,.49-.83.63-1.55Z"/>
          <path class="cls-6" d="m115.47,28.32c0-.65.52-1.19,1.19-1.19h5.1v-1.57c0-.67.52-1.21,1.17-1.21.67-.02,1.21.52,1.21,1.17.02.41,0,1.01,0,1.6h2.56c.67,0,1.19.54,1.19,1.19s-.52,1.21-1.19,1.21h-2.54c0,.94-.02,1.85-.04,2.54.18.49.31.92.27,1.8-.11,2.05-.34,3.4-2.12,6.43-.34.58-1.19.74-1.75.38-.54-.36-.61-1.1-.27-1.66.45-.76.97-1.62,1.21-2.2h-.02c-1.58.07-3.01-1.35-3.17-3.19-.18-2.05.94-3.28,2.7-3.4.18,0,.47-.02.79,0v-.7h-5.1c-.67,0-1.19-.54-1.19-1.21Zm6.25,4.27c-.23-.11-.23-.14-.58-.13-.36.02-.63.32-.63.7,0,.79.38,1.28.79,1.28.27-.02.41-.79.41-1.85Zm5.76-7.53v.99c0,.49-.4.9-.88.9s-.9-.41-.9-.9v-.99c0-.5.4-.9.9-.9s.88.4.88.9Zm2.27,0v.99c0,.49-.4.9-.88.9s-.9-.41-.9-.9v-.99c0-.5.4-.9.9-.9s.88.4.88.9Z"/>
          <path class="cls-6" d="m168.56,35.66c.49.43.52,1.19.07,1.67-.43.49-1.21.52-1.69.07l-6.72-6.25-3.78,4.09c-.45.49-1.22.5-1.69.05-.49-.45-.49-1.21-.04-1.69l4.5-4.59c.52-.56,1.4-.52,1.89-.05l7.45,6.7Zm-2.84-7.36v.99c0,.5-.4.9-.9.9s-.88-.4-.88-.9v-.99c0-.49.4-.9.88-.9s.9.41.9.9Zm2.27,0v.99c0,.5-.41.9-.9.9s-.9-.4-.9-.9v-.99c0-.49.41-.9.9-.9s.9.41.9.9Z"/>
        </g>
      </g>
      <g id="_乾杯" data-name="乾杯">
        <g>
          <path class="cls-3" d="m352.59,197.41c-1.49,0-2.88-.38-4.13-1.12-1.93-1.15-3.22-2.97-3.84-5.42l-3.98-15.75c-.38-1.51-1.07-2.06-1.55-2.35-.47-.28-.98-.42-1.57-.42-.38,0-.8.06-1.24.17l-16.82,4.25c-.84.21-1.67.32-2.46.32-1.49,0-2.88-.38-4.13-1.12-1.93-1.15-3.22-2.97-3.84-5.42l-2.26-8.95c-.62-2.45-.35-4.67.8-6.6,1.15-1.93,2.97-3.22,5.42-3.84l18.43-4.66c.81-.2,1.08-.55,1.24-.82.16-.29.35-.79.12-1.7-.22-.86-.57-1.16-.81-1.3-.23-.14-.48-.2-.78-.2-.22,0-.48.04-.75.1l-15.03,3.8c-.84.21-1.67.32-2.46.32-1.49,0-2.88-.38-4.13-1.12-1.93-1.15-3.22-2.98-3.84-5.42l-13.13-51.9c-.62-2.45-.35-4.67.8-6.6,1.15-1.93,2.97-3.22,5.42-3.84l15.21-3.85c1.31-.33,1.63-.66,1.24-2.21-.38-1.48-.86-1.48-1.24-1.48-.26,0-.56.04-.9.13l-18.25,4.62c-.84.21-1.67.32-2.46.32-1.49,0-2.88-.38-4.13-1.12-1.93-1.15-3.22-2.98-3.84-5.42l-2.04-8.05c-.62-2.45-.35-4.67.8-6.6,1.15-1.93,2.97-3.22,5.42-3.84l16.46-4.16c1.51-.38,2.06-1.07,2.35-1.55.29-.48.63-1.3.25-2.81l-.32-1.25c-.62-2.45-.35-4.67.8-6.6,1.15-1.93,2.97-3.22,5.42-3.84l11.81-2.99c.84-.21,1.67-.32,2.46-.32,1.49,0,2.88.38,4.13,1.12,1.93,1.15,3.22,2.97,3.84,5.42l.32,1.25c.38,1.51,1.07,2.06,1.55,2.35.47.28.98.42,1.57.42.38,0,.79-.06,1.24-.17l14.5-3.67c.84-.21,1.67-.32,2.46-.32,1.49,0,2.88.38,4.13,1.12,1.93,1.15,3.22,2.98,3.84,5.42l2.04,8.05c.13.51.22,1.02.27,1.51,1.53-6.97,2.58-13.72,3.13-20.16,0-.08.02-.16.03-.24.29-1.54.39-3.69.3-6.4,0-.06,0-.12,0-.18.22-5.67,3.49-8.95,8.99-9l12.62.06c2.49.08,4.5.87,6.05,2.37,2.07,2,2.35,4.12,2.22,5.55-.12,1.29-.2,2.31-.26,3.07-.06.79-.16,2.04-.31,3.73-.08.91.23,1.65,1,2.37.14.13.56.53,1.73.53.59,0,1.28-.1,2.06-.3l35.79-9.05c.84-.21,1.67-.32,2.46-.32,1.49,0,2.88.38,4.13,1.12,1.93,1.15,3.22,2.98,3.84,5.42l2.76,10.91c.62,2.45.35,4.67-.8,6.6-1.15,1.93-2.97,3.22-5.42,3.84l-51.72,13.08c-1.52.38-2.36,1.17-2.8,2.63-.96,3.85-2.36,8.13-4.17,12.72-.02.04-.03.08-.05.12l47.86-12.1c.73-.18,1.46-.28,2.17-.28,1.88,0,3.64.63,5.23,1.88l5.77,4.66c3.92,3.3,4.49,7.46,1.58,11.47-9.98,15.25-18.54,33.94-25.44,55.55-.69,2.14-1.26,4.09-1.69,5.81-.43,2.06-.24,3.26.09,3.66.29.35,1.08.41,1.53.41.75,0,1.68-.14,2.75-.41l14.5-3.67c3.89-.98,4.63-2.7,4.85-3.9,0-.05.02-.1.03-.15.29-1.19.52-3.72-.08-9.01-.27-1.83.07-3.37,1.04-4.49.63-.73,1.83-1.61,3.94-1.61.29,0,.6.02.93.05,2.22.32,4.61.52,7.21.59l6.71.21s4.25.08,4.29.08c4.11.25,6.6,2.63,6.83,6.54.69,11.16-.18,19.05-2.65,24.13-3.27,6.62-9.82,11.21-19.46,13.65l-32.75,8.28c-3.93.99-7.57,1.5-10.82,1.5-5.69,0-10.41-1.54-14.03-4.56-4.57-3.82-6.95-9.99-7.1-18.38-.97.76-2.14,1.32-3.51,1.66l-16.64,4.21c-1.51.38-2.06,1.07-2.35,1.55-.29.48-.63,1.3-.25,2.81l3.98,15.75c.62,2.45.35,4.67-.8,6.6-1.15,1.93-2.97,3.22-5.42,3.84l-11.81,2.99c-.84.21-1.67.32-2.46.32Zm31.75-63.99c1.49,0,2.89.38,4.13,1.12,1.93,1.15,3.22,2.97,3.84,5.42l.97,3.84c1.17-5.4,3.14-11.53,5.91-18.28,2.85-8.36,5.82-15.58,8.8-21.45.26-.58.4-1.01.48-1.32-.33.03-.79.1-1.43.26l-17.72,4.48c-.84.21-1.67.32-2.46.32-1.49,0-2.88-.38-4.13-1.12-1.93-1.15-3.22-2.98-3.84-5.42l-2.9-11.45c-.62-2.45-.35-4.67.8-6.59.68-1.14,1.59-2.05,2.73-2.74-.18-.07-.36-.14-.53-.22-3.4-1.41-5.14-1.71-6-1.71.02.11.04.23.08.39l10.46,41.34c.62,2.45.35,4.66-.8,6.59-1.15,1.93-2.97,3.22-5.42,3.84l-14.5,3.67c-.91.23-1.26.63-1.44.91-.17.26-.34.67-.14,1.48.43,1.68,1.03,1.68,1.51,1.68.3,0,.66-.05,1.06-.15l18.08-4.57c.84-.21,1.67-.32,2.46-.32Zm-54.41-14.11s.06.02.21.02c.12,0,.34-.02.66-.1l19.86-5.02c.64-.16.8-.35.8-.35,0,0,.09-.23-.07-.87-.16-.65-.35-.8-.35-.8-.01,0-.08-.03-.22-.03-.12,0-.34.02-.65.1l-19.86,5.02c-.64.16-.8.35-.8.35,0,0-.09.23.07.87.16.64.35.8.35.8h0Zm-5.88-23.26s.06.02.21.02c.12,0,.34-.02.66-.1l19.86-5.02c.64-.16.8-.35.8-.35,0,0,.09-.23-.07-.87-.16-.65-.35-.8-.35-.8-.01,0-.08-.03-.22-.03-.12,0-.34.02-.65.1l-19.86,5.02c-.64.16-.8.35-.8.35,0,0-.09.23.07.87.16.64.35.8.35.8h0Zm41.68-41.34c-1.16,1.76-2.92,2.95-5.23,3.53l-16.11,4.07c-.74.19-1.26.46-1.43.75-.17.27-.16.82.01,1.51.37,1.46.87,1.46,1.31,1.46.29,0,.63-.05,1.01-.15l16.82-4.25c1.71-.43,2.14-1.3,2.34-2.08.45-1.62.87-3.23,1.27-4.83Z"/>
          <path class="cls-1" d="m379.47,15.82l12.58.06c1.79.06,3.23.61,4.32,1.67,1.09,1.06,1.58,2.24,1.46,3.53-.12,1.3-.2,2.34-.26,3.11-.06.78-.16,2.01-.3,3.69-.15,1.69.45,3.16,1.78,4.41.86.8,2,1.21,3.44,1.21.8,0,1.69-.12,2.67-.37l35.79-9.05c.65-.16,1.26-.24,1.85-.24,1.04,0,1.99.26,2.85.77,1.35.8,2.24,2.1,2.7,3.89l2.76,10.92c.45,1.79.28,3.36-.52,4.7-.8,1.35-2.1,2.24-3.89,2.7l-51.72,13.08c-2.39.6-3.92,2.07-4.6,4.4-.94,3.79-2.31,7.95-4.08,12.46-.47,1.14-1.13,1.81-1.96,2.02-.38.1-.76.15-1.12.15-.44,0-.86-.07-1.27-.21-.76-.25-1.43-.5-1.99-.73-3.07-1.27-5.4-1.91-6.98-1.91-2.14,0-2.92,1.17-2.33,3.5l10.45,41.34c.45,1.79.28,3.36-.52,4.7-.8,1.35-2.1,2.24-3.89,2.7l-14.5,3.67c-1.31.33-2.29.99-2.93,1.98-.64.99-.79,2.14-.46,3.45.6,2.38,1.91,3.57,3.93,3.57.51,0,1.07-.08,1.67-.23l18.07-4.57c.65-.16,1.26-.25,1.85-.25,1.04,0,1.99.26,2.85.77,1.34.8,2.24,2.1,2.7,3.89l2.26,8.95c.45,1.79.28,3.36-.52,4.7-.8,1.35-2.1,2.24-3.89,2.7l-16.64,4.21c-1.79.45-3.09,1.35-3.89,2.7-.8,1.35-.98,2.91-.52,4.7l3.98,15.75c.45,1.79.28,3.36-.52,4.7-.8,1.35-2.1,2.24-3.89,2.7l-11.81,2.99c-.65.16-1.26.25-1.85.25-1.04,0-1.99-.26-2.85-.77-1.35-.8-2.24-2.1-2.7-3.89l-3.98-15.75c-.45-1.79-1.35-3.09-2.7-3.89-.86-.51-1.81-.77-2.85-.77-.59,0-1.2.08-1.85.24l-16.82,4.25c-.65.16-1.26.24-1.85.24-1.04,0-1.99-.26-2.85-.77-1.35-.8-2.24-2.1-2.7-3.89l-2.26-8.95c-.45-1.79-.28-3.36.52-4.7.8-1.35,2.1-2.24,3.89-2.7l18.43-4.66c1.31-.33,2.25-1.01,2.82-2.04.56-1.03.68-2.2.35-3.52-.33-1.31-.98-2.26-1.96-2.84-.62-.37-1.31-.55-2.06-.55-.43,0-.89.06-1.36.18l-15.03,3.8c-.65.16-1.26.25-1.85.25-1.04,0-1.99-.26-2.85-.77-1.35-.8-2.24-2.1-2.7-3.89l-13.13-51.9c-.45-1.79-.28-3.36.52-4.7.8-1.34,2.1-2.24,3.89-2.7l15.21-3.85c2.74-.69,3.76-2.44,3.05-5.25-.57-2.25-1.79-3.37-3.67-3.37-.46,0-.97.07-1.51.21l-18.25,4.62c-.65.16-1.26.25-1.85.25-1.04,0-1.99-.26-2.85-.77-1.35-.8-2.24-2.1-2.7-3.89l-2.04-8.05c-.45-1.79-.28-3.36.52-4.7.8-1.35,2.1-2.24,3.89-2.7l16.46-4.16c1.79-.45,3.09-1.35,3.89-2.7.8-1.35.98-2.91.52-4.7l-.32-1.25c-.45-1.79-.28-3.36.52-4.7.8-1.34,2.1-2.24,3.89-2.7l11.81-2.99c.64-.16,1.26-.24,1.85-.24,1.04,0,1.99.26,2.85.77,1.35.8,2.24,2.1,2.7,3.89l.32,1.25c.45,1.79,1.35,3.09,2.7,3.89.86.51,1.81.77,2.85.77.59,0,1.2-.08,1.85-.25l14.5-3.67c.65-.16,1.26-.24,1.85-.24,1.04,0,1.99.26,2.85.77,1.35.8,2.24,2.1,2.7,3.89l2.04,8.05c.45,1.79.28,3.36-.52,4.7-.8,1.35-2.1,2.24-3.89,2.7l-16.11,4.07c-2.86.72-3.94,2.49-3.23,5.29.56,2.23,1.81,3.34,3.73,3.34.5,0,1.04-.07,1.63-.22l16.82-4.25c2.26-.57,3.65-1.87,4.15-3.91,2.99-10.78,4.89-21.04,5.74-30.77.32-1.73.44-4.04.34-6.94.17-4.35,2.34-6.56,6.52-6.6m-55.22,82.74c.39,0,.81-.06,1.27-.17l19.86-5.02c2.27-.57,3.11-1.99,2.54-4.26-.46-1.81-1.46-2.71-2.99-2.71-.39,0-.81.06-1.27.17l-19.86,5.02c-2.27.57-3.11,2-2.54,4.26.46,1.81,1.45,2.71,2.99,2.71m5.88,23.26c.39,0,.81-.06,1.27-.17l19.86-5.02c2.26-.57,3.11-1.99,2.54-4.26-.46-1.81-1.46-2.71-2.99-2.71-.39,0-.81.06-1.27.17l-19.86,5.02c-2.27.57-3.11,2-2.54,4.26.46,1.81,1.45,2.71,2.99,2.71m108.47-53.94c1.31,0,2.54.45,3.68,1.35l5.74,4.64c2.9,2.44,3.27,5.14,1.1,8.1-10.17,15.52-18.75,34.26-25.77,56.21-.71,2.21-1.29,4.2-1.73,5.96-1.01,4.79.34,7.18,4.04,7.18.96,0,2.08-.16,3.36-.49l14.5-3.67c3.94-1,6.17-2.95,6.7-5.88.5-2.03.49-5.33-.03-9.89-.33-2.21.5-3.31,2.5-3.31.21,0,.44.01.67.04,2.24.32,4.7.52,7.39.61,2.69.08,4.92.15,6.72.2l4.21.08c2.83.17,4.33,1.57,4.49,4.2.66,10.63-.14,18.25-2.4,22.88-2.94,5.95-8.88,10.05-17.83,12.32l-32.75,8.28c-3.75.95-7.15,1.42-10.21,1.42-5.11,0-9.26-1.33-12.43-3.98-5.07-4.24-7.04-11.9-5.91-22.97.58-6.74,2.87-15.01,6.87-24.78,2.84-8.34,5.75-15.42,8.72-21.25,1.47-3.27.99-4.91-1.44-4.91-.65,0-1.45.12-2.38.35l-17.72,4.48c-.65.16-1.26.25-1.85.25-1.04,0-1.99-.26-2.85-.77-1.34-.8-2.24-2.1-2.7-3.89l-2.9-11.45c-.45-1.79-.28-3.36.52-4.7.8-1.35,2.1-2.24,3.89-2.7l54.22-13.71c.53-.13,1.05-.2,1.56-.2m-59.14-57.07s-.03,0-.05,0c-6.81.07-11.2,4.44-11.46,11.41,0,.12,0,.24,0,.36.1,3.14-.08,4.92-.26,5.85-.03.16-.05.33-.07.49-.24,2.83-.59,5.72-1.02,8.65-.91-2.33-2.44-4.19-4.49-5.41-1.64-.98-3.46-1.48-5.41-1.48-1,0-2.03.13-3.08.4l-14.5,3.67c-.3.08-.51.09-.62.09-.18,0-.24-.04-.29-.06-.2-.12-.33-.51-.41-.82l-.32-1.25c-.78-3.07-2.5-5.48-4.98-6.96-1.64-.98-3.46-1.47-5.41-1.47-1,0-2.03.13-3.07.4l-11.81,2.99c-3.07.78-5.47,2.5-6.96,4.98-1.48,2.48-1.85,5.42-1.08,8.49l.32,1.25c.08.31.15.72.03.92-.12.2-.51.33-.82.41l-16.46,4.16c-3.07.78-5.48,2.5-6.96,4.98-1.48,2.48-1.85,5.42-1.08,8.49l2.04,8.05c.78,3.07,2.5,5.48,4.98,6.96,1.64.98,3.46,1.47,5.41,1.47.33,0,.67-.01,1.01-.04-.86.73-1.59,1.6-2.17,2.58-1.48,2.49-1.85,5.42-1.08,8.49l13.13,51.9c.78,3.07,2.5,5.47,4.98,6.95,1.16.69,2.41,1.14,3.74,1.35-2.54.88-4.54,2.48-5.84,4.65-1.48,2.48-1.85,5.42-1.08,8.49l2.26,8.95c.78,3.07,2.5,5.47,4.98,6.96,1.64.98,3.46,1.47,5.41,1.47,1,0,2.03-.13,3.08-.4l16.82-4.25c.3-.08.51-.09.62-.09.18,0,.24.04.29.06.2.12.33.51.41.82l3.98,15.75c.78,3.07,2.5,5.48,4.98,6.96,1.64.98,3.46,1.47,5.41,1.47,1,0,2.03-.13,3.08-.4l11.81-2.99c3.07-.78,5.48-2.5,6.96-4.98,1.48-2.48,1.85-5.42,1.08-8.49l-3.98-15.75c-.08-.31-.15-.72-.03-.92.12-.2.51-.33.82-.41l16.64-4.21c.22-.05.43-.11.64-.18.77,7.22,3.36,12.71,7.76,16.39,4.08,3.41,9.34,5.14,15.64,5.14,3.46,0,7.3-.53,11.43-1.57l32.75-8.28c10.39-2.63,17.48-7.66,21.09-14.95,2.68-5.5,3.62-13.8,2.91-25.41-.31-5.15-3.83-8.55-9.17-8.88-.07,0-.14,0-.21,0l-4.18-.08c-1.18-.03-2.55-.08-4.11-.12l-2.57-.08c-2.5-.08-4.8-.26-6.83-.56-.07,0-.13-.02-.2-.02-.41-.04-.81-.06-1.19-.06-3.06,0-4.86,1.35-5.83,2.47-1,1.16-2.08,3.22-1.62,6.48.6,5.32.29,7.41.13,8.06-.02.1-.05.2-.07.31-.05.3-.22,1.22-3.01,1.93l-14.5,3.67c-.61.16-1.1.24-1.47.29.03-.27.08-.61.16-1.02.41-1.63.96-3.49,1.62-5.55,6.83-21.39,15.29-39.86,25.13-54.9,3.62-5.04,2.86-10.68-2-14.77-.02-.02-.05-.04-.07-.06l-5.74-4.64s-.03-.03-.05-.04c-2.01-1.58-4.36-2.42-6.78-2.42-.92,0-1.85.12-2.78.35l-43.23,10.93c1.07-3.03,1.94-5.9,2.61-8.58.16-.53.33-.7,1-.87l51.72-13.08c3.07-.78,5.48-2.5,6.96-4.98,1.48-2.48,1.85-5.42,1.08-8.49l-2.76-10.92c-.78-3.07-2.5-5.47-4.98-6.96-1.64-.98-3.46-1.48-5.41-1.48-1,0-2.03.13-3.07.4l-35.79,9.05c-.72.18-1.18.22-1.45.22-.07,0-.12,0-.17,0-.04-.05-.07-.08-.08-.1,0,0,0-.03,0-.07.15-1.7.25-2.95.31-3.74.06-.78.14-1.78.25-3.05.25-2.79-.8-5.48-2.97-7.57-1.99-1.92-4.63-2.98-7.64-3.07-.05,0-.09,0-.14,0l-12.58-.06h-.02Zm7.39,99.49c1,0,2.03-.13,3.08-.4l14.16-3.58c-2.47,5.26-4.9,11.4-7.26,18.3-1.54,3.77-2.84,7.35-3.9,10.73-.85-1.21-1.92-2.22-3.2-2.98-1.64-.98-3.46-1.48-5.41-1.48-.68,0-1.38.06-2.09.19,1.06-.81,1.94-1.79,2.63-2.94,1.48-2.49,1.85-5.42,1.08-8.49l-2.51-9.91c1.08.37,2.23.55,3.42.55h0Z"/>
        </g>
        <g>
          <path class="cls-3" d="m573.57,172.94c-.57,0-1.16-.07-1.76-.2l-10.28-2.22c-2.01-.43-3.6-1.48-4.6-3.03-1-1.55-1.3-3.43-.87-5.44l8-37.16c.65-3.01.4-4.18.28-4.53-.37.04-1.56.33-4.21,2.11-3.94,2.94-8.11,5.63-12.4,8-1.13.65-2.35.98-3.6.98-.49,0-.99-.05-1.49-.16-1.83-.39-3.38-1.6-4.59-3.57-.8-1.29-1.63-2.49-2.47-3.56-1.53-2.01-2.77-3.52-3.72-4.54l-.12-.14c-.76-.94-1.28-1.87-1.55-2.79l-8.31,38.57c-.43,2.01-1.48,3.6-3.03,4.6-1.1.71-2.33,1.07-3.68,1.07-.57,0-1.16-.07-1.76-.2l-9.46-2.04c-2.01-.43-3.6-1.48-4.6-3.03-1-1.55-1.3-3.43-.87-5.44l6.21-28.84-.17.18c-1.42,1.43-2.95,2.12-4.61,2.12-.41,0-.83-.04-1.24-.13-1.73-.37-3.22-1.21-4.42-2.47-.85-.89-1.72-1.79-2.61-2.69-.81-.82-1.49-1.44-2.02-1.84-.67-.51-1.33-1.05-1.93-1.59-1.65-1.48-2.49-3.11-2.5-4.85-.01-1.77.83-3.45,2.52-5,9.79-8.48,18.01-18.56,24.49-30.03.66-1.07.47-1.46.4-1.61-.21-.43-.78-.75-1.71-.95l-6.86-1.48c-2.01-.43-3.6-1.48-4.6-3.03-1-1.55-1.3-3.43-.87-5.44l1.77-8.23c.43-2.01,1.48-3.6,3.03-4.6,1.09-.71,2.33-1.06,3.68-1.06.57,0,1.16.07,1.76.2l8.91,1.92c.26.06.5.08.71.08.38,0,.68-.08.96-.26.27-.18.65-.52.86-1.45l3.1-14.4c.43-2.01,1.48-3.6,3.03-4.6,1.09-.71,2.33-1.06,3.67-1.06.57,0,1.16.07,1.76.2l9.46,2.04c2.01.43,3.6,1.48,4.6,3.03,1,1.55,1.3,3.44.87,5.44l-3.1,14.39c-.2.94,0,1.4.18,1.68.17.27.51.65,1.45.85l1.1.24c.25.06.49.08.71.08.38,0,.68-.08.96-.26.27-.17.65-.51.86-1.45l.97-4.52c.43-2.01,1.48-3.6,3.03-4.6,1.09-.7,2.33-1.06,3.67-1.06.57,0,1.16.07,1.76.2l69.93,15.07c2.01.43,3.6,1.48,4.6,3.03,1,1.55,1.3,3.43.87,5.44l-1.68,7.81c-.44,2.01-1.48,3.6-3.03,4.6-1.09.71-2.33,1.06-3.67,1.06-.57,0-1.16-.07-1.76-.2l-19.75-4.25c-.17-.04-.33-.06-.47-.06-.22,0-.56,0-1.01.69l-4.05,5.87-.06.07c-.15.18-.24.39-.3.65l-1.92,8.91c-.06.26-.08.46-.1.62.22-.04.53-.12.94-.29,1.02-.44,2.1-.67,3.21-.67.6,0,1.21.07,1.83.2,1.44.31,3.4,1.3,4.58,4.28,2.42,5.88,6.71,13.53,12.71,22.71l.08.13c.57,1,1.24,2.01,1.99,3,1.26,1.67,1.7,3.58,1.28,5.52-.29,1.36-1.19,3.27-3.77,4.65-3.22,1.62-6.33,3.59-9.29,5.88-1.33,1.04-2.77,1.57-4.25,1.57-.44,0-.88-.05-1.31-.14-1.86-.4-3.38-1.51-4.54-3.31-3.35-5.19-6.38-10.77-9.01-16.58-.06-.14-.12-.26-.17-.38-.04.16-.08.33-.12.52l-9.81,45.53c-.44,2.01-1.48,3.6-3.03,4.6-1.09.71-2.33,1.06-3.67,1.06Zm-42.33-61.1c.47-.54,1.06-1.04,1.78-1.48-.28-.29-.55-.65-.8-1.08l-.3-.57-.67,3.13Zm9.82-32.82c.32.61.62,1.14.9,1.57.44.69,1.2,1.95,2.38,3.97,1.1,1.88,2.26,3.77,3.45,5.61,2.52,4.07,3.39,5.24,3.69,5.58l.12.14.1.15c.4.63.69,1.25.84,1.86,8.52-6.67,16.14-14.5,22.77-23.43.7-.87,1.03-1.6.9-1.92-.12-.31-.74-.74-2.1-1.03l-17.28-3.72c-.26-.06-.49-.08-.71-.08-.38,0-.68.08-.96.27-.27.17-.65.51-.85,1.45l-1.06,4.94c-.43,2.01-1.48,3.6-3.03,4.6-1.09.71-2.33,1.06-3.67,1.06-.57,0-1.16-.07-1.76-.2l-3.7-.8Z"/>
          <path class="cls-1" d="m530.06,31.61c.39,0,.81.05,1.24.14l9.46,2.04c1.37.3,2.38.94,3.03,1.94.65,1,.82,2.19.52,3.56l-3.1,14.4c-.3,1.37-.12,2.56.52,3.56.65,1,1.65,1.65,3.03,1.94l1.1.24c.43.09.84.14,1.24.14.86,0,1.63-.22,2.32-.66,1-.65,1.65-1.65,1.94-3.02l.97-4.53c.3-1.37.94-2.38,1.94-3.03.69-.44,1.46-.66,2.32-.66.39,0,.81.05,1.24.14l69.93,15.07c1.37.3,2.38.94,3.02,1.94.65,1,.82,2.19.52,3.56l-1.68,7.82c-.3,1.37-.94,2.38-1.94,3.03-.69.44-1.46.66-2.32.66-.39,0-.81-.05-1.24-.14l-19.75-4.25c-.35-.07-.68-.11-.99-.11-1.27,0-2.31.6-3.1,1.81l-3.96,5.75c-.39.49-.66,1.06-.8,1.69l-1.92,8.91c-.45,2.1,0,3.3,1.38,3.6.22.05.45.07.7.07.66,0,1.39-.17,2.2-.52.71-.31,1.45-.46,2.22-.46.42,0,.86.05,1.3.14,1.23.27,2.16,1.18,2.78,2.75,2.51,6.09,6.83,13.81,12.95,23.16.63,1.09,1.35,2.18,2.17,3.26.82,1.09,1.1,2.24.83,3.48-.27,1.23-1.1,2.23-2.51,2.98-3.33,1.68-6.54,3.71-9.64,6.1-.9.7-1.8,1.05-2.72,1.05-.26,0-.52-.03-.79-.08-1.19-.26-2.18-.99-2.97-2.22-3.3-5.11-6.25-10.53-8.84-16.25-.83-1.9-1.73-2.96-2.69-3.16-.07-.01-.13-.02-.2-.02-.87,0-1.58,1.27-2.13,3.82l-9.81,45.53c-.3,1.37-.94,2.38-1.94,3.02-.69.44-1.46.66-2.32.66-.39,0-.81-.05-1.24-.14l-10.28-2.22c-1.37-.3-2.38-.94-3.03-1.94-.65-1-.82-2.19-.53-3.56l8.01-37.16c.98-4.57.47-7.07-1.54-7.51-.16-.03-.33-.05-.51-.05-1.3,0-3.22.86-5.77,2.57-3.88,2.9-7.93,5.52-12.17,7.85-.78.45-1.58.67-2.39.67-.32,0-.64-.03-.96-.1-1.14-.25-2.14-1.06-2.99-2.44-.85-1.38-1.73-2.64-2.63-3.79-1.56-2.06-2.85-3.63-3.86-4.71-1.97-2.43-1.55-4.35,1.24-5.76,16.8-8.72,30.93-20.79,42.38-36.21,1.31-1.63,1.71-3.07,1.22-4.33-.5-1.25-1.79-2.11-3.9-2.56l-17.28-3.72c-.43-.09-.84-.14-1.24-.14-.86,0-1.63.22-2.32.66-1,.64-1.65,1.65-1.94,3.02l-1.06,4.94c-.3,1.37-.94,2.38-1.94,3.02-.69.44-1.46.66-2.32.66-.39,0-.81-.05-1.24-.14l-3.98-.86c-.5-.11-.93-.16-1.31-.16-.75,0-1.27.2-1.58.61-.47.62-.45,1.43.05,2.45.5,1.02.96,1.86,1.39,2.52.43.67,1.2,1.96,2.32,3.87,1.12,1.92,2.29,3.82,3.51,5.71,1.99,3.2,3.29,5.16,3.9,5.86,1,1.56.74,2.79-.8,3.7-.67.43-1.54.91-2.61,1.45l-6,3.87c-.56.36-1.09.72-1.6,1.09-.51.37-1.04.73-1.6,1.09-.42.34-.82.51-1.19.51-.53,0-1.01-.36-1.42-1.07l-2.25-4.21c-.38-.71-.72-1.06-1-1.06-.33,0-.59.46-.79,1.39l-10.9,50.6c-.3,1.37-.94,2.38-1.94,3.03-.69.44-1.46.66-2.32.66-.39,0-.81-.05-1.24-.14l-9.46-2.04c-1.37-.3-2.38-.94-3.03-1.94-.65-1-.82-2.19-.53-3.56l6.68-30.99c.47-2.19.39-3.36-.25-3.5-.06-.01-.12-.02-.19-.02-.64,0-1.57.61-2.78,1.82l-1.68,1.79c-.88.89-1.81,1.33-2.79,1.33-.23,0-.47-.03-.71-.08-1.23-.27-2.28-.85-3.14-1.75-.86-.9-1.74-1.81-2.64-2.72-.91-.91-1.67-1.6-2.28-2.07-.62-.47-1.21-.95-1.77-1.46-2.25-2.01-2.23-4.07.04-6.16,9.99-8.66,18.32-18.87,24.97-30.64.88-1.44,1.04-2.74.48-3.91-.56-1.17-1.71-1.95-3.45-2.32l-6.86-1.48c-1.37-.3-2.38-.94-3.03-1.94-.64-1-.82-2.19-.52-3.56l1.77-8.23c.3-1.37.94-2.38,1.94-3.02.69-.44,1.46-.66,2.32-.66.39,0,.81.05,1.24.14l8.91,1.92c.43.09.84.14,1.24.14.86,0,1.63-.22,2.32-.66,1-.65,1.65-1.65,1.94-3.02l3.1-14.4c.3-1.37.94-2.38,1.94-3.02.69-.44,1.46-.66,2.32-.66m0-5c-1.83,0-3.53.49-5.03,1.46-2.12,1.37-3.54,3.5-4.12,6.17l-3.02,14.04-8.55-1.84c-.77-.17-1.54-.25-2.29-.25-1.83,0-3.53.49-5.03,1.46-2.12,1.37-3.54,3.5-4.12,6.17l-1.77,8.23c-.57,2.67-.16,5.2,1.21,7.32,1.37,2.12,3.51,3.55,6.18,4.12l5.99,1.29c-6.25,10.83-14.11,20.38-23.36,28.39l-.06.05-.06.05c-2.77,2.55-3.33,5.14-3.32,6.86.01,1.7.6,4.25,3.34,6.7.65.58,1.35,1.17,2.09,1.72.29.22.83.68,1.75,1.61.88.89,1.75,1.79,2.57,2.65,1.55,1.64,3.47,2.71,5.7,3.19.59.13,1.18.19,1.77.19.36,0,.77-.02,1.21-.09l-5.08,23.6c-.58,2.67-.16,5.2,1.21,7.32,1.37,2.12,3.51,3.55,6.17,4.12l9.46,2.04c.77.17,1.54.25,2.29.25,1.83,0,3.52-.49,5.03-1.46,2.12-1.37,3.55-3.51,4.12-6.18l7.08-32.88c.64.77,1.36,1.68,2.16,2.74l.02.03.02.03c.78,1,1.56,2.12,2.31,3.34,1.97,3.2,4.46,4.32,6.19,4.7.67.14,1.34.22,2.01.22,1.67,0,3.3-.44,4.84-1.31,4.36-2.41,8.6-5.14,12.61-8.13,0,0,.01,0,.02-.01l-7.98,37.02c-.58,2.67-.16,5.2,1.21,7.32,1.37,2.12,3.5,3.54,6.17,4.12l10.28,2.22c.77.17,1.54.25,2.29.25,1.84,0,3.53-.49,5.03-1.47,2.12-1.36,3.54-3.5,4.12-6.17l8.39-38.95c1.91,3.7,3.98,7.28,6.18,10.69,1.9,2.95,4.37,4.02,6.11,4.39.61.13,1.23.2,1.84.2,2.03,0,4.04-.73,5.8-2.11,2.81-2.17,5.78-4.05,8.81-5.58l.05-.03.05-.03c3.43-1.83,4.63-4.45,5.04-6.33.58-2.67-.02-5.28-1.72-7.54-.69-.92-1.3-1.84-1.82-2.74l-.07-.13-.08-.12c-5.91-9.04-10.11-16.54-12.5-22.3-1.67-4.18-4.7-5.4-6.36-5.76-.78-.17-1.57-.25-2.35-.25-.3,0-.59.01-.88.04l1.16-5.4.06-.09,3.62-5.24,19.02,4.1c.77.17,1.54.25,2.29.25,1.83,0,3.53-.49,5.03-1.46,1.48-.95,3.39-2.8,4.12-6.17l1.68-7.82c.57-2.67.16-5.2-1.21-7.32-1.37-2.12-3.5-3.54-6.17-4.12l-69.93-15.07c-.77-.17-1.54-.25-2.29-.25-1.83,0-3.53.49-5.03,1.46-2.12,1.37-3.54,3.5-4.12,6.17l-.9,4.16-.37-.08,3.02-14.03c.58-2.67.16-5.2-1.21-7.32-1.37-2.12-3.5-3.54-6.17-4.12l-9.46-2.04c-.77-.17-1.54-.25-2.29-.25h0Zm16.46,55.91c1.83,0,3.53-.49,5.03-1.46,2.12-1.37,3.54-3.5,4.12-6.17l.99-4.57,16.04,3.46c-5.74,7.6-12.22,14.38-19.38,20.29-.2-.25-1-1.31-3.38-5.17l-.02-.04-.02-.04c-1.16-1.8-2.3-3.66-3.39-5.51-.16-.28-.32-.54-.46-.79.17,0,.33.01.49.01h0Z"/>
        </g>
        <g id="_びっくりコップの影" data-name="びっくりコップの影">
          <path id="_コップ" data-name="コップ" class="cls-4" d="m667.83,219.99c-9.71,0-45.89-24.15-48.9-36.33s2.21-18.86,17.07-20.89c14.86-2.03,46.37,24.89,46.8,35.18.43,10.3-5.26,22.04-14.97,22.04Zm15.09-24.69c-18.4,2.05-46.89-20.11-47.15-35.1-.26-14.98,31.9-70.69,48.8-69.77,16.9.91,48.55,25.6,51.33,38.22,2.78,12.62-34.58,64.6-52.98,66.65Z"/>
          <path id="_取手" data-name="取手" class="cls-4" d="m744.12,158.41l-15.08-13.09-39.14,45.09,15.08,13.09c3.15,2.73,7.91,2.39,10.64-.75l29.25-33.69c2.73-3.15,2.39-7.91-.75-10.64Zm-11.07,9.5l-20.22,23.29c-2.28,2.63-6.26,2.91-8.88.63-2.63-2.28-2.91-6.26-.63-8.88l20.22-23.29c2.28-2.63,6.26-2.91,8.88-.63,2.63,2.28,2.91,6.26.63,8.88Z"/>
          <path id="_空気" data-name="空気" class="cls-2" d="m715.92,150.32s-1.38-4.85-4.85-7.61c-3.46-2.77-9.34-2.77-14.28-6.58-4.93-3.81-6.29-9.17-10.89-13.5-4.6-4.33-16.37-8.13-16.37-8.13l10.56-11.94c2.38-3.18,9.86-7.66,29.19,8.18,19.33,15.84,17.33,23.43,14.94,26.61l-8.31,12.98Z"/>
        </g>
        <g id="_びっくりコップ" data-name="びっくりコップ">
          <path id="_コップ-2" data-name="コップ" class="cls-3" d="m667.83,219.99c-9.71,0-45.89-24.15-48.9-36.33s2.21-18.86,17.07-20.89c14.86-2.03,46.37,24.89,46.8,35.18.43,10.3-5.26,22.04-14.97,22.04Zm15.09-24.69c-18.4,2.05-46.89-20.11-47.15-35.1-.26-14.98,31.9-70.69,48.8-69.77,16.9.91,48.55,25.6,51.33,38.22,2.78,12.62-34.58,64.6-52.98,66.65Z"/>
          <path id="_取手-2" data-name="取手" class="cls-3" d="m744.12,158.41l-15.08-13.09-39.14,45.09,15.08,13.09c3.15,2.73,7.91,2.39,10.64-.75l29.25-33.69c2.73-3.15,2.39-7.91-.75-10.64Zm-11.07,9.5l-20.22,23.29c-2.28,2.63-6.26,2.91-8.88.63-2.63-2.28-2.91-6.26-.63-8.88l20.22-23.29c2.28-2.63,6.26-2.91,8.88-.63,2.63,2.28,2.91,6.26.63,8.88Z"/>
          <path id="_空気-2" data-name="空気" class="cls-1" d="m715.92,150.32s-1.38-4.85-4.85-7.61c-3.46-2.77-9.34-2.77-14.28-6.58-4.93-3.81-6.29-9.17-10.89-13.5-4.6-4.33-16.37-8.13-16.37-8.13l10.56-11.94c2.38-3.18,9.86-7.66,29.19,8.18,19.33,15.84,17.33,23.43,14.94,26.61l-8.31,12.98Z"/>
          <g id="_泡" data-name="泡">
            <path class="cls-1" d="m672.13,130.81c0,1.98-1.61,3.59-3.59,3.59s-3.59-1.61-3.59-3.59,1.61-3.59,3.59-3.59,3.59,1.61,3.59,3.59Z"/>
            <path class="cls-1" d="m690.91,128.04c0,1.53-1.24,2.77-2.77,2.77s-2.77-1.24-2.77-2.77,1.24-2.77,2.77-2.77,2.77,1.24,2.77,2.77Z"/>
            <path class="cls-1" d="m688.53,141.36c0,1.58-1.28,2.86-2.86,2.86s-2.86-1.28-2.86-2.86,1.28-2.86,2.86-2.86,2.86,1.28,2.86,2.86Z"/>
            <path class="cls-1" d="m683.43,131.43c0,3.4-2.76,6.17-6.17,6.17s-6.17-2.76-6.17-6.17,2.76-6.17,6.17-6.17,6.17,2.76,6.17,6.17Z"/>
            <circle class="cls-1" cx="684.42" cy="165.4" r="7.92"/>
            <path class="cls-1" d="m681.87,176.3c0,1.98-1.61,3.59-3.59,3.59s-3.59-1.61-3.59-3.59,1.61-3.59,3.59-3.59,3.59,1.61,3.59,3.59Z"/>
            <path class="cls-1" d="m677.54,158.22c0,1.49-1.21,2.7-2.7,2.7s-2.7-1.21-2.7-2.7,1.21-2.7,2.7-2.7,2.7,1.21,2.7,2.7Z"/>
          </g>
        </g>
        <g id="_かんぱい" data-name="かんぱい">
          <g>
            <path class="cls-3" d="m454.38,22.22c.23-4.25.29-5.76.18-8.12l-1.35.7c-.57.31-1.29.1-1.58-.48-.31-.59-.08-1.32.5-1.61,0,0,1.24-.67,1.91-1.02-.19-.49-.52-1.25-.77-1.84t-.01-.03c-.26-.6,0-1.29.58-1.56.61-.26,1.33,0,1.59.61.24.56.53,1.24.74,1.72.44-.21.43-.22.98-.46,1.83-.84,3.27-.27,4.23,2,.97,2.31,1.9,4.67,2.54,7.07.2.78-.15,1.34-.79,1.53l-1.69.55c-.74.1-1.32-.16-1.51-.78-.21-.63.16-1.28.8-1.48l.58-.19c-.36-1.67-1.09-3.78-1.99-5.78-.32-.74-.75-1.03-1.38-.74-.81.39-.53.27-1.16.62.25,2.85-.04,9.32-.04,9.32,0,.67-.59,1.22-1.25,1.2-.66,0-1.14-.55-1.13-1.22Zm9.06-14.58c.6.29.83,1.02.51,1.6-.3.58-1.02.81-1.6.51-.82-.41-1.71-.83-2.46-1.22-.59-.28-.85-.99-.58-1.57.29-.61.99-.85,1.57-.58.79.38,1.71.83,2.55,1.25Z"/>
            <path class="cls-3" d="m487.3,9.87c.61.44.69,1.28.26,1.93-1,1.46-1.94,2.29-3.29,2.56-2.1.42-3.75-3.53-4.71-3.24-.34.06-.96.78-1.51,1.65l-.49,1.96c-.14.63-.8,1.04-1.43.88-.65-.14-1.04-.78-.88-1.43l3.06-12.89c.16-.63.8-1.04,1.43-.88.65.16,1.04.8.88,1.43l-1.75,7.27c.34-.32.65-.47.95-.5,1.52-.19,3.34,3.4,4.06,3.31.68.11,1.34-.87,1.81-1.61.34-.56,1.06-.8,1.61-.42Z"/>
            <path class="cls-3" d="m495.94,11.93c.08-2.26.98-7.59,1.59-10.14.16-.69.79-1.05,1.46-.88.63.15,1.01.79.86,1.42-.58,2.46-1.22,5.42-1.38,7.75.02,0,.07,0,.09-.02.6-.26,1.31-.02,1.57.6.24.6-.06,1.36-.66,1.61-.31.14-1.54.68-1.87.8-.85.33-1.68-.32-1.67-1.14Zm13.64-.67c-.19.65-.84.99-1.47.82-.28-.08-.84-.25-1.12-.31-.02.16-.16,1.09-.16,1.09-.34,2.02-1.58,2.46-2.94,2.26-1.63-.26-3.06-2.22-2.76-4.21.22-1.48,1.31-2.44,3.3-2.11.2.03.39.06.57.1.17-1.14.37-2.51.57-3.83l-2.53-.38c-.64-.09-1.1-.69-1-1.35.1-.66.71-1.1,1.35-1l2.53.38c.08-.53.15-1.02.21-1.39.1-.64.71-1.1,1.35-1,.66.1,1.11.71,1.02,1.35-.06.37-.13.85-.21,1.39l.91.13c.66.1,1.1.69,1,1.35-.1.66-.69,1.1-1.35,1l-.91-.13c-.2,1.37-.42,2.81-.59,3.99.4.1.93.21,1.42.37.62.24,1,.86.82,1.49Zm-4.93-.02c-.19-.06-.4-.11-.62-.15-.37-.06-.51.03-.56.23-.14.71.29,1.34.7,1.4.18.03.27-.09.31-.37.06-.37.13-.89.16-1.1Zm7.78-9.42c-.13.87-.95,1.46-1.8,1.33-.87-.13-1.46-.93-1.33-1.8.13-.85.93-1.46,1.8-1.33.85.13,1.46.94,1.33,1.8Zm-.87-.15c.05-.37-.22-.74-.59-.8-.39-.06-.74.22-.8.59-.06.39.2.76.59.82.37.06.74-.22.8-.61Z"/>
            <path class="cls-3" d="m520.58,11.1c.56-1.29,1.2-2.5,1.85-3.59.34-.56,1.12-.73,1.67-.37.55.36.71,1.07.37,1.63-.58.98-1.21,2.02-1.67,3.18-.44,1.1-.85,2.09-.99,3.24.31-.04.61-.09.82-.12.65-.05,1.27.38,1.34,1.03.07.66-.46,1.27-1.1,1.35-1.48.16-2.59.37-3.13.03-.87-.36-.7-2.68.85-6.38Zm8.53,2.27c-.03-.66.42-1.23,1.08-1.32.64-.07,1.24.44,1.29,1.09.09,1.47.02,2.7-.19,4.19-.09.67-.71,1.1-1.35.98-.66-.11-1.1-.73-1.01-1.38.18-1.22.22-2.5.18-3.57Z"/>
          </g>
        </g>
      </g>
    </g>
  </g>
</svg>