<?xml version="1.0" encoding="UTF-8"?>
<svg id="map_2" data-name="map2" xmlns="http://www.w3.org/2000/svg" xmlns:xlink="http://www.w3.org/1999/xlink" viewBox="0 0 342.22 176.02">
  <defs>
    <style>
      .cls-1 {
        fill: #3d976a;
      }

      .cls-2 {
        fill: #fff;
      }

      .cls-3 {
        fill: #d76a7a;
        stroke: #d65779;
      }

      .cls-3, .cls-4, .cls-5, .cls-6, .cls-7, .cls-8 {
        stroke-miterlimit: 10;
        stroke-width: 2px;
      }

      .cls-4 {
        stroke: #595757;
        stroke-linecap: round;
      }

      .cls-4, .cls-9, .cls-10 {
        fill: none;
      }

      .cls-11 {
        fill: #dea940;
      }

      .cls-12 {
        fill: #b94522;
      }

      .cls-13 {
        fill: #c14928;
      }

      .cls-14 {
        fill: #946134;
      }

      .cls-15 {
        fill: #3e3a39;
      }

      .cls-16 {
        fill: #ebe9de;
      }

      .cls-17 {
        fill: #519cc2;
      }

      .cls-5 {
        fill: #717071;
        stroke: #888;
      }

      .cls-18 {
        fill: #c34735;
      }

      .cls-19 {
        fill: #eeeeef;
      }

      .cls-20 {
        fill: #d7e9c1;
      }

      .cls-6 {
        fill: #8dc21f;
        stroke: #58a25e;
      }

      .cls-21 {
        fill: #f7f8dd;
      }

      .cls-22 {
        fill: #9e9e9f;
      }

      .cls-10 {
        clip-path: url(#clippath);
      }

      .cls-23 {
        fill: #9ca6be;
      }

      .cls-7 {
        fill: #da492d;
        stroke: #e26f4e;
      }

      .cls-8 {
        fill: #f7b52c;
        stroke: #f29600;
      }
    </style>
    <clipPath id="clippath">
      <rect class="cls-9" width="342.22" height="176.02"/>
    </clipPath>
  </defs>
  <g id="_ミドルアンダー" data-name="ミドルアンダー">
    <g id="_地図" data-name="地図">
      <g class="cls-10">
        <rect class="cls-21" width="342.22" height="176.02"/>
        <path class="cls-23" d="m0,0h101.81v15.76c0,6.58-5.34,11.92-11.92,11.92H0V0h0Z"/>
        <g id="_理科大枠" data-name="理科大枠">
          <rect class="cls-20" x="266.26" y="36.44" width="71.4" height="25.15" rx="11.63" ry="11.63"/>
        </g>
        <g>
          <path class="cls-15" d="m276.65,52.94v-1.26c0-.24-.06-.36-.17-.36-.07,0-.16.05-.29.16-.5.48-1.12.92-1.86,1.33-.23.12-.41.21-.55.27-.2.09-.34.06-.43-.07-.03-.08-.1-.18-.2-.31-.1-.13-.18-.22-.23-.28-.06-.08-.12-.14-.18-.19-.11-.11-.09-.19.05-.24.8-.34,1.51-.74,2.12-1.2.19-.15.27-.27.24-.37-.04-.1-.18-.15-.42-.15h-.5c-.1,0-.18-.03-.24-.09s-.09-.14-.09-.24v-3.14c0-.1.03-.18.09-.24.06-.06.14-.09.24-.09h2.23c.13,0,.2-.07.2-.21s-.07-.21-.2-.21h-3.18c-.1,0-.18-.03-.24-.09-.06-.06-.09-.14-.09-.24v-.47c0-.1.03-.18.09-.24.06-.06.14-.09.24-.09h3.05c.1,0,.18-.03.24-.09.06-.06.09-.14.09-.24v-.2c0-.1.03-.18.09-.24.06-.06.14-.09.24-.09h.76c.1,0,.18.03.24.09.06.06.09.14.09.24v.2c0,.1.03.18.09.24s.14.09.24.09h3.02c.1,0,.18.03.24.09.06.06.09.14.09.24v.47c0,.1-.03.18-.09.24-.06.06-.14.09-.24.09h-3.14c-.14,0-.21.07-.21.21s.07.21.21.21h2.24c.1,0,.18.03.24.09.06.06.09.14.09.24v3.14c0,.1-.03.18-.09.24-.06.06-.14.09-.24.09h-.49c-.25,0-.39.05-.42.15-.04.1.04.22.24.37.65.49,1.36.89,2.12,1.2.14.05.16.13.05.24-.17.13-.33.33-.48.58-.05.07-.1.14-.13.2-.03.06-.08.1-.14.12-.06.02-.12.02-.18-.01-.97-.43-1.81-.99-2.54-1.66-.13-.11-.23-.17-.3-.17-.11,0-.17.12-.17.36v1.29c0,.1-.03.18-.09.24-.06.06-.14.09-.24.09h-.76c-.1,0-.18-.03-.24-.09-.06-.06-.09-.14-.09-.24Zm-1.12-5h.9c.15,0,.22-.07.22-.22s-.07-.22-.22-.22h-.9c-.15,0-.22.07-.22.22s.07.22.22.22Zm0,1.31h.9c.15,0,.22-.07.22-.22s-.07-.22-.22-.22h-.9c-.15,0-.22.07-.22.22s.07.22.22.22Zm2.76-1.31h.93c.15,0,.22-.07.22-.22s-.07-.22-.22-.22h-.93c-.15,0-.22.07-.22.22s.07.22.22.22Zm0,1.31h.93c.15,0,.22-.07.22-.22s-.07-.22-.22-.22h-.93c-.15,0-.22.07-.22.22s.07.22.22.22Z"/>
          <path class="cls-15" d="m285.07,51.97c-.18.17-.36.33-.55.49-.19.15-.34.27-.46.34-.12.08-.21.12-.29.12s-.15-.04-.21-.12c-.06-.08-.12-.14-.16-.19-.04-.05-.09-.11-.13-.16-.05-.05-.1-.09-.15-.13l-.13-.14c-.17-.15-.16-.28.03-.4.65-.43,1.27-.98,1.86-1.66.08-.1.16-.15.25-.15s.17.03.24.08l.6.46c.08.06.12.13.13.21,0,.08-.03.18-.13.3-.1.12-.23.26-.39.43-.16.17-.33.34-.51.51Zm-2.17-6.08v-.63c0-.1.03-.18.09-.24.06-.06.14-.09.24-.09h3.04c.1,0,.18-.03.24-.09.06-.06.09-.14.09-.24v-.26c0-.1.03-.18.09-.24.06-.06.14-.09.24-.09h.86c.1,0,.18.03.24.09.06.06.09.14.09.24v.26c0,.1.03.18.09.24.06.06.14.09.24.09h3.01c.1,0,.18.03.24.09s.09.14.09.24v.63c0,.1-.03.18-.09.24-.06.06-.14.09-.24.09h-8.23c-.1,0-.18-.03-.24-.09-.06-.06-.09-.14-.09-.24Zm3.24,7.42c-.17,0-.26-.12-.28-.35,0-.04,0-.08-.02-.13l-.11-.55s-.02-.08-.03-.12c0-.04-.02-.07-.03-.11-.04-.14.01-.21.15-.21h.41c.15,0,.25-.02.3-.06.06-.04.08-.13.08-.27v-1.38c0-.1-.03-.18-.09-.24-.06-.06-.14-.09-.24-.09h-1.87c-.1,0-.18-.03-.24-.09-.06-.06-.09-.14-.09-.24v-2.49c0-.1.03-.18.09-.24.06-.06.14-.09.24-.09h5.85c.1,0,.18.03.24.09.06.06.09.14.09.24v2.49c0,.1-.03.18-.09.24s-.14.09-.24.09h-1.84c-.1,0-.18.03-.24.09-.06.06-.09.14-.09.24v2.01c0,.43-.14.74-.42.93-.22.15-.56.23-1.02.23h-.52Zm-.26-4.69h2.93c.1,0,.18-.03.24-.09.06-.06.09-.14.09-.24v-.11c0-.1-.03-.18-.09-.24-.06-.06-.14-.09-.24-.09h-2.93c-.1,0-.18.03-.24.09-.06.06-.09.14-.09.24v.11c0,.1.03.18.09.24s.14.09.24.09Zm4.83,4.24c-.79-.55-1.47-1.18-2.04-1.9-.07-.07-.09-.15-.08-.24.01-.08.06-.15.14-.21l.58-.45c.07-.05.15-.08.23-.08s.16.04.24.13c.55.61,1.18,1.15,1.91,1.62.19.11.2.25.04.4-.13.13-.32.35-.57.65-.07.09-.15.14-.23.14s-.15-.02-.21-.06Z"/>
          <path class="cls-15" d="m292.81,51.84l-.21-.75c-.05-.19.02-.3.21-.34l.28-.06c.12-.02.27-.05.45-.1.17-.05.25-.15.25-.32v-1.28c0-.1-.03-.18-.09-.24-.06-.06-.14-.09-.24-.09h-.31c-.1,0-.18-.03-.24-.09-.06-.06-.09-.14-.09-.24v-.6c0-.1.03-.18.09-.24.06-.06.14-.09.24-.09h.31c.1,0,.18-.03.24-.09.06-.06.09-.14.09-.24v-.92c0-.1-.03-.18-.09-.24-.06-.06-.14-.09-.24-.09h-.36c-.1,0-.18-.03-.24-.09-.06-.06-.09-.14-.09-.24v-.59c0-.1.03-.18.09-.24.06-.06.14-.09.24-.09h2.79c.1,0,.18.03.24.09.06.06.09.14.09.24v.59c0,.1-.03.18-.09.24-.06.06-.14.09-.24.09h-.37c-.1,0-.18.03-.24.09-.06.06-.09.14-.09.24v.92c0,.1.03.18.09.24.06.06.14.09.24.09h.22c.1,0,.18.03.24.09.06.06.09.14.09.24v.6c0,.1-.03.18-.09.24-.06.06-.14.09-.24.09h-.22c-.1,0-.18.03-.24.09-.06.06-.09.14-.09.24v.85c0,.1.03.17.09.22.06.05.14.06.24.03l.34-.09s.09-.02.13-.04c.04,0,.08-.02.12-.03.17-.05.25.01.25.18v.74c0,.15-.07.26-.22.31l-.51.17c-.72.24-1.53.48-2.43.73-.19.05-.32-.02-.39-.22Zm2.82.84v-.53c0-.1.03-.18.09-.24.06-.06.14-.09.24-.09h2.08c.1,0,.18-.03.24-.09.06-.06.09-.14.09-.24v-.13c0-.1-.03-.18-.09-.24-.06-.06-.14-.09-.24-.09h-.96c-.1,0-.18-.03-.24-.09-.06-.06-.09-.14-.09-.24v-.53c0-.1.03-.18.09-.24.06-.06.14-.09.24-.09h.96c.1,0,.18-.03.24-.09.06-.06.09-.14.09-.24v-.08c0-.1-.03-.18-.09-.24-.06-.06-.14-.09-.24-.09h-1.24c-.1,0-.18-.03-.24-.09-.06-.06-.09-.14-.09-.24v-4.01c0-.1.03-.18.09-.24.06-.06.14-.09.24-.09h4.51c.1,0,.18.03.24.09.06.06.09.14.09.24v4.01c0,.1-.03.18-.09.24-.06.06-.14.09-.24.09h-1.25c-.1,0-.18.03-.24.09-.06.06-.09.14-.09.24v.08c0,.1.03.18.09.24.06.06.14.09.24.09h1.05c.1,0,.18.03.24.09s.09.14.09.24v.53c0,.1-.03.18-.09.24-.06.06-.14.09-.24.09h-1.05c-.1,0-.18.03-.24.09-.06.06-.09.14-.09.24v.13c0,.1.03.18.09.24.06.06.14.09.24.09h1.55c.1,0,.18.03.24.09.06.06.09.14.09.24v.53c0,.1-.03.18-.09.24s-.14.09-.24.09h-5.65c-.1,0-.18-.03-.24-.09-.06-.06-.09-.14-.09-.24Zm2.23-6.52c.05.05.12.08.21.08s.16-.03.21-.08c.05-.05.08-.13.08-.22v-.11c0-.09-.03-.16-.08-.21-.05-.05-.12-.08-.21-.08s-.16.03-.21.08c-.05.05-.08.12-.08.21v.11c0,.09.03.17.08.22Zm0,1.76c.05.05.12.08.21.08s.16-.03.21-.08c.05-.05.08-.13.08-.22v-.14c0-.09-.03-.16-.08-.21-.05-.05-.12-.08-.21-.08s-.16.03-.21.08c-.05.05-.08.12-.08.21v.14c0,.09.03.17.08.22Zm1.95-1.76c.05.05.12.08.21.08s.16-.03.21-.08c.05-.05.08-.13.08-.22v-.11c0-.09-.03-.16-.08-.21-.05-.05-.12-.08-.21-.08s-.16.03-.21.08c-.05.05-.08.12-.08.21v.11c0,.09.03.17.08.22Zm0,1.76c.05.05.12.08.21.08s.16-.03.21-.08c.05-.05.08-.13.08-.22v-.14c0-.09-.03-.16-.08-.21-.05-.05-.12-.08-.21-.08s-.16.03-.21.08c-.05.05-.08.12-.08.21v.14c0,.09.03.17.08.22Z"/>
          <path class="cls-15" d="m304.36,52.87v-2.16c0-.13-.02-.19-.06-.19s-.08.03-.12.09c-.04.06-.08.13-.13.21-.05.08-.1.16-.16.24-.15.21-.26.31-.32.31s-.11-.02-.16-.07c-.04-.05-.09-.1-.15-.15-.06-.05-.13-.11-.19-.17-.06-.06-.12-.11-.17-.15-.05-.04-.09-.07-.12-.09-.03-.02-.06-.04-.09-.07-.12-.08-.13-.18-.03-.29.27-.27.5-.56.71-.88.21-.32.37-.58.48-.76.13-.24.23-.42.28-.54.06-.12.06-.21.02-.28-.04-.07-.12-.1-.25-.1h-.82c-.1,0-.18-.03-.24-.09-.06-.06-.09-.14-.09-.24v-.63c0-.1.03-.18.09-.24.06-.06.14-.09.24-.09h1.01c.08,0,.14-.03.19-.08s.08-.12.08-.2-.03-.14-.08-.18-.13-.05-.23-.03c-.11.02-.2.04-.29.05-.14.01-.28.03-.41.04-.13.01-.21-.05-.25-.18-.01-.03-.02-.07-.03-.1-.05-.2-.15-.45-.3-.75-.05-.11-.02-.17.1-.18.07,0,.14-.01.21-.02.07,0,.25-.03.54-.07.29-.04.68-.11,1.16-.22.48-.11.85-.22,1.1-.33.25-.11.43-.16.52-.16s.17.05.25.16l.37.6c.05.09.07.17.04.25-.03.08-.08.13-.15.16-.07.03-.14.05-.19.07-.05.02-.12.04-.19.07-.13.04-.27.08-.42.12-.14.04-.24.09-.28.15-.04.06-.06.13-.06.2v.29c0,.1.03.18.09.24s.14.09.24.09h.83c.1,0,.18.03.24.09.06.06.09.14.09.24v.5c0,.17.06.19.17.06.05-.07.11-.1.2-.1s.17.04.28.11c.47.34.76.57.87.68.12.11.2.19.25.23.11.09.11.18,0,.29l-.15.15-.34.38-.14.18c-.04.05-.09.08-.14.08s-.11-.02-.16-.06c-.35-.35-.73-.67-1.14-.96-.15-.11-.17-.24-.05-.37.05-.06.07-.11.05-.15-.02-.04-.07-.06-.15-.06h-.94c-.07,0-.1.03-.1.09s.02.12.06.17c.31.31.64.61.99.89l.37.3c.1.07.1.16,0,.25-.08.08-.12.13-.13.14,0,.01-.02.02-.03.03l-.07.08c-.07.07-.1.12-.08.16.02.03.08.04.19.02.11-.02.25-.04.42-.07.17-.03.37-.06.58-.09.21-.03.42-.07.63-.11.21-.04.39-.06.54-.09.25-.04.37-.15.37-.34v-4.81c0-.1.03-.18.09-.24.06-.06.14-.09.24-.09h.78c.1,0,.18.03.24.09.06.06.09.14.09.24v4.49c0,.09.03.16.08.21.05.05.12.06.19.05.11-.03.22-.06.33-.09l.21-.05c.13-.03.21.03.24.16l.11.83c.03.17-.05.27-.22.32l-.68.15c-.17.04-.26.15-.26.32v2.04c0,.1-.03.18-.09.24-.06.06-.14.09-.24.09h-.78c-.1,0-.18-.03-.24-.09-.06-.06-.09-.14-.09-.24v-1.61c0-.12-.04-.21-.11-.27-.07-.06-.17-.08-.28-.05-.4.07-.74.13-1.01.18-.28.05-.49.09-.63.12s-.27.04-.38.06c-.11.02-.19,0-.26-.04-.07-.05-.11-.11-.12-.2l-.17-.77s-.03-.05-.06,0l-.07.11s-.05.04-.08.02l-.47-.49s-.08-.07-.12-.07-.06.05-.06.15v2.88c0,.1-.03.18-.09.24s-.14.09-.24.09h-.74c-.1,0-.18-.03-.24-.09-.06-.06-.09-.14-.09-.24Zm4.99-6.54c-.35.35-.56.57-.62.65-.06.08-.12.12-.16.12s-.13-.05-.24-.16c-.33-.33-.66-.62-.99-.87-.08-.06-.13-.13-.14-.21-.01-.08.02-.16.09-.23l.51-.55c.07-.07.15-.11.22-.11s.14.02.2.06c.17.13.33.26.48.39.15.13.26.23.33.3.15.13.25.23.31.29.12.11.12.21,0,.32Z"/>
          <path class="cls-15" d="m313.36,53.09c-.11-.22-.27-.46-.48-.73-.03-.03-.06-.07-.08-.09-.02-.03-.05-.06-.07-.1-.11-.12-.09-.21.06-.27,1.39-.54,2.43-1.34,3.1-2.4.23-.37.41-.78.53-1.22.03-.11.02-.2-.04-.28-.06-.07-.15-.1-.26-.1h-2.9c-.1,0-.18-.03-.24-.09-.06-.06-.09-.14-.09-.24v-.76c0-.1.03-.18.09-.24.06-.06.14-.09.24-.09h3.04c.1,0,.18-.03.24-.09.06-.06.09-.14.09-.24v-1.68c0-.1.03-.18.09-.24s.14-.09.24-.09h.9c.1,0,.18.03.24.09.06.06.09.14.09.24v1.68c0,.1.03.18.09.24.06.06.14.09.24.09h3.04c.1,0,.18.03.24.09.06.06.09.14.09.24v.76c0,.1-.03.18-.09.24-.06.06-.14.09-.24.09h-2.89c-.12,0-.21.04-.26.11-.06.07-.07.17-.04.28.23.79.69,1.52,1.38,2.18.64.6,1.38,1.06,2.21,1.39.17.07.19.17.07.3-.25.3-.47.61-.65.93-.09.16-.21.2-.36.13-1.44-.7-2.54-1.65-3.29-2.85-.11-.18-.21-.27-.33-.27s-.22.09-.33.27c-.54.85-1.33,1.62-2.36,2.3-.58.38-.93.57-1.04.57s-.2-.05-.26-.15Z"/>
          <path class="cls-15" d="m325.65,53.08s-.01-.07-.01-.11c0-.04-.01-.08-.03-.12l-.11-.52-.06-.21c-.05-.13,0-.2.14-.2h.73c.14,0,.24-.02.29-.06.06-.04.08-.13.08-.25v-.38c0-.1-.03-.18-.09-.24s-.14-.09-.24-.09h-3.26c-.1,0-.18-.03-.24-.09-.06-.06-.09-.14-.09-.24v-.58c0-.1.03-.18.09-.24s.14-.09.24-.09h3.35c.07,0,.13-.02.17-.07.04-.05.07-.11.07-.18s.02-.13.06-.17c.04-.04.1-.07.18-.07h.12c.08,0,.15-.02.21-.07l.23-.19.15-.14c.1-.09.08-.13-.05-.13h-2.54c-.1,0-.18-.03-.24-.09-.06-.06-.09-.14-.09-.24v-.53c0-.1.03-.18.09-.24.06-.06.14-.09.24-.09h4.42c.12,0,.21.05.28.15l.24.39c.08.14.07.26-.04.37-.09.1-.18.19-.28.27-.15.15-.46.41-.92.79-.19.16-.16.24.09.24h2.76c.1,0,.18.03.24.09.06.06.09.14.09.24v.58c0,.1-.03.18-.09.24-.06.06-.14.09-.24.09h-3.11c-.1,0-.18.03-.24.09-.06.06-.09.14-.09.24v.94c0,.63-.29.99-.86,1.1-.18.03-.37.05-.57.05h-.83c-.15,0-.23-.08-.25-.23Zm-2.7-5.07v-1.84c0-.1.03-.18.09-.24s.14-.09.24-.09h.7c.11,0,.19-.03.22-.09.04-.06.03-.14-.01-.23l-.17-.32s-.06-.09-.09-.13c-.03-.04-.06-.09-.1-.15-.04-.06-.05-.12-.04-.19.02-.07.07-.12.16-.16l.76-.33s.1-.03.17-.03.13.03.18.09c.07.09.14.19.2.29l.33.56c.03.05.05.1.07.14.02.04.05.09.08.14.03.06.03.12,0,.18-.03.06-.08.11-.15.14-.15.07-.15.1.02.1h.65c.13,0,.21-.03.26-.1.05-.07.05-.15,0-.24-.19-.37-.32-.62-.39-.73-.15-.23-.1-.4.14-.5l.75-.26c.05-.02.11-.02.17,0,.06.01.13.07.2.17.11.14.22.33.35.57.13.24.21.38.23.42.02.04.04.1.07.16.03.06.02.13-.01.2-.03.07-.11.12-.23.17-.22.09-.21.14.02.14h.43c.13,0,.21-.04.26-.12.05-.08.09-.16.12-.23.04-.07.08-.15.12-.23l.33-.67c.05-.09.09-.19.13-.28.08-.17.21-.24.39-.2l.83.2c.11.03.19.08.23.16.04.08.04.16,0,.24s-.07.15-.1.21c-.03.06-.06.12-.09.19-.03.06-.07.13-.1.19-.03.06-.07.14-.12.23-.05.09-.05.16-.02.22.04.06.12.09.25.09h.95c.1,0,.18.03.24.09.06.06.09.14.09.24v1.84c0,.1-.03.18-.09.24-.06.06-.14.09-.24.09h-.75c-.1,0-.18-.03-.24-.09-.06-.06-.09-.14-.09-.24v-.69c0-.1-.03-.18-.09-.24-.06-.06-.14-.09-.24-.09h-5.38c-.1,0-.18.03-.24.09-.06.06-.09.14-.09.24v.69c0,.1-.03.18-.09.24-.06.06-.14.09-.24.09h-.72c-.1,0-.18-.03-.24-.09s-.09-.14-.09-.24Z"/>
        </g>
        <rect id="_運河" data-name="運河" class="cls-17" x="-4.48" y="77.66" width="362.87" height="15.82"/>
        <rect id="_浮き橋" data-name="浮き橋" class="cls-14" x="113.11" y="75.03" width="14.34" height="21.12" rx="4.02" ry="4.02"/>
        <rect id="_浮き橋-2" data-name="浮き橋" class="cls-14" x="28.11" y="75.03" width="14.34" height="21.12" rx="4.02" ry="4.02"/>
        <g>
          <path class="cls-2" d="m279.35,84.5v-.21h-1.05c-.49,0-.9-.39-.9-.88s.41-.9.9-.9h1.04v-.76l-.59.15c-.49.15-1.02-.07-1.16-.56-.14-.49.15-1.01.64-1.15l2.79-.88c.66-.14,1.04.14,1.18.63.15.49-.13,1.01-.63,1.15l-.36.1v1.32h.67c.49,0,.88.39.88.9s-.39.88-.88.88h-.67v.15s1.29.81,1.29.81c.38.31.45.88.13,1.26-.24.31-.64.41-.99.28-.04-.03-.39-.21-.42-.22v4.01c0,.5-.42.92-.92.92s-.94-.42-.94-.92v-3.7l-.88.78c-.35.35-.91.35-1.26,0-.35-.34-.35-.94,0-1.27l2.16-1.89Zm6.05-3.14v5.08c0,.52-.41.94-.92.94s-.92-.42-.92-.94v-5.08c0-.52.42-.92.92-.92s.92.41.92.92Zm1.93,10.35h-1.26c-.5,0-.92-.42-.92-.94s.42-.92.92-.92h.34v-9.97c0-.5.42-.92.92-.92s.94.42.94.92v10.91h-.01c0,.5-.42.92-.92.92Z"/>
          <path class="cls-2" d="m290.93,85.65l1.53-1.86v-.13h-.38c-.52,0-.94-.42-.94-.92s.42-.92.94-.92h.38v-1.37c0-.49.41-.9.9-.9s.9.41.9.9v1.37h.27c.52,0,.92.41.92.92s-.41.92-.92.92h-.27v.11l.95.92c.34.32.35.84.03,1.18-.27.28-.66.32-.98.15v4.54c0,.49-.41.9-.9.9s-.9-.41-.9-.9v-4.15l-.24.28c-.28.36-.81.41-1.16.13-.36-.29-.42-.83-.13-1.18Zm6.98-.11v3.59c.49-.35,1.02-.17,1.25.21.27.43.14,1.12-.31,1.39l-1.36.79c-.45.27-1.01.14-1.28-.31-.1-.15-.17-.32-.15-.5-.01-.06,0-10.72,0-10.72,0-.49.38-.92.92-.92h3.66c.52,0,.94.42.94.94v4.54c-.01.52-.43.87-.94.92-.85.1-1.68.1-2.73.08Zm0-4.05h1.81v-.57h-1.81v.57Zm0,2.2c.62.04,1.11,0,1.81-.01v-.59h-1.81v.6Zm2.9,6.74l-2.62-3.28c-.31-.39-.25-.98.15-1.3.41-.31.98-.25,1.3.15l2.54,3.1h.07c.55,0,.91.52.87,1.02-.04.55-.48.91-.98.91h-.28c-.38-.01-.77-.24-1.05-.6Zm1.93-4.97c.31.42.22.99-.2,1.3l-.64.48c-.41.31-1,.21-1.29-.2-.31-.42-.22-1,.2-1.3l.64-.48c.41-.31.99-.21,1.29.2Z"/>
          <path class="cls-2" d="m316.39,90.69c.01.5-.36.94-.88.97-2.61.18-6.85.2-9.66-.73-.49-.15-.7-.7-.55-1.18.14-.46.59-.64,1.02-.59l.56-1.75h-.18c-.52,0-.92-.42-.92-.92,0-.32.17-.62.42-.77l.55-1.51h-.41c-.52,0-.92-.41-.92-.92s.41-.92.92-.92h1.68c.71,0,1.11.6.81,1.37l-.67,1.83c.71.04.98.63.76,1.37l-.85,2.63c2.45.43,5.31.38,7.3.24.52-.03,1.04.31,1.04.88Zm-9.01-11.59c.52,0,.92.42.92.94v.8c0,.5-.41.92-.92.92s-.92-.42-.92-.92v-.8c0-.52.42-.94.92-.94Zm4.48,8.39v-.22c-.39-.01-.7-.06-1.23-.11-.5-.11-.7-.36-.7-.81v-2.58c0-.43.32-.78.76-.78.01,0,1.18-.01,1.18-.01v-.29h-1.54c-.36,0-.66-.29-.66-.66s.29-.66.66-.66h1.54v-.2c0-.52.48-.81.9-.81s.85.35.88.81v.2h1.48c.36,0,.66.29.66.66s-.29.66-.66.66h-1.48v.29h1.26c.48.03.73.39.73.8v2.58c0,.42-.29.71-.76.78-.62.07-.77.1-1.23.11v.25h1.76c.38,0,.67.29.67.66s-.29.66-.67.66h-1.76v.13c0,.41-.36.83-.88.83-.53-.01-.9-.38-.9-.83v-.13h-1.98c-.38,0-.67-.29-.67-.66s.29-.66.67-.66h1.98Zm4.58-7.72v.49c0,.46-.38.91-.84.91s-.84-.28-.85-.85h-3.75c-.04.57-.39.85-.84.85-.48,0-.85-.45-.85-.91v-.49c0-.52.42-.83.81-.85,1.25-.03,5.5-.01,5.5-.01.57.04.83.52.83.87Zm-5.06,4.78h.63v-.39h-.63v.39Zm.63,1.5v-.42h-.63v.41c.15,0,.43.01.63.01Zm1.5-1.5h.64v-.39h-.64v.39Zm0,1.48c.17-.01.46-.03.64-.04v-.36h-.64v.41Z"/>
          <path class="cls-2" d="m319.52,89.38l1.12-2.13c.22-.46.77-.64,1.23-.42.46.22.64.78.42,1.23l-1.11,2.14c-.22.46-.78.64-1.23.42-.46-.22-.66-.78-.43-1.25Zm.03-8.14c0-.52.41-.92.92-.92h.66c.5,0,.92.41.92.92s-.42.92-.92.92h-.66c-.52,0-.92-.42-.92-.92Zm0,2.94c0-.52.41-.92.92-.92h.66c.5,0,.92.41.92.92s-.42.92-.92.92h-.66c-.52,0-.92-.42-.92-.92Zm10.41-4.83c.5,0,.92.39.92.91,0,.64-.41.9-.85.94h-.34s.01,8.03.01,9.54c0,.52-.41.92-.91.94h-1.18c-.5,0-.92-.41-.92-.91s.41-.94.91-.94h.25v-8.63h-3.89c-.52,0-.94-.41-.94-.92s.42-.92.94-.92h6Zm-6.62,7v-2.7c0-.42.28-.8.78-.83h2.31c.53,0,.83.34.83.83v2.7c0,.45-.34.8-.77.84-.87.04-1.26.08-2.31,0-.46-.04-.84-.38-.84-.84Zm1.62-.76c.21,0,.43,0,.66-.01v-1.12h-.66v1.13Z"/>
        </g>
        <path class="cls-22" d="m241.98,174.56h-5.14c-2.97,0-5.37-2.4-5.37-5.37.03-10.89.07-35.8-.01-50.98-.11-19.85-1.3-40.27-6.02-51.44-3.8-8.99-32.89-44.4-44.11-57.89-1.74-2.09-.25-5.26,2.47-5.26h4.66c2.61,0,5.1,1.1,6.86,3.03,9.42,10.36,39.86,44.5,45.3,58.77,6.45,16.92,6.45,33.57,6.45,52.79v51.26c0,2.81-2.28,5.09-5.09,5.09Z"/>
        <rect class="cls-22" x="-4.48" y="117.16" width="235.94" height="9.44"/>
        <rect class="cls-22" x="-18.3" y="42.13" width="238.83" height="11.57" rx="5.47" ry="5.47"/>
        <path class="cls-22" d="m267.01,19.87l-20.43,4.8c-2.53.59-5.12.89-7.72.89h-35.91c-.73,0-1.41-.35-1.84-.93l-5.89-8.01c-1.11-1.51-.03-3.64,1.84-3.64h36.28s.08,0,.12,0l17.74-.95c.87-.05,1.74.03,2.59.23l13.22,3.16c2.35.56,2.34,3.91,0,4.46Z"/>
        <path id="_線路メインライン" data-name="線路メインライン" class="cls-4" d="m207.09,3.62s25.27,11.07,45.43,51.09c20.15,40.01,18.93,59.7,18.93,59.7v58.72"/>
        <line class="cls-4" x1="215.85" y1="4.52" x2="210.97" y2="10.34"/>
        <line class="cls-4" x1="225.07" y1="11.34" x2="220.19" y2="17.11"/>
        <line class="cls-4" x1="233.35" y1="19.17" x2="227.89" y2="25.11"/>
        <line class="cls-4" x1="240.82" y1="29.39" x2="234.97" y2="33.39"/>
        <line class="cls-4" x1="248.04" y1="39.68" x2="241.6" y2="44.07"/>
        <line class="cls-4" x1="253.55" y1="48.95" x2="246.82" y2="52.84"/>
        <line class="cls-4" x1="251.84" y1="62.3" x2="258.24" y2="58.61"/>
        <line class="cls-4" x1="256.77" y1="72.03" x2="264.26" y2="69.41"/>
        <line class="cls-4" x1="260.56" y1="82.9" x2="268.13" y2="80.44"/>
        <line class="cls-4" x1="264.34" y1="92.9" x2="271.84" y2="91.15"/>
        <line class="cls-4" x1="266.74" y1="103.44" x2="275.08" y2="102.49"/>
        <line class="cls-4" x1="266.26" y1="172.08" x2="275.55" y2="172.08"/>
        <rect id="_運河駅枠" data-name="運河駅枠" class="cls-5" x="252.52" y="114.41" width="37.85" height="52.09" rx="11.63" ry="11.63"/>
        <g>
          <path class="cls-19" d="m268.16,129.67c0,.83,1.53,1.25,4.59,1.25,2.6,0,4.42-.08,5.46-.24.2-.02.27.07.21.27-.17.51-.26.87-.28,1.09-.02.21-.04.35-.05.4-.03.25-.16.38-.4.38h-4.94c-1.11,0-1.95-.04-2.52-.13-1.18-.17-2.05-.48-2.61-.91-.11-.08-.22-.12-.34-.12s-.22.03-.31.09l-1.16.72-.39.2c-.07.04-.16.06-.26.06s-.2-.09-.28-.26l-.54-1.36c-.08-.21-.02-.35.19-.42l.33-.12c.33-.11.68-.25,1.04-.41.16-.08.24-.21.24-.41v-2.77c0-.15-.04-.27-.13-.36s-.21-.13-.36-.13h-.57c-.15,0-.27-.05-.36-.13-.09-.09-.14-.21-.14-.36v-.92c0-.15.05-.27.14-.36.09-.09.21-.13.36-.13h2.58c.15,0,.27.04.36.13.09.09.13.21.13.36v4.62Zm4.09.57c0-.25-.12-.38-.37-.38h-2.64c-.15,0-.27-.05-.36-.14-.09-.09-.13-.21-.13-.36v-.54c0-.15.04-.27.13-.36.09-.09.21-.13.36-.13h2.84c.12,0,.18-.06.18-.19s-.06-.19-.18-.19h-2.55c-.15,0-.27-.05-.36-.13-.09-.09-.13-.21-.13-.36v-3.69c0-.15.04-.27.13-.36.09-.09.21-.13.36-.13h2.54c.13,0,.19-.07.19-.2s-.06-.2-.19-.2h-2.06c-.17,0-.25-.08-.25-.25s-.08-.25-.24-.25h-.95c-.21,0-.32-.1-.32-.31,0-.09-.02-.15-.06-.17-.04-.02-.1,0-.17.07-.08.07-.14.13-.2.19l-.23.22c-.11.1-.21.2-.29.29-.08.09-.17.13-.26.13s-.18-.05-.27-.15c-.12-.17-.33-.4-.62-.69l-.66-.66c-.14-.12-.27-.23-.39-.34-.25-.25-.25-.48-.02-.7l.81-.75c.09-.09.19-.13.3-.13s.2.03.27.09c.15.12.27.21.36.29.24.22.49.45.75.69l.34.35c.08.08.16.12.23.12s.1-.08.1-.25v-.68c0-.15.04-.27.14-.36.09-.09.21-.14.36-.14h8.71c.15,0,.27.05.36.14.09.09.13.21.13.36v1.92c0,.15-.04.27-.13.36-.09.09-.21.13-.36.13h-.73c-.17,0-.25.08-.25.25s-.08.25-.24.25h-1.82c-.13,0-.19.07-.19.2s.06.2.19.2h2.57c.15,0,.27.04.36.13.09.09.14.21.14.36v3.69c0,.15-.04.27-.14.36-.09.09-.21.13-.36.13h-2.57c-.13,0-.19.06-.19.19s.06.19.19.19h3.16c.15,0,.27.04.36.13s.13.21.13.36v.54c0,.15-.04.27-.13.36-.09.09-.21.14-.36.14h-2.98c-.25,0-.37.12-.37.38s-.13.38-.37.38h-1.22c-.25,0-.37-.12-.37-.38Zm-1.86-8.81h1.65c.14,0,.21-.07.21-.22s-.07-.22-.21-.22h-1.65c-.15,0-.23.07-.23.22s.08.22.23.22Zm.81,3.62h.83c.15,0,.22-.08.22-.23s-.07-.23-.22-.23h-.83c-.16,0-.24.08-.24.23s.08.23.24.23Zm0,1.59h.83c.15,0,.22-.08.22-.23s-.07-.23-.22-.23h-.83c-.16,0-.24.08-.24.23s.08.23.24.23Zm3.24-5.21h1.39c.14,0,.21-.07.21-.22s-.07-.22-.21-.22h-1.39c-.15,0-.22.07-.22.22s.07.22.22.22Zm.01,3.62h.86c.15,0,.22-.08.22-.23s-.08-.23-.22-.23h-.86c-.16,0-.24.08-.24.23s.08.23.24.23Zm0,1.59h.86c.15,0,.22-.08.22-.23s-.08-.23-.22-.23h-.86c-.16,0-.24.08-.24.23s.08.23.24.23Z"/>
          <path class="cls-19" d="m266.75,141.09c-.22-.18-.55-.41-1-.69-.5-.3-.84-.5-1.02-.58-.31-.16-.38-.39-.21-.69l.61-1.05c.1-.16.24-.24.41-.24.09,0,.22.05.4.14.17.09.32.17.43.22l1.04.58c.11.07.21.14.31.2.09.06.19.12.28.18.19.12.21.29.08.5-.07.09-.14.19-.21.31-.07.12-.15.24-.23.36-.08.12-.16.25-.24.38l-.18.3c-.05.11-.12.17-.2.17s-.17-.03-.25-.08Zm-.66,6.62l-1.17-.75c-.27-.18-.31-.42-.13-.71.82-1.3,1.44-2.6,1.86-3.89.06-.21.17-.31.31-.31.1,0,.23.06.4.18.17.12.29.21.38.25l.62.41c.21.13.28.31.21.54-.45,1.42-1.05,2.79-1.8,4.12-.09.17-.2.25-.32.25s-.24-.04-.35-.1Zm7.89.19c-.23,0-.37-.12-.41-.36l-.04-.36c-.04-.27-.12-.66-.25-1.18-.06-.21.01-.32.22-.32h1.12c.21,0,.36-.03.44-.1.08-.06.13-.19.13-.38v-7.86c0-.15-.04-.27-.13-.36-.09-.09-.21-.13-.36-.13h-5.76c-.18,0-.27-.09-.27-.27,0-.16-.04-.18-.12-.06-.31.44-.51.74-.61.9-.09.16-.2.24-.31.24s-.2-.02-.26-.07c-.07-.05-.13-.1-.21-.16-.08-.05-.18-.13-.31-.22-.54-.36-1.03-.65-1.46-.87-.31-.16-.37-.38-.2-.67l.63-1.04c.09-.16.2-.24.32-.24s.26.04.41.12c.45.22.8.41,1.04.55.24.15.4.25.47.29.07.04.14.08.21.13.07.05.14.08.2.08.12,0,.18-.09.18-.29,0-.31.16-.46.47-.46h8.73c.15,0,.27.04.36.13.09.09.13.21.13.36v1.08c0,.14-.04.25-.12.34-.08.09-.19.13-.33.13s-.25.04-.34.12c-.09.08-.13.19-.13.33v8.88c0,.94-.43,1.49-1.29,1.65-.27.05-.55.08-.85.08h-1.32Zm-5.05-4.38v-4.89c0-.15.04-.27.13-.36.09-.09.21-.13.36-.13h4.23c.15,0,.27.04.36.13.09.09.13.21.13.36v4.89c0,.15-.04.27-.13.36-.09.09-.21.13-.36.13h-4.23c-.15,0-.27-.05-.36-.13-.09-.09-.13-.21-.13-.36Zm2.55-1.41h.12c.15,0,.27-.04.36-.13.09-.09.13-.21.13-.36v-1.08c0-.15-.04-.27-.13-.36-.09-.09-.21-.13-.36-.13h-.12c-.15,0-.27.04-.36.13-.09.09-.13.21-.13.36v1.08c0,.15.04.27.13.36.09.09.21.13.36.13Z"/>
          <path class="cls-19" d="m264.31,160.92c0-.08.01-.16.01-.24v-1.17c0-.08-.01-.15-.01-.21v-.2c-.01-.11.02-.21.08-.29.07-.08.15-.13.26-.15l.33-.04c.12-.02.22,0,.3.07.08.07.12.14.13.23,0,.17,0,.31.03.42l.04,1.49c0,.18-.1.28-.3.3h-.13c-.05,0-.1,0-.15.01l-.32.03c-.19.03-.28-.05-.28-.25Zm2.55.71l-.02-.08-.04-.13s0-.05-.01-.06c-.05-.17.01-.25.2-.25h.67c.25,0,.46-.03.62-.09.15-.04.26-.21.34-.51l.04-.21s0-.06-.06-.06l-.24.06c-.06,0-.1,0-.11-.06-.02-.14-.04-.29-.06-.44-.02-.16-.05-.3-.08-.45-.04-.14-.06-.27-.08-.37l-.08-.27c-.03-.12-.02-.23.03-.32.05-.09.13-.16.25-.19l.22-.06c.11-.03.19.01.24.13l.11.39c.02.07.04.11.05.11.02,0,.02-.04.02-.11l.05-.54c0-.16-.08-.24-.24-.24h-3.45c-.15,0-.27-.04-.36-.14-.09-.09-.13-.21-.13-.36v-7.33c0-.15.05-.27.13-.36.09-.09.21-.13.36-.13h5.28c.15,0,.27.04.36.13.09.09.14.21.14.36v.73c0,.15-.05.27-.14.36-.09.09-.21.13-.36.13h-.87c-.19,0-.29.1-.29.29s.09.29.29.29h.34c.15,0,.27.05.36.13.09.09.13.21.13.36v.57c0,.15-.04.27-.13.36-.09.09-.21.13-.36.13h-.34c-.19,0-.29.09-.29.28s.09.28.29.28h.34c.15,0,.27.04.36.13.09.09.13.21.13.36v.57c0,.15-.04.27-.13.36-.09.09-.21.13-.36.13h-.31c-.21,0-.32.11-.32.32s.1.31.32.31h.75c.15,0,.27.05.36.14.09.09.13.21.13.36-.05,1.78-.25,3.32-.58,4.61-.16.63-.42,1.06-.79,1.3-.37.24-.87.36-1.5.36h-.69c-.19,0-.3-.1-.33-.3-.01-.05-.02-.1-.02-.14,0-.05-.01-.09-.02-.14l-.12-.71Zm-1.09-1c-.01-.07-.02-.14-.02-.21s0-.15-.01-.23l-.08-.87c0-.12-.03-.22-.04-.31-.02-.22.08-.35.29-.38l.29-.04c.23-.03.36.07.39.3l.06.33.14,1.26c0,.16-.08.25-.23.29l-.24.03-.27.06c-.18.03-.27-.04-.27-.22Zm1.12-8.78h.45c.19,0,.29-.09.29-.29s-.09-.29-.29-.29h-.45c-.19,0-.29.1-.29.29s.09.29.29.29Zm0,2.12h.46c.18,0,.27-.09.27-.28s-.09-.28-.27-.28h-.46c-.19,0-.29.09-.29.28s.09.28.29.28Zm.03,2.19h.39c.21,0,.31-.1.31-.31s-.1-.32-.31-.32h-.39c-.21,0-.31.11-.31.32s.1.31.31.31Zm.12,4.34c0-.09,0-.18-.01-.27-.01-.09-.02-.19-.03-.3l-.12-.8c-.02-.14-.04-.25-.06-.33-.05-.19.03-.31.24-.35l.24-.05c.22-.03.36.06.41.27.02.05.03.1.04.16,0,.05.02.11.04.17l.13.76c.02.1.03.19.04.28,0,.08.02.17.03.25.02.08-.03.14-.13.16l-.51.09-.15.05c-.08.02-.13-.02-.15-.11Zm4.45,2.22l-.45-.23s-.04-.02-.05-.02c-.02,0-.03-.01-.05-.02l-.23-.1s-.04-.02-.06-.02c-.17-.05-.28-.13-.32-.25-.04-.12-.02-.24.04-.37.69-1.3,1.07-2.98,1.14-5.05.02-.59.03-1.17.03-1.75v-4.84c0-.15.04-.27.13-.36.09-.09.21-.13.36-.13h5.27c.15,0,.27.04.36.13.09.09.14.21.14.36v5.21c0,.15-.04.27-.14.36-.09.09-.21.14-.36.14h-.84c-.17,0-.3.05-.38.15-.08.1-.12.23-.1.39.36,2.01,1.17,3.66,2.43,4.95.24.24.21.46-.07.65-.08.05-.15.1-.22.16-.07.05-.14.11-.23.17-.09.07-.22.18-.37.32-.16.14-.31.22-.44.22s-.24-.04-.33-.14c-1.54-1.54-2.43-3.75-2.67-6.63-.02-.16-.11-.24-.26-.24s-.23.08-.23.24c-.02,1.29-.1,2.32-.25,3.08-.27,1.43-.67,2.59-1.18,3.5-.09.16-.2.24-.33.24s-.24-.03-.33-.09Zm2.59-8.81h1.17c.15,0,.27-.04.36-.13.09-.09.13-.21.13-.36v-1.51c0-.15-.04-.27-.13-.36-.09-.09-.21-.13-.36-.13h-1.17c-.15,0-.27.04-.36.13-.09.09-.14.21-.14.36v1.51c0,.15.05.27.14.36.09.09.21.13.36.13Z"/>
        </g>
        <rect id="_しんかわ枠" data-name="しんかわ枠" class="cls-8" x="7.62" y="130.47" width="72.23" height="28.69" rx="11.63" ry="11.63"/>
        <g>
          <path class="cls-2" d="m18.91,136.44v-.92h5.37c-.04-.1-.08-.18-.1-.23-.07-.13-.19-.33-.37-.61.35.1.62.22.81.35.19.13.41.34.66.62-.15.11-.3.23-.44.35.03.12.04.27.04.44-.09,1.85-.63,3.18-1.61,4.01-.98.83-2.31,1.2-3.98,1.13.88-.46,1.61-.93,2.18-1.42.57-.49.98-1.12,1.23-1.9.25-.78.37-1.38.36-1.82h-4.15Zm5.81-2.08c.34.1.61.22.81.34.19.13.41.33.66.63-.25.18-.5.38-.73.61-.18-.52-.3-.84-.37-.97-.07-.13-.19-.33-.36-.61Z"/>
          <path class="cls-2" d="m33.77,135.44c0,.6-.21.91-.62.91h-5.35v-.91h5.97Zm-5.97,2.55v-.92h5.36c.47,0,.67.31.61.92-.15,1.12-.7,1.98-1.65,2.59-.95.6-2.27.94-3.94,1,.97-.56,1.82-1.12,2.55-1.69.73-.56,1.09-1.2,1.09-1.9h-4.02Z"/>
          <path class="cls-2" d="m36.79,139l-1.09.39c-.03-.6-.07-1.07-.12-1.38-.05-.32-.12-.65-.19-1,.38.19.68.48.89.86.21.38.38.76.51,1.13Zm1.62-2.28h1.61c0,1.6-.31,2.76-.92,3.49-.6.73-1.75,1.14-3.45,1.22.99-.62,1.71-1.23,2.14-1.84.44-.6.64-1.56.62-2.87Zm-.36,1.97l-1.08.39c-.03-.6-.08-1.07-.15-1.38-.07-.32-.14-.65-.21-1,.38.19.68.48.91.86.23.38.4.76.52,1.13Z"/>
          <path class="cls-2" d="m42.08,136.39v-.92h4.71c.41-.03.62.27.62.92-.07.73-.44,1.51-1.11,2.33.73.34,1.43.8,2.08,1.37l-1.1,1.64c-.4-1-.88-1.77-1.43-2.32-1.42,1.38-2.8,2.1-4.16,2.16.8-.66,1.55-1.41,2.26-2.25.71-.84,1.27-1.82,1.68-2.94h-3.55Z"/>
          <path class="cls-2" d="m49.99,139.1v-3.84h1.62v3.84h-1.62Zm1.57,2.48c.8-.52,1.39-1.06,1.74-1.64.36-.58.53-2.14.51-4.68h1.71c.05,2.87-.26,4.65-.93,5.34-.67.69-1.68,1.02-3.04.99Z"/>
          <path class="cls-2" d="m63.02,137.46c0,.6-.21.91-.63.91h-5.22v-.91h5.84Z"/>
        </g>
        <g>
          <path class="cls-2" d="m25.66,152.56c.41-.76.7-2.02.88-3.8.64.46,1.08,1.02,1.33,1.66.24.64.36,1.22.36,1.74-.03,1.09-.37,1.83-1.01,2.22-.64.39-1.8.59-3.48.59s-2.88-.26-3.6-.77c-.72-.51-1.09-1.6-1.13-3.27v-5.95h2.49v5.97c0,1.8.73,2.68,2.19,2.63.9-.01,1.55-.35,1.97-1.02Z"/>
          <path class="cls-2" d="m35.25,148.36c2.07-.01,3.02,1,2.85,3.03-.17,1.22-.08,1.84.25,1.85.3.03.54-.19.71-.64.18-.45.16-1.55-.07-3.3,1.36.6,2.1,1.53,2.22,2.79.12,1.75-.8,2.63-2.77,2.63-2.18.01-3.12-1.08-2.84-3.28.03-1.21-.25-1.77-.86-1.69-.73,2.32-1.21,3.98-1.44,4.98h-2.62c1.28-4.03,2.42-7.35,3.4-9.95l2.44.24c-.62,1.55-1.04,2.67-1.28,3.36Z"/>
          <path class="cls-2" d="m43.77,154.12c.49-1.08.87-2.12,1.14-3.13.28-1.02.5-2.01.66-3l-1.71.16v-1.41l1.96-.16c.12-.89.19-1.55.22-1.99l2.42.32c-.07.33-.13.84-.2,1.51,2.44-.16,3.55,1.26,3.33,4.26-.1,1.13-.31,2.09-.64,2.88-.33.79-.94,1.18-1.83,1.18-.51-.01-.94-.24-1.3-.67-.36-.43-.58-1.03-.67-1.8.63.4,1.06.55,1.28.45.22-.1.38-.4.49-.91.1-.5.21-1.29.31-2.36.11-1.07-.3-1.61-1.2-1.62-.35,2.08-.96,4.39-1.81,6.91l-2.45-.62Zm7.25-9.51c1.39.85,2.37,2.02,2.92,3.52.55,1.5.9,2.85,1.04,4.06l-2.82.3c.06-1.35,0-2.61-.15-3.77-.15-1.16-.49-2.53-1-4.11Z"/>
          <path class="cls-2" d="m62.14,144.76v1.77c.59-.74,1.48-1.15,2.68-1.21,1.2-.07,2.11.33,2.73,1.2.62.87.92,2.04.91,3.51-.03,3.01-.93,4.57-2.69,4.68-.98.01-1.83-.23-2.54-.72,1.91-.64,2.85-1.94,2.8-3.9,0-1.3-.19-2.16-.57-2.58-.38-.42-.91-.53-1.59-.35-.68.19-1.26.7-1.73,1.53v6.01h-2.49v-3.54c-.58.89-1.2,1.83-1.87,2.83l-.26-2.87c.7-.62,1.41-1.33,2.14-2.11v-1.41h-2.19v-1.39h2.19v-1.45h2.49Z"/>
        </g>
        <rect id="_松まる枠" data-name="松まる枠" class="cls-8" x="122.77" y="9.37" width="60.41" height="28.69" rx="11.63" ry="11.63"/>
        <g>
          <path class="cls-2" d="m133.66,15.41c.57-.13,1.07-.31,1.51-.51.44-.21.78-.44,1.04-.69.27-.21.52-.3.76-.25h1.49c-.09.09-.16.16-.2.2.46.12,1.02.22,1.68.32.66.1,1.32.17,1.97.23l-.29,1.5c-.1-.03-.24-.08-.4-.16.12.1.18.27.18.51v.96c0,.29-.04.48-.13.59l.51.39c-.33.4-.77.63-1.32.68.36.19.94.39,1.74.62l-1.74.86c-.97-.32-2.09-1.11-3.37-2.37h-1.12v1.36c.8-.03,1.48-.11,2.03-.25-.21.6-.66.96-1.35,1.08-.69.12-1.63.18-2.82.16l-.07-.87c.27,0,.45-.02.54-.03v-3.18c0-.18.06-.33.18-.47-.4-.04-.68-.27-.83-.67Zm5.06-.13v.64h2.14c-.09-.03-.33-.1-.74-.22-.4-.12-.81-.26-1.24-.43-.42-.17-.79-.35-1.1-.57-.76.64-1.56,1.05-2.41,1.22h1.67v-.64h1.67Zm-2.74,1.38v.25h3.75v-.25h-3.75Zm3.75.88v-.25h-3.75v.25h3.75Zm-.96.74c.22.19.52.37.89.55.22-.21.36-.39.4-.55h-1.29Z"/>
          <path class="cls-2" d="m151.74,18v.2h.38c0,.6-.13.87-.38.83v.23c0,.46-.19.7-.58.7h-2.32c0,.46-.2.7-.6.7h-1v-.7h-2.9v-.75h2.9v-.27h-3.28v-.59h3.28v-.27h-2.9v-.76h2.9v-.25h-2.27c-.42,0-.62-.21-.62-.64v-.53c0-.44.21-.66.62-.66h2.27v-.21h-3.14v-.79h3.14v-.28h1.61v.28h3.14c0,.53-.17.79-.51.79h-2.63v.21h2.3c.4,0,.6.22.6.66v.53c0,.43-.2.64-.6.64h-2.3v.25h2.34c.39,0,.57.24.56.68Zm-5.78-1.7h1.27v-.29h-1.27v.29Zm4.17,0v-.29h-1.29v.29h1.29Zm-1.27,1.78v.27h1.27v-.27h-1.27Zm0,.86v.27h1.27v-.27h-1.27Z"/>
          <path class="cls-2" d="m156.14,14c0,.17,0,.32-.02.44h1.18c.39,0,.58.22.58.66.02,1.5-.19,2.76-.6,3.77.15.12.32.24.51.33.25-.71.38-2.04.38-3.97v-.33c0-.51.19-.76.56-.76h2.43c.4,0,.59.25.58.76v3.02c0,.45.12.67.36.67h.13c0,.62-.2.94-.6.94h-.25c-.79,0-1.18-.54-1.18-1.61v-2.86h-.49v.16c0,1.74-.17,2.88-.51,3.42-.22.37-.53.62-.92.76.21.06.44.11.69.15.73.11,1.81.16,3.23.15.01.67-.27.99-.85.95-1.58.02-2.66-.07-3.27-.25-.6-.19-1.03-.43-1.28-.74-.3.48-.71.78-1.25.89-.54.11-1.03.14-1.49.09.86-.49,1.44-1.16,1.74-1.99-.15-.37-.29-.85-.42-1.45-.22.53-.65.79-1.29.8.25-1.24.42-2.59.51-4.05l1.54.05Zm-.18,1.39c-.03.29-.09.6-.18.91.1.42.22.73.36.94.12-.58.19-1.2.22-1.85h-.4Z"/>
        </g>
        <g>
          <path class="cls-2" d="m137.9,23.97v1.38h1.58c0,.96-.34,1.44-1.03,1.44h-.34c.34.33.63.62.86.88.09.14.18.27.27.41.25-.69.42-1.32.51-1.9.09-.58.16-1.31.2-2.19l2.4.25c-.11,1.14-.43,2.15-.96,3.05l2.3.25c-.23,1.17-.56,2.14-1,2.91-.43.78-.78,1.3-1.03,1.57.78-.05,1.67-.07,2.68-.04-.02-.8-.09-1.65-.21-2.55.75.48,1.34,1.04,1.77,1.69.42.64.73,1.58.91,2.8l-2.4.33c0-.45-.01-.89-.03-1.32-2.1.47-3.75.9-4.94,1.3l-.21-2.02c.21-.03.47-.05.79-.08.3-.55.53-1.19.69-1.93.16-.74.31-1.6.45-2.57-.39.66-.98,1.18-1.78,1.56l-.93,1.56c-.09-.69-.18-1.25-.26-1.69-.08-.44-.18-.94-.29-1.5v6.67h-2.47v-4.36c-.53,1.84-1.05,2.9-1.58,3.19.41-1.77.83-3.86,1.27-6.26h-1.06v-1.44h1.37v-1.38h2.47Zm6.96,5.39c-.5-.74-.77-2.02-.79-3.83h-1.44v-1.42h2.47c.37.01.58.23.65.64.07.41.15.83.26,1.25.1.42.37,1.03.81,1.84l-1.96,1.52Z"/>
          <path class="cls-2" d="m153.79,23.91h2.57v.95h3.16c0,.96-.33,1.44-1,1.44h-2.16v.62h3.16c0,.96-.33,1.44-1,1.44h-2.16v.76c.33.07.78.17,1.35.29.74.21,1.4.42,1.97.64l-.67,2.53c-1.42-.99-2.3-1.58-2.66-1.77-.08,1.07-.37,1.88-.86,2.44-.49.56-1.3.88-2.42.96-1.12.08-2.01-.09-2.68-.52-.66-.43-.99-1.07-.98-1.92-.05-.48.06-.98.31-1.51.25-.53.8-.9,1.65-1.11.85-.21,1.65-.28,2.4-.2v-.58h-4.39v-1.44h4.39v-.62h-4.39v-1.44h4.39v-.95Zm-1.7,7.76c-.02.52.16.84.53.97.78.06,1.17-.66,1.17-2.14-1.14-.19-1.71.2-1.7,1.17Z"/>
          <path class="cls-2" d="m170.88,24.44c-.06.49-.37.9-.93,1.21l-3.76,2.47c1.85-.4,3.22-.36,4.12.12.89.48,1.37,1.31,1.42,2.49.05.88-.1,1.59-.44,2.13-.34.54-.84.9-1.52,1.06-.63.15-1.57.25-2.83.29-1.48.01-2.17.01-2.09,0-.83,0-1.45-.14-1.85-.43-.46-.3-.72-.79-.79-1.46-.03-1.18.61-1.87,1.92-2.06,1.24-.19,2.12.04,2.64.7.35.45.5,1.1.43,1.93.39.01.78-.15,1.18-.49.4-.34.58-.86.55-1.54.01-.88-.49-1.4-1.52-1.58-1.02-.17-2.5-.03-4.43.42-.45.1-.69-.08-.72-.51-.03-.44.15-.82.57-1.15l3.07-2.16h-3.43v-1.44h8.4Zm-6.05,7.22c-.35,0-.51.19-.48.58.03.56.31.79.84.68.11-.82,0-1.24-.36-1.25Z"/>
        </g>
        <rect id="_ステージ枠" data-name="ステージ枠" class="cls-3" x="31.5" y="91.9" width="92.73" height="24.61" rx="11.63" ry="11.63"/>
        <g>
          <path class="cls-2" d="m48.96,101.6c0-.12-.1-.18-.31-.18-.24,0-1.21.06-2.91.19-1.71.12-2.57.19-2.6.19-.17,0-.32-.06-.46-.18-.14-.12-.22-.28-.25-.49l-.18-1.57v-.1c0-.25.08-.44.25-.57.12-.1.29-.16.51-.18,2.48,0,5.01-.12,7.57-.37.18-.01.32-.03.41-.05.09-.02.16-.03.2-.03.14,0,.28.05.41.14l1.2.77c.14.09.25.22.31.39.03.07.04.14.04.23s-.02.18-.06.29c-.54,1.39-1.24,2.68-2.1,3.88-.05.1-.08.2-.08.29s.06.19.18.29c1.58,1.26,2.92,2.49,4,3.71.14.16.22.32.22.49,0,.25-.12.46-.35.63-.21.14-.39.29-.54.44-.15.15-.27.27-.36.35-.09.09-.2.19-.31.3-.16.16-.34.24-.56.24s-.42-.11-.6-.33c-1.36-1.57-2.5-2.77-3.41-3.61-.08-.07-.17-.1-.27-.1s-.2.05-.27.14c-1.74,1.78-3.67,3.24-5.81,4.37-.1.07-.25.1-.44.1s-.36-.11-.52-.33c-.26-.44-.55-.84-.86-1.2-.18-.21-.27-.4-.27-.57,0-.24.14-.42.41-.57,2.3-1.12,4.35-2.69,6.14-4.69.58-.65,1.09-1.32,1.55-2,.09-.13.14-.24.14-.31Z"/>
          <path class="cls-2" d="m65.74,104.74h-.92c-.14,0-1.15.03-3.02.08l-.73.04c-.2,0-.36-.07-.5-.21-.14-.14-.22-.31-.25-.52-.04-.99-.06-1.5-.06-1.51,0-.24.07-.41.22-.53.12-.08.27-.12.47-.12h2.55l2.53-.02c.9,0,1.81-.01,2.73-.04l2.55-.04c.77-.01,1.44-.03,2.02-.04l.55-.04c.22,0,.4.07.54.2.14.13.21.31.21.53l.04,1.45c0,.25-.08.43-.24.55-.12.09-.27.14-.47.14h-2.79c-.75,0-1.31,0-1.69.02h-.16c-.16,1.82-.67,3.34-1.55,4.56-.88,1.22-2.13,2.24-3.77,3.05-.09.05-.22.08-.37.08-.18,0-.35-.12-.51-.37-.25-.41-.49-.74-.72-.99-.23-.25-.37-.42-.42-.48-.12-.12-.18-.24-.18-.35,0-.17.1-.31.31-.41,1.18-.48,2.08-1.07,2.73-1.75.67-.75,1.11-1.7,1.31-2.86v-.16c0-.06-.03-.12-.08-.18s-.17-.08-.35-.08Zm-2.02-4.24l-.35.02c-.13,0-.26-.05-.39-.17-.13-.11-.2-.27-.22-.48-.07-1.06-.1-1.6-.1-1.63,0-.21.07-.37.22-.47.1-.08.25-.12.43-.12h.22l.27-.02,1.63-.02c.64,0,1.3,0,1.98-.02l1.96-.04,2.16-.08c.17,0,.31.06.42.18.11.12.17.27.19.45l.04,1.65c0,.18-.06.33-.19.44-.12.11-.29.17-.48.17h-2.1l-3.79.06-1.63.06c-.09.01-.18.02-.27.02Z"/>
          <path class="cls-2" d="m94.53,105.5c0,.16-.03.28-.1.37-.09.13-.24.2-.43.2l-.9-.04c-1.12-.04-2.61-.06-4.45-.06h-2.63c-2.9,0-4.81.04-5.73.12h-.06c-.18,0-.32-.07-.41-.2-.07-.09-.1-.21-.1-.35v-.43l-.02-1.02v-.47c0-.16.05-.29.14-.38.09-.1.22-.15.37-.15l.73.02c.55.03,1.23.04,2.04.04l2.61.02h.71l1.39.02h.71c1.99,0,3.58-.02,4.77-.06l.86-.02c.14,0,.26.05.36.14.1.09.15.22.15.37v1.88Z"/>
          <path class="cls-2" d="m103.67,105.33c-.14.24-.31.35-.51.35s-.37-.04-.53-.14c-.98-.58-1.8-.99-2.47-1.24-.24-.1-.39-.25-.45-.45-.03-.07-.04-.14-.04-.22,0-.13.04-.28.12-.43l.76-1.35c.09-.17.23-.28.41-.33.05-.01.1-.02.16-.02.16,0,.37.05.63.16.68.29,1.52.73,2.51,1.33.25.16.37.36.37.61,0,.14-.05.28-.14.41l-.82,1.31Zm-2.43,4.2c-.09-.17-.14-.31-.14-.43,0-.37.21-.6.63-.71,1.61-.43,3.33-1.2,5.16-2.31,1.67-1.05,3.18-2.22,4.53-3.51.54-.51.98-1,1.33-1.47.12-.14.24-.22.35-.22.2,0,.33.12.39.35.04.14.08.3.14.47.2.51.32.83.38.95.06.12.11.22.15.29.04.07.08.16.14.25.05.1.08.22.08.36,0,.16-.06.31-.18.45-1.29,1.56-2.99,3.02-5.1,4.39-2.03,1.35-4.06,2.35-6.1,3.02-.11.04-.2.06-.29.06-.26,0-.46-.13-.61-.39l-.86-1.57Zm4.92-7.75c-.13.18-.28.27-.45.27s-.33-.06-.47-.18c-.14-.12-.27-.21-.37-.28-.11-.07-.24-.16-.41-.27-.17-.11-.34-.22-.5-.32-.16-.1-.33-.2-.5-.29-.41-.22-.64-.35-.72-.39-.07-.04-.15-.08-.25-.14-.13-.07-.22-.17-.25-.31-.01-.05-.02-.1-.02-.14,0-.1.03-.21.1-.31l.96-1.47c.18-.24.36-.35.52-.35s.35.06.56.18c.48.26.94.54,1.37.82l.98.67c.07.05.12.1.18.14.3.17.45.37.45.61,0,.13-.05.25-.14.37l-1.04,1.41Zm4.06-3.96c.13-.13.27-.2.42-.2s.27.04.36.12c.09.08.16.14.22.19.05.05.11.1.18.15.56.56.87.87.91.92.05.05.11.12.19.21.08.08.12.2.12.34,0,.18-.07.35-.22.49l-.31.28c-.16.17-.34.25-.55.25s-.39-.09-.53-.28c-.24-.27-.41-.47-.53-.58-.12-.11-.21-.2-.28-.27-.07-.07-.17-.16-.28-.26-.16-.13-.24-.3-.24-.52s.09-.41.27-.58l.27-.25Zm2.02-1.67c.17,0,.3.05.39.14.06.07.12.12.18.16.05.04.11.09.18.16.56.55.87.85.91.9.05.05.11.12.19.21.08.08.12.2.12.34,0,.2-.07.36-.22.49l-.33.31c-.14.13-.32.2-.53.2-.22,0-.42-.1-.59-.29-.17-.22-.36-.43-.57-.63-.21-.2-.37-.34-.47-.43-.16-.14-.24-.32-.25-.53,0-.22.09-.42.27-.59l.27-.24c.13-.13.28-.2.45-.2Z"/>
        </g>
        <rect id="_ステージ枠-2" data-name="ステージ枠" class="cls-7" x="129.5" y="51.9" width="92.73" height="24.61" rx="11.63" ry="11.63"/>
        <g>
          <path class="cls-2" d="m139.72,71.97c-.07.14-.17.2-.28.2s-.23-.04-.35-.11c-.12-.07-.25-.14-.39-.2-.14-.06-.31-.14-.52-.24-.21-.1-.42-.18-.63-.26-.26-.07-.33-.23-.2-.48.85-1.57,1.34-3.5,1.46-5.79.04-.68.06-1.34.06-2v-6.63c0-.19.05-.33.17-.44.11-.11.26-.17.44-.17h13.83c.18,0,.33.05.44.17.11.11.17.26.17.44v3.39c0,.18-.06.33-.17.44-.11.11-.26.17-.44.17h-11.5c-.21,0-.31.1-.31.31s.1.31.31.31h12.22c.19,0,.33.05.44.17s.17.26.17.44v.72c0,.19-.06.33-.17.44-.11.11-.26.17-.44.17h-1.3c-.26,0-.41.06-.45.17-.04.11.04.27.25.46.52.49.89.86,1.13,1.1.23.24.34.43.32.58-.02.15-.08.27-.19.35-.59.49-.99.87-1.2,1.13-.15.15-.29.14-.43-.02l-.19-.26-.28-.33c-.14-.16-.31-.23-.52-.2l-.85.07c-.16.01-.32.03-.48.04-.16.01-.33.03-.5.04-.31.03-.46.19-.46.49s.15.45.46.45h2.68c.19,0,.33.06.44.17.11.11.17.26.17.44v.81c0,.19-.05.33-.17.44-.11.11-.26.17-.44.17h-2.65c-.15,0-.27.05-.36.14-.09.09-.14.21-.14.35s.05.26.14.35.21.14.36.14h4.41c.18,0,.33.06.44.17.11.11.17.26.17.44v.8c0,.18-.06.33-.17.44-.11.11-.26.17-.44.17h-12.09c-.19,0-.33-.06-.44-.17-.11-.11-.17-.26-.17-.44v-.8c0-.19.06-.33.17-.44.11-.11.26-.17.44-.17h4c.14,0,.25-.05.34-.14.09-.09.14-.21.14-.35s-.05-.26-.14-.35c-.09-.09-.21-.14-.34-.14h-2.81c-.19,0-.33-.06-.44-.17-.11-.11-.17-.26-.17-.44v-.81c0-.18.06-.33.17-.44.11-.11.26-.17.44-.17h2.92c.25,0,.37-.12.37-.37,0-.11-.03-.2-.1-.27-.07-.07-.22-.09-.45-.07-.23.02-.52.03-.84.05-.33.01-.63.03-.91.05-.28.02-.52.03-.72.03h-.55c-.36.03-.56-.14-.61-.5l-.17-1.11c-.04-.28.1-.44.41-.46l1.3-.04c.23,0,.4-.1.5-.3l.43-.74c.12-.22.06-.33-.2-.33l-2.16.04c-.17,0-.32.06-.43.17s-.17.25-.17.43c-.06,3.57-.65,6.34-1.78,8.33Zm2.15-13.46h9.05c.23,0,.35-.12.35-.36s-.12-.36-.35-.36h-9.05c-.25,0-.37.12-.37.36s.12.36.37.36Zm5.52,5.76l2.07-.07c.19-.02.21-.09.07-.2l-.22-.2-.24-.17c-.16-.14-.14-.27.06-.41.09-.06.12-.11.1-.15-.02-.04-.08-.06-.18-.06h-1.31c-.24,0-.4.1-.5.3l-.22.35c-.12.2-.15.35-.08.46.07.11.22.16.45.15Z"/>
          <path class="cls-2" d="m169.21,63.77l-.83-1.07c-.15-.17-.35-.24-.59-.2-2.76.35-6.31.64-10.64.87-.33.02-.65.04-.94.06-.29.01-.54.02-.75.04-.4.04-.62-.12-.69-.48l-.28-1.52c-.04-.21,0-.38.11-.51.11-.13.25-.2.43-.2.17,0,.33,0,.46,0s.28,0,.43-.02l1.65-.04c.22-.04.41-.17.55-.4.15-.23.36-.58.65-1.05.69-1.13,1.27-2.28,1.74-3.42.14-.35.38-.48.72-.41l1.72.37c.22.05.37.15.44.3.07.15.07.3,0,.45-.08.16-.15.29-.21.42-.67,1.26-1.22,2.2-1.65,2.81-.15.25-.19.43-.11.56s.26.19.55.17c.29-.02.58-.03.88-.04.3,0,.6-.02.9-.05.3-.02.61-.04.92-.06.31-.01.57-.02.8-.04.43-.04.51-.18.24-.42l-.41-.39c-.06-.06-.13-.12-.19-.17-.07-.05-.15-.11-.25-.19-.1-.08-.15-.18-.16-.31,0-.12.05-.23.18-.33l1.17-1.07c.1-.1.22-.15.38-.15s.29.05.42.15c1.58,1.28,3.11,2.77,4.59,4.46.2.26.16.47-.11.65-.03.01-.04.02-.05.04,0,.01-.02.02-.05.04l-.2.15s-.1.09-.18.15c-.32.26-.56.47-.72.63l-.33.3c-.09.09-.18.13-.29.13s-.19-.06-.27-.18Zm-12.48,7.81v-6.5c0-.19.05-.33.17-.44.11-.11.26-.17.44-.17h11.25c.19,0,.33.06.44.17.11.11.17.26.17.44v6.5c0,.18-.06.33-.17.44-.11.11-.26.17-.44.17h-11.25c-.18,0-.33-.06-.44-.17-.11-.11-.17-.26-.17-.44Zm3.54-1.93h5.4c.19,0,.33-.06.44-.17.11-.11.17-.26.17-.44v-1.43c0-.18-.06-.33-.17-.44s-.26-.17-.44-.17h-5.4c-.19,0-.33.06-.44.17-.11.11-.17.26-.17.44v1.43c0,.18.06.33.17.44.11.11.26.17.44.17Z"/>
          <path class="cls-2" d="m179.09,63.96c0,.62-.21,1.15-.64,1.57-.43.43-.94.64-1.55.64s-1.13-.22-1.56-.66-.66-.96-.66-1.56.21-1.12.64-1.54c.43-.43.95-.64,1.57-.64s1.14.21,1.56.63c.42.42.63.94.63,1.56Z"/>
          <path class="cls-2" d="m192.38,71.71l-.18-.91-.06-.17s0-.06-.02-.07c-.06-.21.02-.31.24-.31h.5c.36,0,.64-.07.83-.22.2-.12.3-.37.3-.74v-.26c0-.16-.07-.19-.2-.09-1.18.97-2.55,1.83-4.11,2.55-.09.04-.17.06-.26.06-.22,0-.39-.11-.5-.32-.05-.07-.1-.15-.14-.22-.04-.07-.1-.15-.16-.23s-.11-.15-.16-.22c-.04-.07-.09-.13-.14-.19-.2-.26-.15-.45.15-.57,2.17-1.02,3.88-2.04,5.13-3.05.04-.06.06-.12.06-.19l-.07-.2c-.02-.07-.07-.08-.13-.02-.91.75-1.92,1.4-3.02,1.94-.21.11-.38.06-.5-.17-.02-.05-.06-.1-.09-.16-.04-.06-.07-.11-.09-.18-.11-.14-.19-.25-.25-.34-.06-.09-.1-.13-.12-.12-.03.01-.02.07.02.19l.3.92c.06.26-.02.42-.23.48-.22.06-.41.13-.57.19-.17.07-.3.12-.39.16-.09.04-.19.08-.29.13-.26.12-.43.05-.5-.22l-.41-1.56c-.03-.1-.05-.19-.07-.28-.02-.09-.04-.2-.07-.33-.03-.14-.06-.2-.08-.19s-.04.1-.04.27v4.7c0,.19-.06.33-.17.44-.11.11-.26.17-.44.17h-1.09c-.19,0-.33-.06-.44-.17-.11-.11-.17-.26-.17-.44v-4.35c0-.42-.04-.43-.11-.02-.02.11-.05.22-.07.33-.02.11-.06.26-.1.44-.04.19-.1.4-.17.63-.07.24-.13.44-.18.61-.1.33-.18.57-.24.7-.11.3-.34.39-.68.28-.21-.1-.47-.18-.78-.24-.31-.06-.49-.14-.54-.25-.05-.1,0-.32.13-.64.26-.6.52-1.54.78-2.79.09-.42.33-.59.74-.52l.65.13c.17.04.31.01.42-.07.1-.09.16-.22.16-.39s-.06-.31-.17-.41c-.11-.1-.25-.14-.43-.11l-.65.07c-.1.03-.19.04-.28.05-.09,0-.19.02-.32.04-.13.02-.25-.02-.36-.11-.11-.09-.18-.22-.2-.38l-.2-1.48c-.02-.16.06-.25.24-.28h.26l.35-.02c.17,0,.3-.05.39-.16.09-.1.17-.2.24-.3.07-.09.15-.19.24-.29l.33-.43c.21-.3.17-.56-.11-.78-.44-.32-.8-.56-1.06-.71-.26-.15-.46-.27-.61-.36-.35-.21-.41-.5-.2-.87l.74-1.15c.05-.09.13-.11.24-.07l.31.18c.11.05.2.03.26-.07l.43-.76c.1-.17.19-.34.27-.51.08-.17.15-.31.2-.44.06-.12.1-.22.14-.29.04-.07.07-.15.11-.25.04-.1.11-.17.21-.21.1-.04.22-.04.36,0l1.02.39c.18.07.3.19.36.34.06.15,0,.37-.16.66-.37.68-.8,1.39-1.3,2.15-.05.1-.03.17.06.2l.13.07c.14.14.23.15.28.06.15-.22.29-.44.42-.65.13-.21.24-.39.34-.55.1-.16.18-.29.23-.39.06-.1.11-.2.18-.3.11-.21.25-.31.42-.31s.29.03.38.07l.91.44c.38.18.47.46.26.83-.1.14-.19.28-.29.43-.09.15-.26.39-.49.74-.41.6-1.09,1.55-2.04,2.83-.11.16-.07.23.11.2l.59-.05c.15-.03.2-.11.17-.24l-.07-.24-.09-.19c-.04-.15,0-.24.13-.28l1.37-.48c.2-.09.34-.02.43.19l.24.63c.09.23.13.23.13-.02v-.65c0-.19.06-.33.17-.44.11-.11.26-.17.44-.17h5.07c.17,0,.26-.09.26-.27s-.09-.27-.26-.27h-3.92c-.19,0-.33-.06-.44-.17-.11-.11-.17-.26-.17-.44v-.76c0-.19.06-.33.17-.44.11-.11.26-.17.44-.17h3.91c.19,0,.28-.09.28-.28s-.09-.28-.28-.28h-4.33c-.19,0-.33-.06-.44-.17-.11-.11-.17-.26-.17-.44v-.78c0-.18.06-.33.17-.44.11-.11.26-.17.44-.17h6.35c.19,0,.33.06.44.17.11.11.17.26.17.44v3.85c0,.18.06.33.17.44.11.11.26.17.44.17h.61c.19,0,.33.06.44.17.11.11.17.26.17.44v.8c0,.18-.06.33-.17.44s-.26.17-.44.17h-4.26s-.11.04-.19.11c-.08.07-.1.13-.06.17.25.25.53.61.85,1.09.13.22.29.33.45.33s.31-.05.42-.16c.11-.1.2-.19.28-.27.31-.27.55-.5.71-.68.17-.18.33-.27.48-.27s.29.06.42.17l.7.57c.16.14.24.28.25.44,0,.16-.06.3-.19.41-.31.27-.54.47-.7.59-.16.12-.32.24-.46.36-.15.12-.3.23-.46.35-.16.12-.25.26-.26.43-.01.17.05.32.2.47.86.78,1.74,1.47,2.63,2.09.32.22.35.46.09.72l-.39.44c-.07.07-.14.15-.2.22-.21.32-.42.48-.63.48-.15,0-.36-.11-.63-.33-.49-.42-.8-.69-.93-.81-.12-.12-.23-.19-.33-.19-.14,0-.22.12-.25.37-.03.25-.07.48-.13.69-.05.22-.13.42-.21.6-.38.77-1.19,1.15-2.42,1.15h-.63c-.22,0-.35-.12-.39-.35-.01-.06-.02-.12-.03-.18,0-.06-.02-.11-.03-.18Zm-3.37-5.57c.09.28.23.43.44.43s.68-.22,1.42-.67c.75-.44,1.35-.85,1.8-1.2.05-.05.06-.1.02-.15l-.11-.15s-.09-.05-.13-.02c-.78.52-1.59.98-2.44,1.39-.16.09-.3.04-.41-.13l-.13-.24-.17-.24c-.11-.15-.25-.19-.42-.13-.17.06-.32.12-.46.17-.14.05-.28.1-.41.15-.13.05-.21.01-.23-.11l-.11-.5c-.03-.11-.09-.15-.19-.13l-.3.04c-.1.02-.15.09-.15.18v.43c0,.17.05.3.16.39.11.09.24.11.42.06l.61-.15c.17-.05.33-.03.46.05.14.09.22.18.25.28.03.1.05.16.05.18s0,.05.02.07Zm.8-2.48l.65-.33c.06-.04.13-.07.2-.11.07-.04.16-.08.26-.14.1-.06.14-.11.12-.16-.02-.05-.1-.07-.23-.07h-1.26c-.15,0-.2.08-.17.24l.09.22.06.24c.06.15.15.19.28.11Z"/>
          <path class="cls-2" d="m201.24,70.71v-13.48c0-.18.06-.33.17-.44.11-.11.26-.17.44-.17h11.14c.19,0,.33.05.44.17s.17.26.17.44v13.48c0,.18-.06.33-.17.44-.11.11-.26.17-.44.17h-11.14c-.19,0-.33-.06-.44-.17-.11-.11-.17-.26-.17-.44Zm3.52-8.13h5.33c.19,0,.33-.06.44-.17.11-.11.17-.26.17-.44v-2.15c0-.19-.06-.33-.17-.44-.11-.11-.26-.17-.44-.17h-5.33c-.19,0-.33.06-.44.17s-.17.26-.17.44v2.15c0,.19.06.33.17.44.11.11.26.17.44.17Zm0,6.15h5.33c.19,0,.33-.06.44-.17.11-.11.17-.26.17-.44v-2.44c0-.18-.06-.33-.17-.44s-.26-.17-.44-.17h-5.33c-.19,0-.33.06-.44.17-.11.11-.17.26-.17.44v2.44c0,.19.06.33.17.44.11.11.26.17.44.17Z"/>
        </g>
        <rect id="_ステージ枠-3" data-name="ステージ枠" class="cls-6" x="39.07" y="51.9" width="71.12" height="24.61" rx="11.63" ry="11.63"/>
        <g>
          <path class="cls-2" d="m48.94,72.11c-.21-.41-.51-.86-.89-1.35-.06-.06-.11-.12-.16-.18-.04-.06-.09-.11-.14-.18-.2-.22-.16-.39.11-.5,2.58-1,4.49-2.48,5.74-4.44.43-.69.76-1.44.98-2.26.06-.21.04-.38-.07-.51-.11-.13-.27-.19-.48-.19h-5.37c-.18,0-.33-.06-.44-.17-.11-.11-.17-.26-.17-.44v-1.41c0-.19.05-.33.17-.44s.26-.17.44-.17h5.63c.19,0,.33-.06.44-.17s.17-.26.17-.44v-3.11c0-.19.06-.33.17-.44.11-.11.26-.17.44-.17h1.67c.19,0,.33.06.44.17.11.11.17.26.17.44v3.11c0,.19.05.33.17.44s.26.17.44.17h5.63c.19,0,.33.05.44.17.11.11.17.26.17.44v1.41c0,.18-.06.33-.17.44-.11.11-.26.17-.44.17h-5.35c-.22,0-.39.07-.49.2-.1.14-.13.31-.06.52.42,1.47,1.27,2.81,2.55,4.04,1.18,1.11,2.55,1.97,4.09,2.57.31.12.35.31.13.56-.47.55-.87,1.13-1.2,1.72-.16.3-.38.38-.67.24-2.67-1.3-4.7-3.05-6.09-5.28-.2-.33-.4-.5-.6-.5s-.41.17-.62.5c-1,1.58-2.46,3-4.37,4.26-1.07.7-1.71,1.06-1.92,1.06s-.37-.09-.48-.28Z"/>
          <path class="cls-2" d="m66.67,71.78v-15.16c0-.19.06-.33.17-.44.11-.11.26-.17.44-.17h5.2c.1,0,.25.06.46.19.16.14.24.1.24-.11v-.15c0-.31.15-.46.46-.46h1.44c.19,0,.33.06.44.17.11.11.17.26.17.44v.54c0,.18.06.33.17.44.11.11.26.17.44.17h.56c.19,0,.33.06.44.17.11.11.17.26.17.44v1.02c0,.19-.06.33-.17.44s-.26.17-.44.17h-.56c-.18,0-.33.05-.44.17-.11.11-.17.26-.17.44v.37c0,.16.05.27.14.34.09.07.21.08.36.03l.87-.26c.25-.09.37,0,.37.28v1.63c0,.11-.05.19-.15.22l-.35.11c-.11.06-.11.1.02.11l.83.13c.1.02.14-.02.11-.13-.03-.1-.04-.16-.04-.19l-.02-.26v-6.48c0-.18.06-.33.17-.44.11-.11.26-.17.44-.17h1.22c.19,0,.33.06.44.17.11.11.17.26.17.44v.93c0,.3.1.44.31.44.07,0,.17-.03.28-.09.11-.06.22-.12.31-.17.1-.05.2-.1.3-.17.1-.06.19-.11.27-.16.08-.04.17-.1.28-.18.1-.07.24-.11.4-.11s.3.09.41.26l.63.85c.11.16.15.32.12.47-.03.15-.13.28-.29.38-.84.49-1.73.95-2.66,1.37-.23.12-.35.31-.35.55v.65c0,.2.05.31.16.35.1.04.26.06.46.06s.34-.07.42-.2c.07-.14.14-.43.2-.87.02-.22.14-.29.35-.2.28.12.51.21.69.27.18.06.34.11.49.16l.37.09c.26.09.37.25.33.5-.14,1-.32,1.64-.55,1.93-.23.28-.49.48-.78.59-.29.11-.68.17-1.16.17h-1.65c-.36,0-.64-.03-.86-.1-.22-.07-.36-.03-.42.12l-.22.46c-.07.16-.03.24.13.24h3.72c.19,0,.33.06.44.17s.17.26.17.44v6.5c0,.19-.06.33-.17.44-.11.11-.26.17-.44.17h-8.11c-.18,0-.33-.06-.44-.17-.11-.11-.17-.26-.17-.44v-6.5c0-.18.06-.33.17-.44.11-.11.26-.17.44-.17h.98c.25,0,.42-.11.52-.33l.15-.35c.16-.3.21-.48.14-.55-.07-.07-.15-.08-.25-.05l-1.28.37c-.31.1-.56.17-.76.22-.36.09-.51.32-.46.7.02.2.04.47.04.83s-.05.77-.14,1.23c-.09.46-.26.86-.49,1.19-.48.73-1.26,1.09-2.35,1.09h-.18c-.11,0-.18-.07-.2-.2-.02-.14-.05-.28-.06-.44-.02-.16-.04-.31-.07-.45-.03-.14-.06-.26-.08-.35-.03-.09-.06-.21-.09-.34-.04-.14-.07-.2-.11-.19-.04,0-.06.1-.06.27v4.55c0,.19-.06.33-.17.44-.11.11-.26.17-.44.17h-1.22c-.19,0-.33-.06-.44-.17-.11-.11-.17-.26-.17-.44Zm2.44-10.85c0,.17.02.27.07.28.04.01.17-.25.38-.8l.59-1.7c.05-.15.04-.26-.03-.35-.07-.09-.18-.13-.32-.13h-.09c-.17,0-.31.05-.43.17-.11.11-.17.25-.17.43v2.11Zm.19,5.42h.17c.64,0,.96-.51.96-1.54,0-.6-.16-1.17-.48-1.7-.16-.23-.31-.35-.46-.35-.25,0-.37.24-.37.72v2.68c0,.12.06.19.19.19Zm3.02-3.52l-.13-.43c-.06-.17-.05-.32.04-.44.07-.15.23-.24.48-.28.32-.09.48-.28.48-.59v-2.67c0-.27-.03-.41-.08-.41s-.13.11-.23.33l-.31.78c-.53,1.25-.85,1.97-.96,2.18-.18.36-.17.65.06.87.02.01.04.02.05.04,0,.01.02.03.05.06l.17.17s.03.04.04.05c.01,0,.03.03.07.07.03.04.06.09.1.14.04.05.08.11.14.19.06.08.09.12.1.11.01,0,0-.06-.04-.18Zm3.92,4.65h3.39c.14,0,.24-.04.32-.12.08-.08.12-.19.12-.32s-.04-.24-.12-.32c-.08-.08-.19-.12-.32-.12h-3.39c-.14,0-.24.04-.32.12-.08.08-.12.19-.12.32s.04.24.12.32c.08.08.19.12.32.12Zm0,2.8h3.39c.14,0,.24-.04.32-.12.08-.08.12-.19.12-.32s-.04-.24-.12-.32c-.08-.08-.19-.12-.32-.12h-3.39c-.14,0-.24.04-.32.12-.08.08-.12.19-.12.32s.04.24.12.32c.08.08.19.12.32.12Z"/>
          <path class="cls-2" d="m85.57,71.78v-1.67c0-.16-.08-.23-.24-.2l-.46.06c-.15.02-.23-.04-.26-.19l-.31-2.05c-.03-.18.05-.29.24-.31l.3-.04.37-.02c.25-.02.37-.16.37-.41v-9.9c0-.19.06-.33.17-.44.11-.11.25-.17.43-.19,1.8-.14,3.49-.46,5.05-.98.31-.12.56-.04.74.24l.68,1.04c.12.19.16.36.11.52-.05.16-.18.27-.39.33-.95.35-2.16.59-3.63.74-.35.03-.52.21-.52.57s.18.53.54.53h2.37c.18,0,.33.06.44.17.11.11.17.26.17.44v.83c0,.28.09.43.26.43.19,0,.4-.15.64-.45.24-.3.4-.58.49-.82.09-.25.15-.5.2-.76.06-.42.09-.95.09-1.59v-1.39c0-.19.06-.33.17-.44.11-.11.26-.17.44-.17h4.54c.19,0,.33.06.44.17.11.11.17.26.17.44v3.7c0,.2.1.3.3.3s.32-.15.36-.44c.04-.29.06-.63.06-1.01,0-.25.12-.33.35-.24l1.65.48c.27.06.39.26.37.6-.02.34-.06.69-.11,1.06-.05.37-.14.69-.28.96-.32.62-.91.93-1.78.93h-1.68c-.78,0-1.28-.18-1.52-.54-.1-.15-.15-.34-.15-.59v-3.17c0-.13-.04-.24-.12-.32-.08-.08-.19-.12-.32-.12s-.25.04-.33.12c-.09.08-.14.28-.15.6-.01.32-.05.68-.11,1.09-.06.41-.17.78-.31,1.13-.28.7-.79,1.35-1.52,1.94-.12.1-.25.15-.39.15s-.25-.05-.35-.15l-.3-.3c-.07-.07-.15-.16-.24-.26-.27-.26-.53-.46-.78-.59-.06-.04-.09-.02-.09.06s-.04.11-.11.11h-2.79c-.18,0-.33.06-.44.17-.11.11-.17.26-.17.44v.06c0,.19.06.33.17.44.11.11.26.17.44.17h2.3c.18,0,.33.06.44.17.11.11.17.26.17.44v1.15c0,.19-.06.33-.17.44s-.26.17-.44.17h-2.3c-.18,0-.33.06-.44.17-.11.11-.17.26-.17.44v.28c0,.21.06.37.18.47.12.1.3.15.54.12.88-.12,1.66-.25,2.35-.37.22-.04.4,0,.54.1.14.11.2.28.2.51v1.11c0,.31-.15.51-.46.59-.19.04-.38.08-.59.12-.21.04-.44.09-.68.14-.25.05-.5.1-.77.14-.27.04-.5.08-.71.12-.39.07-.59.28-.59.61v1.81c0,.19-.06.33-.17.44-.11.11-.26.17-.44.17h-1.42c-.19,0-.33-.06-.44-.17s-.17-.26-.17-.44Zm6.08.59c-.13-.07-.23-.18-.29-.32-.17-.46-.38-.88-.61-1.28-.22-.33-.14-.55.26-.65,1.12-.27,2.2-.7,3.22-1.3.17-.1.27-.23.3-.39.02-.16-.02-.32-.13-.48-.44-.69-.81-1.43-1.11-2.22-.07-.28-.27-.43-.57-.43h-.04c-.15,0-.27-.05-.36-.14-.09-.09-.14-.21-.14-.36v-1.09c0-.19.06-.33.17-.44.11-.11.26-.17.44-.17h7.18c.18,0,.32.05.41.17l.44.39c.2.17.25.38.17.61-.47,1.42-1.15,2.67-2.04,3.76-.14.17-.19.34-.17.51.02.17.13.3.31.4.75.43,1.67.77,2.76,1.02.21.04.35.12.41.25.06.13.03.28-.09.45l-.39.61c-.14.19-.25.39-.35.61-.16.34-.41.48-.76.41-1.39-.41-2.63-.99-3.7-1.74-.11-.07-.23-.11-.37-.11s-.26.04-.37.11c-1.16.78-2.54,1.39-4.15,1.85-.16.05-.31.04-.43-.04Zm4.47-6.22l.11.19c.14.2.29.3.45.3s.31-.09.42-.26l.17-.22c.16-.25.19-.45.09-.6-.1-.15-.29-.23-.57-.23h-.19c-.27,0-.46.07-.56.22-.1.15-.08.34.06.57.01.01.02.03.02.04Z"/>
        </g>
        <circle class="cls-2" cx="322.68" cy="154.97" r="14.99"/>
        <path class="cls-13" d="m319.91,144.55l13.43,13.39c.83.82.54,2.22-.54,2.66l-7.23-.75c-.65-.07-1.29.18-1.72.67l-4.99,5.65c-1.08.43-2.26-.39-2.23-1.55l.51-18.96c.04-1.42,1.76-2.11,2.77-1.11Z"/>
        <path class="cls-12" d="m316.82,138.73c-1.72,0-2.63-1.41-3.21-3.26l-1.28-4.12c-.03-.14-.07-.19-.11-.19-.05,0-.08.06-.08.21v7.22h-3.69v-9.21c0-2.63,1.3-3.96,3.1-3.96,1.92,0,2.66,1.41,3.03,2.71l1.34,4.64c.03.18.05.22.13.22.05,0,.11-.05.11-.22v-7.23h3.7v9.16c0,2.81-1.16,4.04-3.05,4.04Z"/>
        <g>
          <path class="cls-2" d="m21.77,18.77v.04c0,1.24-.95,2.36-3.29,2.36-1.6,0-2.25-.25-2.25-1.04,0-.43.29-.83.81-.83.05,0,.13,0,.2.02.47.07.86.13,1.21.13,1.1,0,1.57-.41,1.57-1.03,0-7.65-.04-8.8-.07-9.88-.04-.68-.38-1.03-1.04-1.04-1.17-.04-2.32-.05-3.47-.05-1.31,0-2.65.02-4,.05-.63.02-.86.36-.86.88v.36c0,.99.04,2.16.04,3.4,0,2.97-.22,6.32-1.69,8.48-.29.41-.67.59-1.01.59-.49,0-.92-.36-.92-.83,0-.16.05-.34.18-.52,1.46-2.11,1.73-5.08,1.73-7.78,0-1.39-.07-2.68-.09-3.78v-.05c0-1.5.7-2.25,2.34-2.29,1.55-.04,2.97-.05,4.43-.05,1.28,0,2.56.02,3.98.05,1.06.02,2.12.85,2.14,2.09.05,2.65.02,6.28.05,8.26l.04,2.47Zm-3.04-5.58l-3.62-.04-3.46.04h-.02c-.49,0-.72-.34-.72-.68s.25-.74.72-.74h.02l2.68.04-.02-1.19-2.2.02h-.02c-.49,0-.7-.32-.7-.68s.25-.74.7-.74h.02l2.2.02v-.77c0-.49.41-.74.81-.74s.83.25.83.74v.77l2.29-.02h.02c.45,0,.67.36.67.7,0,.36-.22.72-.67.72h-.02l-2.29-.02-.02,1.19,2.79-.04h.02c.45,0,.67.36.67.7,0,.36-.22.72-.67.72h-.02Zm-7.06,3.26c0-.25.02-.5.02-.88.02-.65.5-1.33,1.4-1.39.41-.02,1.04-.04,1.71-.04.79,0,1.64.02,2.18.04.7.02,1.51.54,1.55,1.28.02.38.04.63.04.88s-.02.5-.04.88c-.04.83-.68,1.53-1.62,1.58-.49.02-1.19.04-1.89.04s-1.4-.02-1.89-.04c-.85-.04-1.4-.76-1.44-1.57,0-.34-.02-.56-.02-.79Zm3.38-.94c-.5,0-.99,0-1.26.02-.49.04-.54.36-.54.92,0,.11.02.2.02.41.02.47.22.49,1.94.49,1.64,0,1.73-.05,1.73-.88q0-.95-1.89-.95Z"/>
          <path class="cls-2" d="m26.01,20.9c-.58,0-1.01-.58-1.01-.99,0-.25.13-.5.45-.68.97-.54,1.89-1.21,2.52-1.85.02-.81.04-1.51.04-2.2v-.74c0-.43-.18-.49-.83-.49h-.79c-.38,0-1.03-.02-1.03-.76,0-.43.29-.86.79-.86.65,0,1.24,0,1.84.02,1.17.04,1.71.54,1.71,1.69,0,1.04-.04,2.29-.04,3.44,1.15,1.42,2.9,1.82,5.42,1.82,1.76,0,3.66-.2,5.06-.31h.09c.56,0,.88.43.88.86s-.29.85-.92.9c-1.12.11-2.75.22-4.37.22-4.77,0-5.82-.99-6.99-2.2-1.4,1.44-2.34,2.12-2.83,2.12Zm2.29-11.72c-.52-.76-1.33-1.33-1.85-1.62-.27-.14-.38-.36-.38-.56,0-.43.45-.86.95-.86.47,0,2.88,1.37,2.88,2.41,0,.54-.47,1.01-.95,1.01-.23,0-.47-.13-.65-.38Zm7.33-1.01c-.23,3.66-.95,6.97-4.2,9.31-.2.14-.41.22-.61.22-.5,0-.92-.43-.92-.9,0-.23.11-.47.38-.67,2.83-2.03,3.44-4.84,3.62-7.96-1.01,0-1.96.02-2.61.02h-.02c-.5,0-.77-.4-.77-.81s.27-.81.77-.81c.7-.02,1.69-.02,2.72-.02,1.4,0,2.92,0,3.94.02,1.21.02,1.94.81,1.98,2.03.02.43.02.94.02,1.48,0,4.03-.41,7.83-3.94,7.83-.52,0-1.06-.09-1.64-.25-.41-.13-.61-.49-.61-.83,0-.45.31-.9.81-.9.11,0,.22.02.34.05.38.13.76.22,1.08.22,1.17,0,2.23-1.06,2.23-5.74,0-.61-.02-1.17-.04-1.62-.02-.5-.34-.67-.72-.67h-1.82Z"/>
          <path class="cls-2" d="m50.5,11.21c-.24,1.91-1.59,4.74-3.03,6.07-1.15,1.07-2.41.48-3.07-.81-.95-1.86.06-4.65,2.07-6.04,1.84-1.27,4.59-1.48,6.48-.34,2.32,1.39,2.7,4.16,1.39,6.3-.71,1.16-2.17,2.08-3.66,2.47-1.32.34-1.78-1.17-.5-1.47,1.14-.25,2.29-.9,2.79-1.68,1.07-1.68.66-3.65-.83-4.59-.58-.38-1.21-.56-1.86-.6.16.15.25.39.21.69Zm-3.33.29c-1.39,1.08-2.14,3.07-1.51,4.23.22.44.62.66.99.33,1.12-.99,2.17-3.38,2.32-5,.02-.18.06-.34.14-.46-.69.15-1.37.46-1.94.9Z"/>
          <path class="cls-2" d="m60.44,12.22h-1.66c-.5,0-.77-.38-.77-.76s.27-.76.77-.76h1.64v-3.78c0-.52.41-.77.83-.77s.85.25.85.77v3.78h1.42c.47,0,.7.38.7.76s-.23.76-.7.76h-1.44v4.05c.38-.18.76-.36,1.1-.56.16-.09.31-.13.45-.13.43,0,.77.32.77.7,0,.25-.16.52-.52.72-.63.34-4.52,2.3-5.26,2.3-.49,0-.79-.41-.79-.83,0-.32.18-.65.58-.77.68-.23,1.37-.47,2.04-.74v-4.75Zm7.76-.14l-1.64.83c0,2.18,0,4.38.02,5.33.04,1.06,1.06,1.08,2.63,1.08,2.2,0,3.24-.07,3.24-1.85,0-.54.38-.79.79-.79.16,0,.92.05.92.92,0,3.26-2.52,3.26-4.84,3.26-2.02,0-4.32-.05-4.36-2.3-.02-1.13-.02-2.93-.02-4.81l-1.1.56c-.13.05-.23.09-.34.09-.41,0-.72-.4-.72-.79,0-.25.13-.52.43-.67l1.73-.86c0-1.57.04-3.04.04-4.01,0-.52.41-.79.81-.79s.79.25.79.76v.02c-.02.74-.02,1.91-.02,3.21l1.64-.81v-3.98c0-.49.4-.74.81-.74s.79.25.79.74v3.17l.88-.45c.45-.23.85-.32,1.19-.32,1.3,0,1.35,1.28,1.35,2.25,0,4.12-.4,5.55-2.23,5.55-.81,0-1.06-.29-1.06-.86,0-.4.2-.79.58-.79.05,0,.11.02.18.04.07.02.14.04.22.04.29,0,.74-.25.74-3.3,0-.76-.02-1.22-.31-1.22-.07,0-.13.02-.2.05-.27.14-.76.4-1.33.68v5.91c0,.45-.4.68-.81.68s-.79-.23-.79-.68v-5.1Z"/>
          <path class="cls-2" d="m89.13,20.66c-1.58.04-3.24.05-4.9.05s-3.31-.02-4.93-.05c-1.57-.04-2.34-.85-2.39-2.18-.05-1.35-.07-2.97-.07-4.65,0-2.04.04-4.12.07-5.89.02-1.15.9-1.93,2.25-1.96,1.57-.04,3.22-.05,4.92-.05s3.4.02,5.1.05c1.1.02,2.18.81,2.2,2.11.04,1.84.07,3.85.07,5.82,0,1.6-.02,3.15-.07,4.52-.04,1.26-.94,2.2-2.23,2.23Zm.56-7.42c0-1.55-.02-3.1-.07-4.48-.04-1.03-.4-1.21-1.28-1.22-1.35-.02-2.84-.04-4.29-.04s-2.88.02-4.14.04c-1.03.02-1.31.31-1.33,1.22-.04,1.46-.05,3.06-.05,4.63s.02,3.1.05,4.45c.04,1.03.4,1.21,1.51,1.22,1.24.02,2.56.04,3.92.04s2.79-.02,4.25-.04c1.01-.02,1.31-.5,1.35-1.28.05-1.44.07-2.99.07-4.54Zm-9.34,5.22c-.52,0-.88-.43-.88-.86,0-.29.18-.58.59-.74,1.22-.45,2.29-1.13,3.21-1.96-.9-.4-1.87-.74-2.9-1.01-.34-.09-.5-.32-.5-.59,0-.38.32-.77.83-.77.27,0,2,.45,3.69,1.19,1.13-1.41,1.93-3.1,2.3-4.83.09-.4.4-.58.74-.58.47,0,.95.32.95.81,0,.23-.58,2.75-2.52,5.29,2.21,1.15,2.54,1.64,2.54,2.09,0,.49-.41.92-.88.92-.2,0-.4-.07-.59-.25-.59-.56-1.31-1.06-2.14-1.53-2.02,2.02-4.02,2.83-4.43,2.83Zm1.31-6.43c-.31,0-.58-.16-.68-.52-.18-.59-.56-1.22-1.03-1.66-.14-.14-.22-.29-.22-.43,0-.36.4-.67.83-.67.9,0,1.98,1.89,1.98,2.43,0,.5-.47.85-.88.85Zm1.98-1.22c-.11-.61-.41-1.22-.77-1.69-.11-.13-.14-.25-.14-.38,0-.36.38-.65.79-.65.9,0,1.66,1.75,1.66,2.43,0,.54-.45.86-.86.86-.31,0-.59-.18-.67-.58Z"/>
        </g>
        <rect class="cls-16" x="185.57" y="15.91" width="28.94" height="10.99" rx="5.5" ry="5.5"/>
        <path class="cls-1" d="m195.3,21.41c0,1.99-1.62,3.61-3.61,3.61s-3.61-1.62-3.61-3.61,1.62-3.61,3.61-3.61,3.61,1.62,3.61,3.61Z"/>
        <path class="cls-11" d="m203.78,21.41c0,1.99-1.62,3.61-3.61,3.61s-3.61-1.62-3.61-3.61,1.62-3.61,3.61-3.61,3.61,1.62,3.61,3.61Z"/>
        <path class="cls-18" d="m212.25,21.41c0,1.99-1.62,3.61-3.61,3.61s-3.61-1.62-3.61-3.61,1.62-3.61,3.61-3.61,3.61,1.62,3.61,3.61Z"/>
        <rect class="cls-16" x="205.57" y="38.91" width="28.94" height="10.99" rx="5.5" ry="5.5"/>
        <path class="cls-1" d="m215.3,44.41c0,1.99-1.62,3.61-3.61,3.61s-3.61-1.62-3.61-3.61,1.62-3.61,3.61-3.61,3.61,1.62,3.61,3.61Z"/>
        <path class="cls-11" d="m223.78,44.41c0,1.99-1.62,3.61-3.61,3.61s-3.61-1.62-3.61-3.61,1.62-3.61,3.61-3.61,3.61,1.62,3.61,3.61Z"/>
        <path class="cls-18" d="m232.25,44.41c0,1.99-1.62,3.61-3.61,3.61s-3.61-1.62-3.61-3.61,1.62-3.61,3.61-3.61,3.61,1.62,3.61,3.61Z"/>
        <rect class="cls-9" x="-4.48" width="346.7" height="176.02"/>
      </g>
    </g>
  </g>
</svg>